<svg width="200" height="136" xmlns="http://www.w3.org/2000/svg" xmlns:svg="http://www.w3.org/2000/svg">
 <g>
  <title>Layer 1</title>
  <g id="svg_25">
   <path fill="#f0f0f0" d="m200,128c0,4.418 -3.582,8 -8,8l-184,0c-4.418,0 -8,-3.582 -8,-8l0,-120c0,-4.418 3.582,-8 8,-8l184,0c4.418,0 8,3.582 8,8l0,120z" id="svg_1"/>
   <path fill="#002A5C" d="m46.334,99.62499c-3.321,-6.406 -4.343,-12.146 -4.586,-15.027c-0.503,-6.025 -3.285,-8.66 -8.422,-10.716c-11.27,-4.425 -18.561,-8.424 -22.884,-12.538c-4.742,-4.512 -8.117,-9.72 -10.442,-16.255l0,83.151c0,4.42 3.582,7.602 8,7.602l78.537,0c-3.712,-3 -6.994,-7.605 -9.789,-11.988c-17.719,-5.973 -26.311,-16.319 -30.414,-24.229z" id="svg_3"/>
   <path fill="#002A5C" d="m102.725,4.72899c0.623,-0.189 1.123,-0.333 1.457,-0.429c0.998,-0.29 24.279,-6.758 44.217,11.297c14.732,2.375 28.123,9.224 38.793,19.867c5.195,5.18 9.488,11.021 12.81,17.333l0,-44.955c0,-4.418 -3.582,-8 -8,-8l-106.08,0c1.204,0.862 2.393,1.762 3.535,2.658c2.399,1.88 6.105,4.611 13.268,2.229z" id="svg_4"/>
   <path fill="#002A5C" d="m187.339,135.97899c-0.021,0.021 -0.043,-0.137 -0.063,-0.137l4.724,0c4.418,0 8,-3.182 8,-7.602l0,-9.244c-3.289,6.25 -7.532,11.84 -12.661,16.983z" id="svg_5"/>
   <path fill="#BBC4CA" d="m0,12.14099l0,3.899c0.024,-0.015 0.049,-0.027 0.074,-0.044c1.11,-0.738 0.565,-2.514 -0.074,-3.855z" id="svg_6"/>
   <path fill="#BBC4CA" d="m93.537,11.70999c3.446,2.802 7.763,5.87 12.763,5.816c1.574,-0.017 5.019,-0.126 5.823,-2.198c1.218,-3.132 -1.934,-5.96 -6.675,-6.665c0,0 22.38,-6.49 40.887,11.219c14.199,1.996 27.315,8.493 37.651,18.799c7.336,7.316 12.756,16.04 16.015,25.563l0,-11.447c-3.321,-6.312 -7.614,-12.153 -12.81,-17.333c-10.67,-10.643 -24.061,-17.492 -38.793,-19.867c-19.938,-18.055 -43.218,-11.587 -44.216,-11.297c-0.334,0.096 -0.834,0.24 -1.457,0.429c-7.162,2.382 -10.868,-0.349 -13.268,-2.229c-1.143,-0.896 -2.331,-1.796 -3.535,-2.658l-8.703,0c0.564,0.262 1.116,0.54 1.648,0.838c5.237,2.947 11.088,8.119 14.67,11.03z" id="svg_7"/>
   <path fill="#BBC4CA" d="m79.728,120.24399c-33.549,-10.443 -33.556,-37.588 -33.556,-37.588s3.406,4.875 8.181,5.682c4.215,0.71 6.925,-3.051 0.566,-8.747c-5.452,-4.885 -11.243,-6.588 -18.566,-9.407c-11.465,-4.411 -18.792,-8.336 -22.778,-12.132c-9.391,-8.934 -12.57,-20.746 -13.48,-37.406c4.999,12.874 13.385,19.74 19.754,22.226c5.226,2.039 12.076,3.844 12.739,0.087c0.455,-2.564 -1.107,-2.983 -6.892,-5.248c-9.24,-3.62 -13.596,-9.304 -19.202,-22.662c-1.643,-3.917 -3.588,-7.348 -5.855,-10.342c-0.411,0.963 -0.639,2.022 -0.639,3.135l0,4.299c0.639,1.341 1.184,3.117 0.074,3.855c-0.025,0.017 -0.05,0.029 -0.074,0.044l0,29.049c2.325,6.535 5.7,11.743 10.442,16.255c4.323,4.114 11.614,8.113 22.884,12.538c5.137,2.056 7.918,4.69 8.422,10.716c0.243,2.881 1.266,8.621 4.586,15.027c4.103,7.91 12.695,18.256 30.414,24.229c2.795,4.383 6.076,8.988 9.789,11.988l6.659,0c-1.151,-1 -2.276,-1.846 -3.367,-2.934c-3.931,-3.916 -7.31,-8.033 -10.101,-12.664z" id="svg_8"/>
   <path fill="#BBC4CA" d="m41.8,7.07099c2.638,3.107 7.038,7.394 11.927,10.224c3.071,1.776 9.118,2.726 11.58,0.891c2.799,-2.089 -0.625,-6.562 -3.309,-8.785c-4.81,-3.981 -12.872,-5.912 -19.574,-6.367c1.987,-1.268 4.11,-2.329 6.309,-3.192l-14.264,0c2.552,2.092 5.006,4.489 7.331,7.229z" id="svg_9"/>
   <path fill="#BBC4CA" d="m200,118.99599l0,-11.448c-3.238,9.461 -8.609,17.935 -15.877,25.226c-1.133,1.137 -2.301,2.068 -3.5,3.068l6.652,0c0.021,0 0.043,0.158 0.063,0.137c5.13,-5.143 9.373,-10.733 12.662,-16.983z" id="svg_10"/>
   <path fill="#002A5C" d="m200,107.54799l0,-43.304c-3.259,-9.523 -8.678,-18.248 -16.016,-25.563c-10.336,-10.306 -23.451,-16.803 -37.65,-18.799c-18.507,-17.708 -40.887,-11.219 -40.887,-11.219c4.74,0.705 7.893,3.533 6.675,6.665c-0.806,2.071 -4.249,2.181 -5.823,2.198c-5,0.054 -9.317,-3.014 -12.763,-5.816c-3.582,-2.912 -9.432,-8.083 -14.67,-11.03c-0.531,-0.298 -1.083,-0.576 -1.647,-0.838l-9.515,0c4.1,0.764 8.297,2.559 11.901,5.72c7.617,6.681 11.358,10.308 16.924,12.382c-11.926,-0.342 -16.787,-5.071 -24.194,-11.019c-9.066,-7.282 -19.122,-5.251 -19.122,-5.251c1.425,-0.816 3.178,-1.443 5.132,-1.832l-9.612,0c-2.2,0.863 -4.322,1.924 -6.309,3.192c6.702,0.455 14.764,2.386 19.574,6.367c2.684,2.222 6.107,6.696 3.309,8.785c-2.462,1.834 -8.509,0.885 -11.58,-0.891c-4.889,-2.83 -9.289,-7.116 -11.927,-10.224c-2.325,-2.74 -4.779,-5.137 -7.331,-7.229l-12.942,0c2.159,2.313 4.188,5.118 6.079,8.47c8.247,14.615 23.322,15.007 23.322,15.007c-11.443,3.241 -27.083,0.295 -35.28,-14.413c-2.117,-3.796 -4.299,-6.756 -6.419,-9.064l-1.229,0c-3.306,0 -6.142,2.005 -7.361,4.865c2.267,2.994 4.212,6.425 5.855,10.341c5.606,13.358 9.962,19.042 19.202,22.662c5.785,2.265 7.347,2.684 6.892,5.248c-0.663,3.756 -7.514,1.951 -12.739,-0.087c-6.369,-2.486 -14.756,-9.352 -19.754,-22.225c0.91,16.66 4.089,28.472 13.479,37.407c3.986,3.795 11.313,7.721 22.778,12.132c7.323,2.819 13.115,4.521 18.566,9.407c6.359,5.695 3.649,9.457 -0.566,8.747c-4.774,-0.808 -8.181,-5.681 -8.181,-5.681s0.006,27.145 33.556,37.588c2.792,4.63 6.17,8.748 10.101,12.664c1.091,1.088 2.216,1.934 3.367,2.934l8.684,0c-3.014,-2 -5.864,-4.268 -8.514,-6.916c-3.977,-3.979 -7.344,-8.309 -10.052,-13.064c-20.987,-5.09 -27.412,-19.32 -27.412,-19.32c13.759,4.218 16.997,-5.084 10.789,-18.332c-7.299,-15.579 -18.262,-21.955 -29.599,-24.5c-10.174,-2.285 -10.438,-3.121 -10.438,-3.121s3.66,0.717 9.907,0.63c7.882,-0.111 15.614,-0.349 23.514,3.863c5.83,3.111 8.719,6.981 11.139,11.919c2.195,4.469 2.577,7.03 4.434,6.586c1.596,-0.378 1.307,-6.745 -0.309,-11.538c-2.096,-6.219 -5.059,-10.726 -10.633,-15.243c-5.704,-4.622 -15.027,-7.832 -28.519,-10.479c-10.207,-2 -21.211,-10.293 -26.162,-27.785c0,0 6.601,13.178 16.614,16.924c10.012,3.75 21.872,2.568 30.846,2.455c8.974,-0.115 15.464,1.116 21.985,7.545c4.127,4.066 9.808,7.663 16.226,3.858c5.882,-3.486 5.706,-6.792 -1.591,-7.268c-6.929,-0.455 -14.88,-3.067 -18.743,-10.337c-3.861,-7.271 -4.316,-12.042 -10.675,-16.018c0,0 5.537,0.391 12.873,8.936c7.118,8.292 21.733,12.191 33.24,10.603c11.618,-1.607 14.312,-8.896 9.09,-12.171c0,0 11.899,-0.554 23.829,11.331c13.866,1.521 26.71,7.653 36.716,17.658c11.629,11.63 18.033,27.089 18.033,43.535c0,16.444 -6.402,31.703 -18.033,43.333c-2.648,2.648 -5.5,4.916 -8.513,6.916l8.7,0c1.199,-1 2.367,-1.934 3.5,-3.068c7.27,-7.293 12.641,-15.767 15.879,-25.228zm-166.853,-52.119c23.179,4.717 24.757,20.979 24.757,20.979c-6.552,-9.062 -16.84,-11.217 -30.861,-14.979c-20.076,-5.377 -20.236,-22.891 -20.236,-22.891s3.006,12.143 26.34,16.891z" id="svg_11"/>
   <path fill="#4495D1" d="m198.468,85.59199c0,-16.445 -6.403,-31.905 -18.034,-43.535c-10.004,-10.005 -22.849,-16.137 -36.715,-17.658c-11.929,-11.885 -23.828,-11.331 -23.828,-11.331c5.223,3.275 2.527,10.564 -9.091,12.171c-11.507,1.588 -26.122,-2.311 -33.24,-10.603c-7.336,-8.544 -12.872,-8.935 -12.872,-8.935c6.359,3.976 6.814,8.747 10.675,16.018c3.863,7.27 11.814,9.882 18.743,10.337c7.294,0.476 7.473,3.781 1.591,7.268c-6.418,3.805 -12.099,0.208 -16.226,-3.858c-6.521,-6.429 -13.011,-7.66 -21.985,-7.545c-8.974,0.113 -20.833,1.295 -30.846,-2.455c-10.014,-3.747 -16.614,-16.925 -16.614,-16.925c4.951,17.492 15.955,25.785 26.162,27.785c13.491,2.648 22.814,5.858 28.519,10.479c5.574,4.518 8.537,9.024 10.633,15.243c1.616,4.793 1.904,11.16 0.309,11.539c-1.857,0.444 -2.239,-2.117 -4.434,-6.585c-2.42,-4.938 -5.309,-8.808 -11.139,-11.918c-7.899,-4.212 -15.632,-3.972 -23.514,-3.861c-6.247,0.087 -9.907,-0.627 -9.907,-0.627s0.264,0.842 10.438,3.127c11.337,2.545 22.3,8.934 29.599,24.512c6.208,13.25 2.971,22.575 -10.789,18.356c0,0 6.425,14.28 27.412,19.37c2.708,4.757 6.075,8.986 10.052,12.965c2.649,2.648 5.5,4.916 8.514,6.916l5.598,0c-4.324,-2 -8.351,-5.412 -11.982,-9.044c-11.061,-11.062 -17.153,-25.665 -17.153,-41.306c0,-15.642 6.092,-30.297 17.153,-41.358c11.059,-11.059 25.766,-17.124 41.406,-17.124c15.642,0 30.346,6.103 41.406,17.161c11.062,11.062 17.154,25.575 17.154,41.216c0,21.6 -11.756,40.455 -29.205,50.455l5.666,0c3.014,-2 5.864,-4.268 8.512,-6.916c11.628,-11.631 18.032,-26.889 18.032,-43.334z" id="svg_12"/>
   <path fill="#FFFFFF" d="m195.461,85.39299c0,-15.641 -6.093,-30.248 -17.154,-41.309c-11.061,-11.059 -25.765,-17.099 -41.406,-17.099c-15.641,0 -30.348,6.115 -41.406,17.174c-11.062,11.062 -17.154,25.781 -17.154,41.421s6.092,30.15 17.153,41.212c3.632,3.632 7.658,7.05 11.982,9.05l12.133,0c-21.038,-7 -36.181,-26.898 -36.216,-50.367c-0.043,-29.553 23.877,-53.443 53.427,-53.486c29.551,-0.044 53.543,23.728 53.584,53.278c0.035,23.523 -15.12,43.575 -36.211,50.575l12.062,0c17.45,-10 29.206,-28.852 29.206,-50.449z" id="svg_13"/>
   <path fill="#002A5C" d="m190.406,85.31699c-0.042,-29.551 -24.034,-53.372 -53.584,-53.328c-29.551,0.043 -53.471,23.884 -53.427,53.436c0.034,23.469 15.178,43.417 36.214,50.417l34.584,0c21.093,-7 36.248,-27.002 36.213,-50.525zm-56.614,-41.463l2.964,-9.381l3.111,9.369l9.893,0l-7.972,5.784l3.151,9.385l-8.037,-5.771l-7.949,5.897l3.008,-9.429l-8.062,-5.736l9.893,-0.118zm-25.728,64.215l-0.938,9.849l-4.994,-8.54l-9.659,2.152l6.582,-7.389l-5.031,-8.523l9.061,3.979l6.547,-7.419l-0.98,9.847l9.078,3.935l-9.666,2.109zm28.89,24.533l-13.14,-57.76l-15.854,0l-5.225,9.123l-7.028,-20.123l82.24,0l-0.947,3.8l0,0.1l-5.882,16.286l-5.373,-9.186l-15.593,0l-13.198,57.76zm29.836,-14.638l-1.086,-9.833l-9.697,-1.96l9.017,-4.075l-1.131,-9.83l6.662,7.318l8.997,-4.115l-4.899,8.598l6.692,7.287l-9.688,-2.004l-4.867,8.614z" id="svg_14"/>
   <polygon fill="#FFFFFF" points="97.04000854492188,67.84199500083923 95.70700073242188,64.11299872398376 102.73599243164062,84.09999060630798 107.96099853515625,74.84199500083923 123.81401062011719,74.84199500083923 136.25399780273438,67.84199500083923 " id="svg_15"/>
   <polygon fill="#FFFFFF" points="170.92599487304688,84.07600378990173 176.61599731445312,67.84199500083923 137,67.84199500083923 137,132.5179898738861 123.83799743652344,74.7649838924408 136.96499633789062,132.56298804283142 150.15199279785156,74.84199500083923 165.7449951171875,74.84199500083923 " id="svg_16"/>
   <polygon fill="#BBC4CA" points="137,67.84199500083923 177,67.84199500083923 177,67.64199805259705 177.947021484375,63.84199500083923 95.70700073242188,63.84199500083923 97.04000854492188,67.84199500083923 136.25399780273438,67.84199500083923 123.83799743652344,74.71800208091736 137,132.5179898738861 " id="svg_17"/>
   <path fill="#DA2128" d="m72.335,6.92499c7.407,5.948 12.268,10.677 24.195,11.019c-5.566,-2.075 -9.307,-5.701 -16.924,-12.382c-3.605,-3.161 -7.802,-4.956 -11.902,-5.72l-9.359,0c-1.955,0.389 -3.708,1.016 -5.132,1.832c0,0 10.056,-2.03 19.122,5.251z" id="svg_18"/>
   <path fill="#DA2128" d="m50.927,23.31999c0,0 -15.075,-0.392 -23.322,-15.007c-1.891,-3.352 -3.92,-6.157 -6.079,-8.47l-12.297,0c2.12,2.308 4.302,5.268 6.418,9.064c8.198,14.707 23.837,17.654 35.28,14.413z" id="svg_19"/>
   <path fill="#DA2128" d="m6.807,38.53799c0,0 0.16,17.514 20.237,22.893c14.021,3.76 24.309,5.917 30.861,14.978c0,0 -1.578,-16.261 -24.757,-20.979c-23.335,-4.749 -26.341,-16.892 -26.341,-16.892z" id="svg_20"/>
   <polygon fill="#DA2128" points="128.9530029296875,59.13800024986267 136.90199279785156,53.240997076034546 144.93899536132812,59.013999700546265 141.78799438476562,49.62598776817322 149.75999450683594,43.84199118614197 139.86700439453125,43.84199118614197 136.75599670410156,34.47298789024353 133.79200744628906,43.85099387168884 123.89801025390625,43.97098898887634 131.96099853515625,49.70798850059509 " id="svg_21"/>
   <polygon fill="#DA2128" points="109.63299560546875,92.17700171470642 103.08599853515625,99.59599280357361 94.02500915527344,95.61698889732361 99.05599975585938,104.14100623130798 92.47500610351562,111.5299985408783 102.13400268554688,109.37799048423767 107.12699890136719,117.91699194908142 108.06399536132812,108.06898474693298 117.73001098632812,105.95799231529236 108.65200805664062,102.02400183677673 " id="svg_22"/>
   <polygon fill="#DA2128" points="174.65200805664062,104.06700110435486 179.552001953125,95.46899390220642 170.55499267578125,99.58499121665955 163.89300537109375,92.26600623130798 165.02301025390625,102.09599280357361 156.00599670410156,106.17100501060486 165.7039794921875,108.13099646568298 166.78997802734375,117.96400427818298 171.65402221679688,109.34899878501892 181.34600830078125,111.3529965877533 " id="svg_23"/>
  </g>
 </g>
</svg>