<svg width="200" height="136" xmlns="http://www.w3.org/2000/svg" xmlns:svg="http://www.w3.org/2000/svg">
 <g>
  <title>Layer 1</title>
  <path id="svg_1" d="m200.02142,127.97198c0,4.418 -3.582,8 -8,8l-184,0c-4.418,0 -8,-3.582 -8,-8l0,-120c0,-4.418 3.582,-8 8,-8l184,0c4.418,0 8,3.582 8,8l0,120z" fill="#051c2c"/>
  <path id="svg_3" d="m188.7015,74.691c-7.078,8.404 -9.789,10.822 -18.178,17.318c-11.704,8.325 -23.99,13.99 -37.882,16.99l50.921,0c4.418,0 8,-3.182 8,-7.602l0,-30.573c-0.941,1.444 -1.91,2.742 -2.861,3.867z" fill="none"/>
  <path id="svg_4" d="m144.79975,187.43c-4.15,-4.597 -5.699,-7.203 -7.194,-9.727c0,0 -2.304,-3.645 -2.365,-3.744c-4.622,-8.193 -6.457,-10.023 -9.092,-12.673c-1.24,-1.578 -4.04,-3.595 -7.18,-5.167l0,53.279c0,4.42 3.582,7.602 8,7.602l67.815,0c-5.511,-1 -10.458,-2.932 -14.878,-5.124c-16.633,-6.064 -31.914,-19.966 -35.106,-24.446z" fill="none"/>
  <path id="svg_5" d="m136.81475,124.142c5.02,-11.105 16.159,-26.481 40.662,-36.62c5.063,-2.497 11.396,-4.777 18.735,-6.522l-69.243,0c-4.418,0 -8,3.582 -8,8l0,58.355c2.898,-1.822 5.851,-4.048 7.876,-6.158c3.576,-4.418 6.744,-9.836 9.97,-17.055z" fill="none"/>
  <path id="svg_7" d="m318.96875,119.466l0,-30.466c0,-4.418 -3.582,-8 -8,-8l-53.352,0c0.666,0.144 1.332,0.282 2.002,0.436c14.864,2.747 47.564,15.503 59.35,38.03z" fill="none"/>
  <path id="svg_8" d="m15.05916,56.90241c2.502,-3.948 3.489,-6.177 4.857,-9.262l1.462,-3.24c4.408,-9.374 11.821,-17.967 21.433,-24.845c9.398,-6.294 19.807,-11.336 28.528,-13.821c37.905,-11.011 76.662,-1.795 93.464,7.244c6.645,3.048 24.616,14.338 31.887,27.338c-3.338,0 -39.854,0 -40.49,0c-28.193,-22 -66.225,-16.12 -84.981,-6.966c-7.579,4.208 -11.981,7.723 -17.497,13.601c-8.56,10.36 -13.165,28.074 1.885,43.891c6.805,6.615 13.608,11.133 22.086,14.604c19.61,8.132 47.128,7.43 66.913,-1.997c12.641,-6.597 21.033,-15.133 24.431,-25.133c1.127,0 22.356,0 30.831,0l0,-3.934l-33.783,-0.037l-0.229,0.91c-3.338,13.401 -16.836,21.76 -24.584,25.551c-20.225,8.599 -45.693,8.701 -64.826,0.234c-17.884,-8.961 -27.394,-21.082 -26.725,-34.109c0.684,-13.28 11.989,-25.972 28.8,-32.333c32.519,-11.916 63.773,-1.671 75.582,9.415l0.346,0.323l45.419,-0.041l0,-5.513c-11.786,-22.527 -44.486,-35.283 -59.35,-38.03c-0.67,-0.154 -1.336,-0.292 -2.002,-0.436l-61.405,0c-7.339,1.745 -13.672,4.025 -18.735,6.522c-24.503,10.138 -35.642,25.514 -40.662,36.62c-3.227,7.219 -6.394,12.637 -9.97,17.055c-2.025,2.11 -4.978,4.336 -7.876,6.158l0,4.32c3.766,-1.965 10.488,-6.3 15.191,-14.089z" fill="#051c2c"/>
  <path id="svg_9" d="m197.3763,101.37399c0.951,-1.125 1.92,-2.424 2.861,-3.867l0,-7.891c-2.339,5.25 -6.299,11.028 -13.369,17.871c-0.001,0 -1.441,1.295 -1.441,1.295c-6.272,5.66 -14.864,13.418 -31.657,19.549c-28.636,11.109 -71.465,9.826 -95.495,-2.848c-0.013,-0.009 -1.509,-0.762 -1.509,-0.762c-5.4,-2.7 -12.796,-6.4 -22.115,-15.064c-6.501,-5.976 -11.035,-11.873 -16.731,-21.771c-5.978,-10.933 -13.405,-15.185 -17.683,-17.062l0,3.979c3.141,1.572 5.94,3.589 7.18,5.167c2.635,2.647 4.47,4.479 9.091,12.673c0.062,0.1 2.365,3.744 2.365,3.744c1.496,2.523 3.044,5.13 7.194,9.727c3.192,4.48 18.474,18.383 35.106,24.446c4.42,2.192 9.367,4.124 14.878,5.124l65.264,0c13.893,-3 26.178,-8.665 37.882,-16.99c8.39,-6.497 11.101,-8.915 18.179,-17.32z" fill="#051c2c"/>
  <path id="svg_10" d="m17.683,87.94734c5.696,9.897 10.229,15.795 16.731,21.771c9.319,8.664 16.715,12.364 22.115,15.064c0,0 1.496,0.753 1.509,0.762c24.03,12.674 66.858,13.957 95.495,2.848c16.792,-6.131 25.384,-13.889 31.658,-19.549c0,0 1.438,-1.295 1.44,-1.295c7.069,-6.843 11.03,-12.621 13.369,-17.871l0,-11.934c-8.476,0 -29.704,0 -30.831,0c-3.398,10 -11.79,18.551 -24.43,25.146c-19.785,9.427 -47.303,10.237 -66.913,2.105c-8.479,-3.47 -15.282,-8.007 -22.086,-14.621c-15.05,-15.818 -10.445,-33.495 -1.885,-43.855c5.516,-5.878 9.917,-9.522 17.497,-13.731c18.755,-9.152 56.787,-15.044 84.98,6.956c0.636,0 37.152,0 40.49,0c-7.271,-13 -25.242,-24.29 -31.887,-27.338c-16.802,-9.039 -55.559,-18.373 -93.464,-7.362c-8.722,2.484 -19.13,7.586 -28.527,13.88c-9.612,6.877 -17.025,15.501 -21.433,24.875l-1.462,3.255c-1.369,3.085 -2.355,5.32 -4.857,9.269c-4.704,7.789 -11.426,12.131 -15.192,14.096l0,0.466c4.278,1.877 11.705,6.129 17.683,17.063zm-1.011,-25.331c4.061,-4.488 7.266,-16.03 13.679,-24.795c9.112,-12.84 21.169,-19.565 30.14,-23.853c20.519,-10.047 50.018,-12.911 78.875,-5.986c10.473,2.479 20.948,5.994 28.426,10.867c7.481,4.445 16.246,10.894 21.162,16.894l-30.823,0c-9.148,-7 -19.195,-10.653 -28.172,-12.576c-10.048,-2.565 -25.863,-3.83 -44.674,0.658c-11.115,2.78 -18.81,6.678 -26.29,12.021c-14.749,10.476 -30.995,38.032 -2.14,61.975c9.406,7.947 17.314,10.525 26.079,13.562c16.246,4.702 36.55,3.81 48.308,0.604c17.74,-4.702 24.365,-10.897 30.138,-15.813c5.345,-5.13 9.833,-11.328 11.073,-14.533l25.308,-0.047c-1.754,9.451 -8.593,17.147 -15.219,23.559c-7.588,7.156 -13.252,10.904 -24.453,16.506c-26.206,12.566 -64.68,12.139 -88.406,3.546c-12.184,-4.448 -15.604,-6.452 -24.796,-12.821c-7.48,-6.033 -12.398,-10.007 -19.451,-20.908c-3.205,-5.346 -4.702,-8.336 -8.336,-13.254c-2.565,-2.776 -4.275,-5.344 -8.764,-7.479c4.113,-2.89 6.358,-5.026 8.336,-8.127z" fill="#FFFFFF"/>
  <path id="svg_11" d="m17.09939,78.23151c3.634,4.916 5.131,7.908 8.336,13.252c7.053,10.901 11.971,14.875 19.451,20.908c9.192,6.37 12.612,8.375 24.796,12.822c23.726,8.594 62.201,9.021 88.406,-3.546c11.201,-5.603 16.865,-9.351 24.453,-16.505c6.626,-6.411 13.465,-14.105 15.219,-23.557l-25.308,0.045c-1.24,3.205 -5.728,9.406 -11.073,14.535c-5.771,4.916 -12.396,11.115 -30.138,15.817c-11.757,3.205 -32.062,4.104 -48.308,-0.599c-8.765,-3.035 -16.673,-5.601 -26.079,-13.549c-28.854,-23.941 -12.608,-51.472 2.142,-61.948c7.479,-5.343 15.174,-9.19 26.29,-11.97c18.812,-4.488 34.626,-3.326 44.674,-0.761c8.976,1.924 19.022,5.577 28.171,12.577l30.823,0c-4.916,-6 -13.681,-12.449 -21.162,-16.895c-7.479,-4.873 -17.954,-8.49 -28.426,-10.969c-28.857,-6.925 -58.356,-4.009 -78.875,6.038c-8.971,4.288 -21.028,11.039 -30.14,23.878c-6.413,8.764 -9.619,20.319 -13.679,24.807c-1.978,3.101 -4.223,5.244 -8.337,8.131c4.488,2.137 6.198,4.71 8.764,7.489z" fill="#dc4405"/>
 </g>
</svg>