<svg width="200" height="136" xmlns="http://www.w3.org/2000/svg" xmlns:svg="http://www.w3.org/2000/svg">
 <g>
  <title>Layer 1</title>
  <path id="svg_1" d="m200,128c0,4.418 -3.582,8 -8,8l-184,0c-4.418,0 -8,-3.582 -8,-8l0,-120c0,-4.418 3.582,-8 8,-8l184,0c4.418,0 8,3.582 8,8l0,120z" fill="#f0f0f0"/>
  <g id="svg_2">
   <path id="svg_3" d="m194.957001,80.007503c0,0 -0.976,2.802 -2.913,7.891c0,0 -1.494,7.003 -11.667,7.391c0,0 -9.901,12.531 -14.028,16.127l-0.35,-3.045c0,0 -6.908,6.398 -12.9,10.176l2.026,-17.733c0,0 0.493,-3.166 -1.517,-3.396l-5.172,-0.121c0,0 1.693,10.672 -0.354,15.604c0,0 -1.304,7.75 -13.323,11.441c0,0 -9.289,2.958 -19.914,3.785l-2.285,-0.361l-16.728,6.854l4.89,-17.541c0,0 -6.271,0.635 -6.811,-0.146l-18.628,7.981l7.32,-20.98l5.018,-2.777l-1.6,-2.179l-10.3,0.095l-3.79,2.945c-8.748,-2.275 -17.255,-1.665 -17.255,-1.665l-43.288,34.937l-0.34,0.559l180.951,0c4.418,0 8,-3.182 8,-7.602l0,-55.682c-1.52,1.755 -3.874,4.718 -5.042,7.442z" fill="none"/>
   <path id="svg_4" d="m61.615001,30.869503c0,0 2.685,-4.681 17.379,-13.136c0,0 13.477,-7.937 28.823,-13.016c0,0 10.404,-3.578 13.474,-3.759l-0.304,-1.109l-112.988,0c-4.418,0 -8,3.582 -8,8l0,50.104l19.268,-1.624c0,0 16.621,-14.83 42.348,-25.46z" fill="none"/>
   <path id="svg_5" d="m181.679001,17.615503c0,0 9.576,-0.53 18.32,3.492l0,-13.258c0,-4.418 -3.582,-8 -8,-8l-27.585,0c4.877,3.428 11.606,9.183 17.265,17.766z" fill="none"/>
   <path id="svg_6" d="m-0.000999,91.267503l0,7.414c3.841,-4.807 5.32,-8.178 5.32,-8.178l-5.32,0.764z" fill="none"/>
   <path id="svg_7" d="m177.923001,63.613503c-2.732,12.765 7.604,8.113 7.604,8.113c-6.688,-4.717 -0.635,-8.074 -0.635,-8.074c-5.785,-9.832 10.896,-21.234 10.896,-21.234l-170.577,14.011c18.317,-14.988 43.491,-24.078 43.491,-24.078l-2.237,-1.229l4.187,-1.973l0.603,-1.803c32.949,-22.06 56.174,-23.138 56.174,-23.138l-1.046,-3.115c11.263,-1.177 16.425,-1.14 16.425,-1.14l0.037,-0.104l-21.857,0l0.304,1.109c-3.067,0.181 -13.474,3.759 -13.474,3.759c-15.346,5.08 -28.823,13.016 -28.823,13.016c-14.695,8.455 -17.38,13.136 -17.38,13.136c-25.727,10.63 -42.348,25.46 -42.348,25.46l-19.268,1.624l0,3.949l179.348,-15.423c-10.757,8.925 -3.336,14.571 -3.336,14.571l-176.012,26.233l0,3.984l5.32,-0.764c0,0 -1.479,3.371 -5.32,8.178l0,6.18c8.372,-8.922 10.007,-15.842 10.007,-15.842l167.917,-25.406z" fill="#FFFFFF"/>
   <path id="svg_8" d="m54.678001,100.353503c0,0 8.508,-0.609 17.255,1.665l3.79,-2.946l10.3,-0.094l1.6,2.18l-5.018,2.776l-7.32,20.981l18.628,-7.982c0.54,0.78 6.811,0.146 6.811,0.146l-4.89,17.541l16.728,-6.854l2.285,0.36c10.625,-0.827 19.914,-3.784 19.914,-3.784c12.021,-3.691 13.323,-11.441 13.323,-11.441c2.047,-4.932 0.354,-15.604 0.354,-15.604l5.172,0.122c2.009,0.229 1.517,3.395 1.517,3.395l-2.026,17.733c5.994,-3.776 12.9,-10.175 12.9,-10.175l0.35,3.045c4.127,-3.599 14.028,-16.129 14.028,-16.129c10.172,-0.387 11.667,-7.39 11.667,-7.39c1.938,-5.089 2.913,-7.891 2.913,-7.891c1.168,-2.726 3.522,-5.688 5.042,-7.442l0,-6.828c-1.711,3.656 -3.332,5.173 -3.332,5.173c-4.896,4.822 -6.089,9.72 -6.089,9.72c-2.53,6.979 -3.433,7.88 -3.433,7.88c-1.949,3.199 -9.879,3.043 -9.879,3.043c-1.854,4.477 -9.076,12.295 -9.076,12.295l-0.66,-2.227l-9.533,8.49l1.494,-11.815c0.542,-4.032 -3.801,-4.959 -3.801,-4.959l-20.84,0.909c-3.047,14.186 -13.998,16.351 -13.998,16.351c-15.787,3.196 -26.279,2.544 -26.279,2.544l-0.673,-0.507l-12.057,5.245l4.25,-11.78l6.426,-2.549c0.494,-0.156 0.313,-0.817 0.313,-0.817l-0.613,-1.89c6.619,-0.601 12.661,-5.243 12.661,-5.243c0.77,-0.626 -0.386,-0.891 -0.386,-0.891l-30.673,0.68l-2.419,2.321c-26.494,-4.387 -44.64,3.357 -44.64,3.357c-11.916,4.44 -21.126,12.878 -26.765,19.189l0,7.991c0,0.726 0.105,1.424 0.285,2.091c4.782,-4.548 4.817,-9.423 4.817,-9.423c17.512,-20.629 43.082,-20.322 43.082,-20.322l-39.909,32.332l-1.456,3.025c0.387,0.059 0.779,-0.101 1.181,-0.101l3.049,0l0.343,-0.559l43.287,-34.937zm50.57,15.307c0,0 14.45,-1.115 18.817,-2.427c0,0 11.205,-2.198 12.881,-16.36l7.207,-0.082c0,0 1.441,9.507 0.585,13.752c0,0 -1.421,6.306 -7.859,8.771c0,0 -9.481,4.017 -23.705,4.929l-0.686,-0.59l-10.781,4.545l3.541,-12.538z" fill="#FFFFFF"/>
   <path id="svg_9" d="m159.013001,0.909503c17.56,12.158 20.103,21.024 20.103,21.024c12.741,-1.042 19.55,2.712 19.55,2.712c0.479,0.206 0.918,0.443 1.335,0.698l0,-4.237c-8.744,-4.022 -18.321,-3.492 -18.321,-3.492c-5.66,-8.582 -12.389,-14.337 -17.266,-17.765l-13.395,0c4.151,1.195 6.719,2.96 6.719,2.96l1.275,-1.9z" fill="#FFFFFF"/>
   <path id="svg_10" d="m179.347001,46.479503l-179.348,15.423l0,25.381l176.012,-26.232c0,-0.001 -7.421,-5.646 3.336,-14.572z" fill="#DA2128"/>
   <path id="svg_11" d="m26.764001,101.068503c0,0 18.146,-7.744 44.64,-3.357l2.419,-2.321l30.672,-0.677c0,0 1.154,0.264 0.386,0.89c0,0 -6.042,4.644 -12.661,5.243l0.613,1.89c0,0 0.181,0.662 -0.313,0.817l-6.426,2.549l-4.25,11.78l12.057,-5.245l0.673,0.507c0,0 10.493,0.651 26.28,-2.544c0,0 10.951,-2.165 13.998,-16.35l20.84,-0.91c0,0 4.343,0.927 3.8,4.959l-1.493,11.814l9.531,-8.49l0.66,2.226c0,0 7.223,-7.819 9.076,-12.295c0,0 7.93,0.157 9.879,-3.043c0,0 0.902,-0.902 3.433,-7.88c0,0 1.192,-4.897 6.089,-9.721c0,0 1.621,-1.517 3.332,-5.172l0,-40.394c-0.417,-0.255 -0.855,-0.492 -1.335,-0.698c0,0 -6.81,-3.754 -19.55,-2.712c0,0 -2.542,-8.867 -20.104,-21.024l-1.273,1.9c0,0 -2.567,-1.765 -6.719,-2.96l-8.174,0l-0.039,0.104c0,0 -5.162,-0.037 -16.424,1.14l1.045,3.115c0,0 -23.224,1.078 -56.173,23.138l-0.602,1.802l-4.187,1.973l2.237,1.229c0,0 -25.174,9.089 -43.491,24.078l170.575,-14.011c0,0 -16.681,11.402 -10.896,21.234c0,0 -6.052,3.357 0.635,8.074c0,0 -10.336,4.652 -7.604,-8.113l-167.914,25.407c0,0 -1.635,6.92 -10.007,15.843l0,15.395c5.639,-6.313 14.849,-14.751 26.765,-19.19z" fill="#005496"/>
   <path id="svg_12" d="m113.174001,124.242503c14.224,-0.912 23.705,-4.929 23.705,-4.929c6.438,-2.465 7.858,-8.771 7.858,-8.771c0.857,-4.246 -0.584,-13.752 -0.584,-13.752l-7.207,0.082c-1.678,14.162 -12.881,16.36 -12.881,16.36c-4.367,1.312 -18.817,2.427 -18.817,2.427l-3.541,12.537l10.78,-4.545l0.687,0.591z" fill="#005496"/>
   <path id="svg_13" d="m48.183001,100.593503c0,0 -25.57,-0.309 -43.082,20.322c0,0 -0.035,4.875 -4.817,9.423c0.82,3.032 3.373,5.345 6.534,5.812l1.456,-3.227l39.909,-32.33z" fill="#005496"/>
  </g>
 </g>
</svg>