<svg width="200" height="136" xmlns="http://www.w3.org/2000/svg" xmlns:svg="http://www.w3.org/2000/svg">
 <g>
  <title>Layer 1</title>
  <path id="svg_1" d="m200,128c0,4.418 -3.582,8 -8,8l-184,0c-4.418,0 -8,-3.582 -8,-8l0,-120c0,-4.418 3.582,-8 8,-8l184,0c4.418,0 8,3.582 8,8l0,120z" fill="#0c2340"/>
  <path id="svg_5" d="m377.15938,215.12025l-21.832,-1.373l-0.089,-0.007l0.004,-0.086l0.367,-4.289l0,-0.011l0,-0.015c0,-0.812 -1.583,-8.134 -19.439,-15.482l-0.049,-0.018l-0.052,0.021c-3.037,1.407 -9.265,3.823 -16.899,4.233c-9.201,0.494 -17.742,-1.985 -25.386,-7.379l-0.051,-0.035l-0.063,0.021c-3.066,1.04 -9.111,3.203 -15.152,7.354c-9.67,6.644 -15.546,14.852 -17.531,24.852l108.622,0c4.418,0 8,-3.182 8,-7.602l0,-0.588l-0.45,0.404z" fill="none"/>
  <g id="svg_23">
   <path id="svg_9" d="m100.9065,111.148c6.041,-4.15 12.086,-6.414 15.151,-7.455l0.064,0.031l0.051,0.06c7.643,5.393 16.184,7.884 25.387,7.39c7.633,-0.408 13.861,-2.82 16.898,-4.227l0.053,-0.018l0.047,0.02c17.859,7.349 19.442,14.672 19.442,15.485l0,0.015l0,0.011l-0.367,4.289l-0.005,0.086l0.089,0.007l21.832,1.373l0.451,-0.403l0,-6.06l-2.047,1.751l-14.461,-0.954c0.017,-0.562 -0.064,-3.264 -2.795,-7.022c-1.76,-2.418 -4.264,-4.77 -7.441,-6.983c-3.968,-2.761 -9.008,-5.319 -14.979,-7.601l-0.049,-0.018l-0.045,0.024c-0.213,0.127 -21.559,12.434 -40.949,-3.193l-0.039,-0.032l-0.053,0.01c-0.094,0.024 -9.492,2.416 -19.053,8.908c-5.618,3.812 -10.196,8.074 -13.602,13.062c-3.41,4.99 -5.64,10.296 -6.672,16.296l5.562,0c1.986,-10 7.862,-18.208 17.53,-24.852z" fill="#0c2340"/>
   <path id="svg_4" d="m55.8975,116.098c-10.377,-10.01 -25.673,-16.832 -46.762,-21.056c-3.236,-0.647 -6.274,-1.181 -9.136,-1.8l0,35.156c0,4.42 3.582,7.602 8,7.602l61.475,0c-2.892,-6 -7.021,-13.574 -13.577,-19.902z" fill="none"/>
   <path id="svg_8" d="m95.9085,90.693c-24.372,0.201 -37.079,13.56 -40.265,17.451c-4.128,-3.213 -8.834,-6.088 -14.064,-8.59c-4.29,-2.054 -9.018,-3.896 -14.145,-5.521c6.34,-5.994 38.071,-33.208 81.109,-22.399c1.194,12.508 9.626,23.725 22.336,27.855c10.272,3.339 21.005,1.287 29.136,-4.592l19.117,7.416l-19.925,-12.713c-6.211,5.287 -14.884,7.43 -23.289,4.947c-11.731,-3.467 -19.001,-14.779 -17.778,-26.52c-15.856,-8.811 -43.639,-16.032 -43.639,-16.032l7.278,10.995c-44.848,-1.245 -74.568,19.888 -80.8,24.755c-0.331,-0.074 -0.655,-0.145 -0.98,-0.22l0,5.717c2.862,0.619 5.9,1.252 9.136,1.898c21.089,4.225 36.386,10.946 46.763,20.955c6.555,6.331 10.684,13.905 13.576,19.905l6.384,0c-2.516,-6 -5.875,-13.299 -11.505,-19.818c7.626,-19.494 31.555,-25.489 31.555,-25.489z" fill="#0c2340"/>
   <path id="svg_12" d="m124.9315,39.768l0.08,0.022l0.043,-0.069c0.016,-0.028 0.414,-0.687 0.014,-1.741c-0.598,-1.575 -2.978,-3.942 -10.754,-6.344c3.924,-0.03 24.338,0.589 34.699,16.082l0.021,0.026l0.028,0.013l25.521,10.81l-2.783,1.854l-0.138,0.093l0.14,0.09c0.246,0.153 16.096,10.121 28.198,18.158l0,-6.578c-6.31,-4.16 -13.087,-8.5 -18.103,-11.688l-0.168,-0.105l0.164,-0.112l3.746,-2.392l-33.033,-14.582l-0.022,-0.028c-14.278,-18.254 -40.378,-17.106 -40.378,-17.106c-3.007,-4.746 -11.404,-16.785 -24.369,-26.057c-0.057,-0.038 -0.111,-0.075 -0.166,-0.114l-10.583,0c2.963,1.583 5.878,3.44 8.729,5.574c8.333,6.23 16.153,14.822 22.631,24.849c-12.642,-2.333 -25.604,-3.257 -38.536,-2.735c-3.82,-7.649 -10.291,-13.255 -17.327,-15.005c-7.81,-1.939 -17.818,-0.441 -29.75,4.448c-9.294,3.81 -16.958,4.679 -22.836,2.601l0,8.304c3.172,-0.592 6.583,-1.447 10.247,-2.572c24.315,-7.464 40.768,-6.3 46.386,3.257c-19.028,2.175 -38.052,7.331 -56.633,15.331l0,7.333c29.968,-13.299 74.859,-25.266 124.932,-11.617z" fill="#0c2340"/>
   <path id="svg_11" d="m12.5005,6.229c2.691,-1.397 7.761,-3.921 12.83,-6.229l-12.019,0c-1.371,0.72 -2.427,1.294 -3.002,1.627c-2.983,1.727 -5.964,2.122 -8.794,1.7c-0.95,1.316 -1.516,2.926 -1.516,4.673l0,0.55c3.543,0.602 7.721,0.156 12.501,-2.321z" fill="#0c2340"/>
   <path id="svg_7" d="m10.3105,1.627c0.575,-0.333 1.63,-0.907 3.001,-1.627l-5.312,0c-2.672,0 -5.031,1.314 -6.484,3.327c2.831,0.422 5.812,0.027 8.795,-1.7z" fill="none"/>
   <path id="svg_10" d="m184.2505,110.589c0.767,3.298 4.351,7.111 15.749,8.966l0,-3.994c-4.734,-1.121 -9.616,-2.869 -10.938,-5.311c-0.692,-1.279 -0.299,-4.253 5.278,-4.137c1.483,0.029 3.41,0.295 5.659,1.033l0,-4.414c-1.566,-0.529 -3.119,-0.916 -4.618,-1.11c-3.925,-0.513 -12.54,0.53 -11.13,8.967z" fill="#0c2340"/>
   <path id="svg_13" d="m10.2465,25.464c-3.664,1.125 -7.075,1.98 -10.247,2.573l0,16.016c18.581,-8 37.605,-13.156 56.633,-15.331c-5.618,-9.558 -22.071,-10.722 -46.386,-3.258z" fill="#fc4c02"/>
   <path id="svg_14" d="m22.8365,17.131c11.931,-4.89 21.94,-6.388 29.75,-4.448c7.036,1.75 13.507,7.356 17.327,15.005c12.932,-0.522 25.895,0.402 38.536,2.735c-6.479,-10.027 -14.298,-18.619 -22.631,-24.849c-2.851,-2.134 -5.767,-3.991 -8.73,-5.574l-51.758,0c-5.069,2.308 -10.139,4.832 -12.83,6.229c-4.78,2.477 -8.958,2.923 -12.501,2.321l0,11.183c5.878,2.077 13.542,1.208 22.837,-2.602z" fill="#fc4c02"/>
   <path id="svg_15" d="m98.0885,106.641c9.562,-6.492 18.959,-8.883 19.052,-8.906l0.053,-0.012l0.039,0.033c19.392,15.627 40.738,3.32 40.949,3.193l0.045,-0.024l0.049,0.019c5.971,2.279 11.012,4.838 14.979,7.6c3.179,2.214 5.683,4.564 7.44,6.984c2.731,3.758 2.812,6.461 2.796,7.021l14.461,0.954l2.047,-1.751l0,-2.197c-11.399,-1.854 -14.983,-5.666 -15.749,-8.965c-1.41,-8.438 7.205,-9.479 11.131,-8.967c1.5,0.195 3.053,0.582 4.618,1.111l0,-23.97c-12.103,-8.039 -27.952,-18.005 -28.198,-18.159l-0.14,-0.09l0.138,-0.093l2.783,-1.854l-25.521,-10.81l-0.028,-0.013l-0.021,-0.026c-10.361,-15.493 -30.775,-16.112 -34.699,-16.082c7.777,2.402 10.155,4.77 10.754,6.344c0.399,1.054 0,1.712 -0.015,1.741l-0.043,0.069l-0.079,-0.022c-50.071,-13.65 -94.962,-1.683 -124.93,11.616l0,36.141c0.325,0.074 0.649,0.146 0.98,0.22c6.232,-4.867 35.952,-26 80.8,-24.755l-7.277,-10.994c0,0 27.782,7.221 43.64,16.032c-1.224,11.742 6.047,23.053 17.777,26.52c8.404,2.483 17.078,0.341 23.289,-4.946l19.925,12.715l-19.116,-7.418c-8.131,5.881 -18.863,7.932 -29.137,4.593c-12.71,-4.132 -21.142,-15.347 -22.336,-27.855c-43.038,-10.811 -74.769,16.403 -81.109,22.397c5.126,1.623 9.855,3.466 14.145,5.52c5.229,2.502 9.936,5.377 14.064,8.59c3.186,-3.891 15.893,-17.248 40.265,-17.449c0,0 -23.929,5.992 -31.556,25.486c5.63,6.52 8.989,13.818 11.505,19.818l1.957,0c1.032,-6 3.262,-11.307 6.672,-16.296c3.405,-4.988 7.983,-9.25 13.601,-13.063zm30.677,-65.366c12.633,0.258 0.099,-5.104 0.099,-5.104s9.09,1.398 14.379,9.833c-4.991,-1.924 -10.45,-3.736 -14.478,-4.729zm37.822,25.9l-3.166,2.162c0,0 -4.998,-6.484 -16.706,-14.255c0,0 5.058,0.721 14.726,5.467c0.574,0.28 1.166,0.575 1.771,0.886c0.754,0.388 1.531,0.796 2.335,1.23c0.451,0.243 0.909,0.494 1.375,0.751c7.692,4.266 17.493,10.677 29.272,20.284l-29.607,-16.525z" fill="#FFFFFF"/>
   <path id="svg_16" d="m166.9215,63.417c-0.249,1.687 -1.763,2.919 -3.49,2.787c-1.805,-0.139 -3.156,-1.713 -3.02,-3.519c0.068,-0.849 0.453,-1.597 1.029,-2.135c-9.668,-4.746 -14.727,-5.467 -14.727,-5.467c11.708,7.771 16.706,14.255 16.706,14.255l3.166,-2.162l29.606,16.526c-11.776,-9.608 -21.577,-16.019 -29.27,-20.285z" fill="#0c2340"/>
   <path id="svg_17" d="m163.4335,66.203c1.727,0.132 3.24,-1.1 3.489,-2.787c-0.465,-0.258 -0.923,-0.508 -1.375,-0.751l-3.233,2.375l0.898,-3.604c-0.605,-0.311 -1.197,-0.606 -1.771,-0.886c-0.575,0.539 -0.961,1.286 -1.028,2.135c-0.139,1.805 1.214,3.379 3.02,3.518z" fill="#fc4c02"/>
   <path id="svg_18" d="m165.5475,62.665c-0.804,-0.434 -1.581,-0.842 -2.335,-1.23l-0.898,3.604l3.233,-2.374z" fill="#002A5C"/>
   <path id="svg_19" d="m128.8625,36.171c0,0 12.535,5.362 -0.098,5.104c4.028,0.993 9.487,2.805 14.479,4.729c-5.289,-8.435 -14.381,-9.833 -14.381,-9.833z" fill="#002A5C"/>
  </g>
 </g>
</svg>