<svg width="200" height="136" xmlns="http://www.w3.org/2000/svg" xmlns:svg="http://www.w3.org/2000/svg">
 <g>
  <title>Layer 1</title>
  <path id="svg_1" d="m200,128c0,4.418 -3.582,8 -8,8l-184,0c-4.418,0 -8,-3.582 -8,-8l0,-120c0,-4.418 3.582,-8 8,-8l184,0c4.418,0 8,3.582 8,8l0,120z" fill="#f0f0f0"/>
  <g id="svg_2">
   <path id="svg_3" d="m11.768,58.658c-0.766,0 -1.659,-0.01 -2.796,-0.049l-2.472,-0.088l1.437,-2.012c20.978,-29.287 58.577,-37.434 82.866,-37.451c1.583,0 3.11,0.034 4.576,0.102l-5.709,-7.1l2.628,-0.113c2.131,-0.088 4.19,-0.133 6.176,-0.133c28.027,-0.029 42.075,8.53 47.635,10.758l0.051,0.02l0.044,0.022c25.007,12.335 37.472,28.213 42.836,36.025c4.673,6.009 8.262,12.614 10.959,19.509l0,-70.148c0,-4.418 -3.582,-8 -8,-8l-183.999,0c-4.418,0 -8,3.582 -8,8l0,75.188c4.741,-11.014 10.768,-19.778 14.687,-24.558c-0.968,0.005 -1.811,0.028 -2.919,0.028z" fill="none"/>
   <path id="svg_4" d="m165.688,72.742c0.94,2.525 1.801,5.281 2.719,8.507l0.938,3.285l-2.91,-1.788c-26.933,-16.508 -57.681,-27.098 -91.377,-27.098c-2.799,0 -5.618,0.073 -8.455,0.221c1.493,1.729 3.512,4.201 4.495,6.024l0.686,1.289l-1.345,0.562c-20.001,8.397 -46.588,18.277 -70.439,58.302l0,6.354c0,4.418 3.582,7.6 8,7.6l184,0c4.418,0 8,-3.182 8,-7.602l0,-9.199c-7.934,-15.933 -20.382,-33.974 -34.312,-46.457z" fill="none"/>
   <path id="svg_5" d="m70.435,63.745l1.345,-0.562l-0.686,-1.289c-0.983,-1.824 -3.001,-4.295 -4.495,-6.024c2.836,-0.148 5.655,-0.221 8.455,-0.221c33.697,0 64.445,10.59 91.377,27.098l2.91,1.788l-0.938,-3.285c-0.918,-3.225 -1.778,-5.982 -2.719,-8.507c13.934,12.482 26.382,30.523 34.316,46.457l0,-2.933c-8.869,-17.102 -22.568,-36.082 -37.723,-48.146c1.888,3.884 3.277,7.964 4.851,13.494c-30.062,-18.428 -64.924,-29.562 -103.337,-26.903c0,0 4.661,5.037 6.132,7.808c-19.655,8.226 -46.201,18.194 -69.923,56.947l0,2.579c23.851,-40.025 50.438,-49.905 70.435,-58.301z" fill="#FFFFFF"/>
   <path id="svg_6" d="m9.019,57.279c22.838,-31.956 66.249,-38.447 89.285,-36.604l-5.948,-7.398c31.966,-1.345 47.099,8.057 53.263,10.529c24.775,12.227 37.053,27.908 42.34,35.604c5.355,6.868 9.273,14.558 12.042,22.587l0,-3.851c-2.696,-6.896 -6.286,-13.5 -10.959,-19.509c-5.364,-7.812 -17.829,-23.689 -42.836,-36.025l-0.044,-0.022l-0.051,-0.02c-5.561,-2.228 -19.608,-10.787 -47.635,-10.758c-1.986,0 -4.045,0.044 -6.176,0.133l-2.63,0.115l5.708,7.099c-1.466,-0.067 -2.993,-0.102 -4.576,-0.102c-24.29,0.018 -61.888,8.164 -82.866,37.451l-1.436,2.013l2.472,0.088c1.138,0.04 2.031,0.049 2.796,0.049c1.108,0 1.951,-0.023 2.919,-0.028c-3.919,4.78 -9.946,13.544 -14.687,24.558l0,3.498c5.624,-14.286 13.783,-25.289 17.548,-29.326c-3.692,-0.15 -4.497,0.064 -8.529,-0.081z" fill="#FFFFFF"/>
   <path id="svg_7" d="m24.915,54.065c-0.891,-0.023 -8.615,-0.272 -8.615,-0.272l2.129,-2.127c30.035,-29.922 74.79,-28.471 86.434,-27.519c-1.527,-2.186 -4.944,-7.078 -4.944,-7.078l2.437,-0.049c35.453,-0.711 88.537,27.43 97.646,80.306l0,-15.327c-2.769,-8.029 -6.687,-15.719 -12.042,-22.587c-5.287,-7.696 -17.562,-23.377 -42.34,-35.604c-6.164,-2.472 -21.297,-11.875 -53.263,-10.529l5.948,7.398c-23.037,-1.844 -66.447,4.647 -89.285,36.604c4.033,0.145 4.837,-0.069 8.53,0.081c-3.767,4.035 -11.926,15.038 -17.55,29.324l0,12.863c5.404,-21.783 15.648,-34.22 23.424,-43.646c0,0 0.751,-0.922 1.491,-1.838z" fill="#002A5C"/>
   <path id="svg_8" d="m69.922,62.519c-1.471,-2.771 -6.132,-7.808 -6.132,-7.808c38.413,-2.659 73.274,8.475 103.337,26.903c-1.572,-5.53 -2.963,-9.61 -4.85,-13.494c15.152,12.063 28.853,31.046 37.722,48.147l0,-8.252l-1.396,-2.149c-13.826,-21.373 -27.266,-38.053 -46.394,-49.402c2.342,3.742 4.588,7.753 7.056,13.707l1.321,3.185l-3.099,-1.521c-25.486,-12.48 -57.493,-24.479 -101.738,-20.002c2.35,2.012 4.92,4.365 7.561,8.031l1.002,1.392l-1.612,0.588c-25.272,9.225 -46.303,25.997 -62.53,49.842l-0.17,0.248l0,7.533c23.722,-38.753 50.268,-48.721 69.922,-56.948z" fill="#002A5C"/>
   <path id="svg_9" d="m62.7,61.844l1.613,-0.589l-1.002,-1.392c-2.641,-3.666 -5.211,-6.019 -7.561,-8.031c44.245,-4.477 76.252,7.522 101.74,20.001l3.098,1.521l-1.322,-3.184c-2.467,-5.954 -4.711,-9.965 -7.055,-13.707c19.128,11.35 32.568,28.03 46.393,49.402l1.396,2.15l0,-10.69c-9.109,-52.876 -62.191,-81.018 -97.646,-80.306l-2.436,0.049c0,0 3.417,4.892 4.943,7.078c-11.644,-0.953 -56.397,-2.404 -86.433,27.519l-2.129,2.127c0,0 7.725,0.25 8.615,0.272c-0.74,0.917 -1.49,1.838 -1.49,1.838c-7.776,9.427 -18.02,21.864 -23.424,43.647l0,12.385l0.169,-0.248c16.227,-23.845 37.259,-40.618 62.531,-49.842zm-37.261,-4.284l4.829,-5.943l-2.668,-0.065c0,0 -4.861,-0.159 -5.029,-0.164c33.729,-31.066 84.265,-24.452 84.779,-24.379l3.002,0.459l-1.736,-2.488c0,0 -2.192,-3.149 -3.695,-5.297c17.967,0.348 39.271,8.179 56.291,20.871c14.543,10.838 32.229,29.766 36.547,59.336c-14.107,-21.178 -28.25,-37.615 -48.977,-48.432l-4.453,-2.324l2.787,4.219c2.926,4.44 5.521,8.503 8.318,14.631c-24.627,-11.739 -58.163,-23.73 -103.039,-18.466l-2.975,0.35l3.559,3.015c2.207,1.864 4.674,4.006 7.181,7.187c-23.404,8.92 -43.156,24.285 -58.85,45.658c4.8,-24.721 15.88,-38.177 24.129,-48.168z" fill="#0080C6"/>
   <path id="svg_10" d="m60.159,60.07c-2.507,-3.18 -4.974,-5.323 -7.181,-7.187l-3.559,-3.015l2.975,-0.35c44.876,-5.264 78.413,6.727 103.038,18.469c-2.795,-6.128 -5.393,-10.191 -8.318,-14.631l-2.787,-4.219l4.453,2.324c20.727,10.817 34.869,27.253 48.977,48.432c-4.318,-29.57 -22.004,-48.5 -36.547,-59.336c-17.02,-12.692 -38.325,-20.523 -56.291,-20.871c1.503,2.147 3.695,5.297 3.695,5.297l1.736,2.488l-3.002,-0.459c-0.514,-0.073 -51.05,-6.687 -84.779,24.379c0.168,0.004 5.029,0.164 5.029,0.164l2.668,0.064l-4.829,5.943c-8.247,9.989 -19.327,23.445 -24.127,48.167c15.693,-21.375 35.445,-36.739 58.849,-45.659z" fill="#FFC20E"/>
  </g>
 </g>
</svg>