<svg width="200" height="136" xmlns="http://www.w3.org/2000/svg" xmlns:svg="http://www.w3.org/2000/svg">
 <g>
  <title>Layer 1</title>
  <path id="svg_1" d="m200,128c0,4.418 -3.582,8 -8,8l-184,0c-4.418,0 -8,-3.582 -8,-8l0,-120c0,-4.418 3.582,-8 8,-8l184,0c4.418,0 8,3.582 8,8l0,120z" fill="#f0f0f0"/>
  <g id="svg_2">
   <path id="svg_3" d="m76.507,22.804c-1.083,2.094 -3.249,5.992 -5.127,8.519c-1.731,2.525 -2.452,3.825 -3.968,6.64c-1.516,2.959 -6.57,14.003 -8.302,21.221c-3.292,13.468 -1.442,21.22 4.909,31.757c4.692,7.002 10.177,12.058 14.436,14.363c6.985,4.395 16.556,5.625 21.546,5.631c4.991,-0.006 14.56,-1.236 21.546,-5.631c4.258,-2.306 9.742,-7.361 14.436,-14.363c6.352,-10.537 8.203,-18.289 4.908,-31.757c-1.731,-7.218 -6.785,-18.262 -8.301,-21.221c-1.514,-2.815 -2.236,-4.114 -3.969,-6.64c-1.876,-2.527 -4.044,-6.425 -5.126,-8.519c-3.177,-6.134 -3.97,-14.146 -1.661,-19.272c0.686,-1.387 1.482,-2.551 2.387,-3.532l-48.441,0c0.904,0.981 1.701,2.145 2.386,3.532c2.309,5.125 1.516,13.137 -1.659,19.272z" fill="none"/>
   <path id="svg_4" d="m192,0l-37.042,0c0.71,2.528 1.592,9.549 1.521,10.39c0.362,3.898 -2.525,6.135 -4.547,6.568c-0.358,0.108 -1.01,0.216 -1.334,0.216c-0.435,0.036 -0.723,0 -1.287,-0.137c-0.229,-0.008 -0.771,-0.296 -0.352,0.317c1.529,1.949 5.283,7.471 7.341,10.466c2.417,3.825 6.495,12.162 7.759,15.626c1.623,4.873 3.897,9.852 5.125,19.85c1.082,6.927 0.504,14.649 0.021,17.864c-0.831,6.171 -2.836,17.502 -13.217,31.578c-7.217,9.814 -15.605,16.689 -25.78,22.031c-0.856,0.451 -1.868,1.229 -3.021,1.229l64.813,0c4.418,0 8,-3.182 8,-7.602l0,-120.396c0,-4.418 -3.582,-8 -8,-8z" fill="none"/>
   <path id="svg_5" d="m44.011,112.739c-10.379,-14.075 -12.386,-25.406 -13.217,-31.578c-0.483,-3.213 -1.06,-10.937 0.023,-17.864c1.227,-9.998 3.5,-14.978 5.125,-19.85c1.263,-3.464 5.341,-11.802 7.759,-15.626c2.056,-2.996 5.811,-8.517 7.34,-10.466c0.419,-0.613 -0.124,-0.325 -0.354,-0.317c-0.563,0.137 -0.853,0.172 -1.286,0.137c-0.324,0 -0.973,-0.108 -1.333,-0.216c-2.022,-0.433 -4.91,-2.67 -4.548,-6.568c-0.07,-0.842 0.812,-7.863 1.522,-10.391l-37.042,0c-4.418,0 -8,3.582 -8,8l0,120.398c0,4.42 3.582,7.602 8,7.602l64.812,0c-1.151,0 -2.163,-0.777 -3.019,-1.229c-10.177,-5.341 -18.565,-12.216 -25.782,-22.032z" fill="none"/>
   <path id="svg_6" d="m42.654,104.453c-3.609,-6.582 -11.983,-20.585 -7.853,-44.981c4.764,-22.304 14.348,-33.563 19.833,-41.287c2.599,-3.753 -0.071,-5.918 -2.165,-5.124c-1.753,0.665 -2.958,0.707 -2.958,0.707c-3.105,-0.418 -2.672,-2.439 -2.094,-7.708l0.722,-4.331c0.118,-0.7 0.274,-1.267 0.475,-1.729l-3.572,0c-0.71,2.528 -1.592,9.549 -1.521,10.39c-0.362,3.898 2.525,6.135 4.548,6.568c0.36,0.108 1.009,0.216 1.333,0.216c0.433,0.036 0.723,0 1.286,-0.137c0.229,-0.008 0.772,-0.296 0.354,0.317c-1.53,1.949 -5.285,7.471 -7.34,10.466c-2.418,3.825 -6.497,12.162 -7.759,15.626c-1.625,4.873 -3.898,9.852 -5.125,19.85c-1.083,6.927 -0.506,14.649 -0.023,17.864c0.831,6.171 2.838,17.502 13.217,31.578c7.216,9.814 15.604,16.689 25.783,22.031c0.856,0.451 1.868,1.229 3.019,1.229l11.307,0c-5.271,-1 -10.979,-2.961 -15.77,-5.992c-9.242,-5.486 -17.614,-12.213 -25.697,-25.553z" fill="#FFFFFF"/>
   <path id="svg_7" d="m74.125,19.628c-3.321,7.651 -6.786,10.25 -10.539,18.189c-4.042,8.806 -13.858,28.583 -7.218,45.473c9.095,22.664 26.706,30.749 43.452,31.039c0.051,-0.001 0.103,0.028 0.154,0.028l-0.009,-3.357c0.012,0 0.024,0 0.036,0c-4.991,0 -14.561,-1.27 -21.546,-5.663c-4.259,-2.308 -9.743,-7.378 -14.436,-14.38c-6.352,-10.537 -8.202,-18.298 -4.909,-31.766c1.732,-7.218 6.786,-18.266 8.302,-21.225c1.516,-2.815 2.237,-4.116 3.968,-6.642c1.878,-2.527 4.044,-6.426 5.127,-8.52c3.175,-6.134 3.968,-14.146 1.659,-19.272c-0.685,-1.386 -1.482,-2.551 -2.386,-3.532l-5.484,0c4.394,2.251 8.23,7.849 3.829,19.628z" fill="#FFFFFF"/>
   <path id="svg_8" d="m123.494,22.804c1.082,2.094 3.25,5.992 5.126,8.519c1.731,2.525 2.455,3.825 3.969,6.64c1.515,2.959 6.568,14.003 8.302,21.221c3.293,13.468 1.442,21.22 -4.91,31.757c-4.692,7.002 -10.176,12.091 -14.435,14.396c-6.985,4.393 -16.555,5.663 -21.546,5.663c-0.012,0 -0.024,0 -0.036,0l0.009,3.357c16.71,-0.274 35.958,-10.181 43.673,-31.051c6.642,-16.89 -3.178,-36.676 -7.219,-45.48c-3.754,-7.939 -7.219,-10.542 -10.537,-18.192c-4.402,-11.781 -0.566,-17.383 3.828,-19.634l-5.497,0c-0.904,0.981 -1.701,2.145 -2.387,3.532c-2.309,5.125 -1.518,13.137 1.66,19.272z" fill="#FFFFFF"/>
   <path id="svg_9" d="m155.988,112.739c10.382,-14.076 12.387,-25.407 13.218,-31.578c0.481,-3.213 1.06,-10.937 -0.021,-17.864c-1.229,-9.998 -3.502,-14.978 -5.127,-19.85c-1.263,-3.464 -5.341,-11.802 -7.758,-15.626c-2.058,-2.996 -5.812,-8.517 -7.341,-10.466c-0.42,-0.613 0.123,-0.325 0.353,-0.317c0.563,0.137 0.852,0.172 1.287,0.137c0.323,0 0.975,-0.108 1.334,-0.216c2.021,-0.433 4.908,-2.67 4.547,-6.568c0.069,-0.84 -0.812,-7.861 -1.521,-10.39l-3.557,0c0.201,0.462 0.355,1.029 0.475,1.728l0.721,4.331c0.576,5.269 1.012,7.29 -2.092,7.708c0,0 -1.206,-0.042 -2.96,-0.707c-2.094,-0.794 -4.764,1.371 -2.166,5.124c5.486,7.724 15.071,18.983 19.835,41.287c4.128,24.396 -4.244,38.399 -7.854,44.981c-8.084,13.341 -16.457,20.066 -25.695,25.555c-4.378,3.049 -10.078,4.992 -15.471,5.992l10.994,0c1.152,0 2.164,-0.777 3.021,-1.229c10.174,-5.341 18.561,-12.216 25.778,-22.032z" fill="#FFFFFF"/>
   <path id="svg_10" d="m157.361,104.453c3.607,-6.582 11.98,-20.585 7.853,-44.981c-4.764,-22.304 -14.351,-33.563 -19.835,-41.287c-2.6,-3.753 0.072,-5.918 2.166,-5.124c1.755,0.665 2.96,0.707 2.96,0.707c3.103,-0.418 2.668,-2.439 2.093,-7.708l-0.722,-4.331c-0.119,-0.698 -0.272,-1.266 -0.476,-1.728l-21.684,0c-4.394,2.251 -8.229,7.849 -3.826,19.628c3.318,7.651 6.783,10.25 10.537,18.189c4.041,8.806 13.859,28.583 7.219,45.473c-7.715,20.871 -26.963,30.759 -43.673,31.034c-0.051,0 -0.103,0.003 -0.154,0.005c-16.746,-0.29 -34.357,-8.375 -43.452,-31.039c-6.64,-16.889 3.175,-36.667 7.218,-45.473c3.753,-7.939 7.218,-10.538 10.539,-18.189c4.402,-11.78 0.566,-17.378 -3.828,-19.629l-21.682,0c-0.201,0.462 -0.356,1.029 -0.475,1.728l-0.722,4.331c-0.578,5.269 -1.011,7.29 2.094,7.708c0,0 1.205,-0.042 2.958,-0.707c2.094,-0.794 4.764,1.371 2.165,5.124c-5.485,7.724 -15.069,18.983 -19.833,41.287c-4.13,24.396 4.244,38.399 7.853,44.981c8.083,13.341 16.455,20.067 25.695,25.555c4.79,3.031 10.499,4.992 15.77,5.992l32.074,0c5.394,-1 11.093,-2.944 15.472,-5.992c9.237,-5.487 17.612,-12.214 25.696,-25.554zm-21.873,-83.64c-0.938,0 -1.698,-0.762 -1.698,-1.7s0.76,-1.7 1.698,-1.7c0.939,0 1.699,0.762 1.699,1.7s-0.757,1.7 -1.699,1.7zm19.922,42.796c0.939,0 1.701,0.76 1.701,1.698c0,0.94 -0.762,1.7 -1.701,1.7c-0.938,0 -1.698,-0.76 -1.698,-1.7c-0.001,-0.938 0.761,-1.698 1.698,-1.698zm-10.105,39.266c0.939,0 1.701,0.759 1.701,1.699c0,0.939 -0.762,1.701 -1.701,1.701c-0.937,0 -1.697,-0.762 -1.697,-1.701s0.76,-1.699 1.697,-1.699zm-80.779,-85.462c0.938,0 1.699,0.762 1.699,1.7s-0.761,1.7 -1.699,1.7c-0.939,0 -1.7,-0.762 -1.7,-1.7s0.761,-1.7 1.7,-1.7zm-19.922,49.594c-0.937,0 -1.699,-0.76 -1.699,-1.7c0,-0.938 0.762,-1.698 1.699,-1.698c0.939,0 1.7,0.76 1.7,1.698c-0.001,0.94 -0.762,1.7 -1.7,1.7zm10.104,39.266c-0.937,0 -1.698,-0.762 -1.698,-1.7c0,-0.939 0.762,-1.699 1.698,-1.699c0.939,0 1.701,0.759 1.701,1.699s-0.762,1.7 -1.701,1.7zm45.215,21.51c-0.939,0 -1.7,-0.762 -1.7,-1.701s0.761,-1.699 1.7,-1.699c0.937,0 1.699,0.76 1.699,1.699s-0.763,1.701 -1.699,1.701z" fill="#003A70"/>
   <circle id="svg_11" r="1.7" cy="19.113" cx="135.488" fill="#FFFFFF"/>
   <circle id="svg_12" r="1.699" cy="65.308" cx="155.41" fill="#FFFFFF"/>
   <path id="svg_13" d="m145.305,106.273c0.939,0 1.701,-0.762 1.701,-1.7c0,-0.939 -0.762,-1.699 -1.701,-1.699c-0.937,0 -1.697,0.759 -1.697,1.699s0.76,1.7 1.697,1.7z" fill="#FFFFFF"/>
   <circle id="svg_14" r="1.7" cy="19.113" cx="64.526" fill="#FFFFFF"/>
   <circle id="svg_15" r="1.699" cy="65.308" cx="44.604" fill="#FFFFFF"/>
   <circle id="svg_16" r="1.7" cy="104.574" cx="54.708" fill="#FFFFFF"/>
   <circle id="svg_17" r="1.7" cy="126.083" cx="99.923" fill="#FFFFFF"/>
  </g>
 </g>
</svg>