<svg width="200" height="136" xmlns="http://www.w3.org/2000/svg" xmlns:svg="http://www.w3.org/2000/svg">
 <g>
  <title>Layer 1</title>
  <path id="svg_1" d="m200,128c0,4.418 -3.582,8 -8,8l-184,0c-4.418,0 -8,-3.582 -8,-8l0,-120c0,-4.418 3.582,-8 8,-8l184,0c4.418,0 8,3.582 8,8l0,120z" fill="#B0B7BC"/>
  <g id="svg_18">
   <path id="svg_3" d="m143.375,89.895l15.301,46.105l33.324,0c4.418,0 8,-3.182 8,-7.602l0,-78.85l-56.625,40.347z" fill="none"/>
   <polygon id="svg_4" points="80.41700744628906,136 119.61900329589844,136 99.99800109863281,122.01100158691406 " fill="none"/>
   <path id="svg_5" d="m200,39l0,-31c0,-4.418 -3.582,-8 -8,-8l-77.4,0l13.077,39l72.323,0z" fill="none"/>
   <path id="svg_6" d="m85.396,0l-77.396,0c-4.418,0 -8,3.582 -8,8l0,31l72.318,0l13.078,-39z" fill="none"/>
   <path id="svg_7" d="m0,49.549l0,78.851c0,4.418 3.582,7.6 8,7.6l33.341,0l15.279,-46.109l-56.62,-40.342z" fill="none"/>
   <polygon id="svg_8" points="199.99998474121094,49.54899978637695 199.99998474121094,45.75299835205078 139.7319793701172,88.7030029296875 155.4099884033203,136 158.67601013183594,136 143.37498474121094,89.8949966430664 " fill="#FFFFFF"/>
   <polygon id="svg_9" points="199.99998474121094,42 199.99998474121094,39 127.67698669433594,39 114.59999084472656,0 111.32398986816406,0 125.45799255371094,42 " fill="#FFFFFF"/>
   <polygon id="svg_10" points="75.11500549316406,136 80.41700744628906,136 99.99800109863281,122.01100158691406 119.61900329589844,136 124.90199279785156,136 100.01399230957031,118.21399688720703 " fill="#FFFFFF"/>
   <polygon id="svg_11" points="88.67298889160156,0 85.39601135253906,0 72.31800842285156,39 0,39 0,42 74.54200744628906,42 " fill="#FFFFFF"/>
   <polygon id="svg_12" points="0,45.755001068115234 0,49.54899978637695 56.62001037597656,89.89099884033203 41.34098815917969,136 44.59098815917969,136 60.26200866699219,88.7030029296875 " fill="#FFFFFF"/>
   <polygon id="svg_13" points="199.99998474121094,45.75299835205078 199.99998474121094,42 125.45799255371094,42 111.32398986816406,0 104.27500915527344,0 120.46900939941406,49 184.86500549316406,49 132.0330047607422,86.48200225830078 148.4819793701172,136 155.4099884033203,136 139.7319793701172,88.7030029296875 " fill="#041e42"/>
   <polygon id="svg_14" points="64.04701232910156,136 75.11500549316406,136 100.01399230957031,118.21399688720703 124.90199279785156,136 136.04701232910156,136 100.15699768066406,110.20700073242188 " fill="#041e42"/>
   <polygon id="svg_15" points="15.134994506835938,49 79.52699279785156,49 95.72099304199219,0 88.67298889160156,0 74.54200744628906,42 0,42 0,45.755001068115234 60.26200866699219,88.7030029296875 44.59098815917969,136 51.51100158691406,136 67.96199035644531,86.48200225830078 " fill="#041e42"/>
   <path id="svg_16" d="m184.865,49l-64.396,0l-16.194,-49l-8.555,0l-16.193,49l-64.392,0l52.827,37.482l-16.451,49.518l12.536,0l36.11,-25.793l35.89,25.793l12.436,0l-16.449,-49.518l52.831,-37.482zm-43.592,83.423l-41.062,-29.635l-41.491,29.635l16.053,-48.598l-41.731,-29.825l50.867,0l16.089,-48.648l16.09,48.648l50.865,0l-41.732,29.831l16.052,48.592z" fill="#FFFFFF"/>
   <polygon id="svg_17" points="166.95301818847656,54 116.08799743652344,54 99.99800109863281,5.3520002365112305 83.90898132324219,54 33.04200744628906,54 74.77400207519531,83.82499694824219 58.72099304199219,132.4499969482422 100.21199035644531,102.802001953125 141.2729949951172,132.42999267578125 125.22099304199219,83.83399963378906 " fill="#041e42"/>
  </g>
 </g>
</svg>