<svg width="200" height="136" xmlns="http://www.w3.org/2000/svg" xmlns:svg="http://www.w3.org/2000/svg">
 <g>
  <title>Layer 1</title>
  <path id="svg_1" d="m200,128c0,4.418 -3.582,8 -8,8l-184,0c-4.418,0 -8,-3.582 -8,-8l0,-120c0,-4.418 3.582,-8 8,-8l184,0c4.418,0 8,3.582 8,8l0,120z" fill="#000000"/>
  <g id="svg_2">
   <path id="svg_3" d="m200,45.909496l0,-37.91c0,-4.418 -3.582,-8 -8,-8l-124.824,0c47.559,11.02 100.068,24.067 125.645,40.213c2.851,1.799 5.227,3.715 7.179,5.697z" fill="none"/>
   <path id="svg_4" d="m8,-0.000504c-4.418,0 -8,3.582 -8,8l0,23.662l29.457,-31.662l-21.457,0z" fill="none"/>
   <path id="svg_5" d="m27.395,57.696496l-27.395,0.787l0,69.916c0,4.418 3.582,7.6 8,7.6l5.719,0c-3.51,-29 1.924,-59.314 13.676,-78.303z" fill="none"/>
   <path id="svg_6" d="m190.409,81.366496c2.493,-4.83 0.104,-9.367 -10.481,-9.367c-4.341,0 -11.359,0 -36.917,0c7.14,5 24.746,16.857 30.28,26.98c-7.27,10.664 -23.471,20.644 -49.855,20.981c4.39,-5.245 1.131,-8.962 -8.767,-8.962c-8.015,0 -2.403,0 -7.312,0c0,0 -6.037,12 -13.226,25l97.869,0c4.418,0 8,-3.182 8,-7.602l0,-51.436c-2.669,2.201 -5.939,3.687 -9.591,4.406z" fill="none"/>
   <path id="svg_7" d="m41.859,50.999496l-41.859,0l0,7.484l27.395,-0.787c-11.752,18.989 -17.186,49.303 -13.676,78.303l7.658,0c-3.134,-30 3.728,-63 20.482,-85z" fill="#BBC4CA"/>
   <path id="svg_8" d="m114.669,110.999496c9.897,0 13.156,3.77 8.767,9.014c26.385,-0.337 42.586,-10.392 49.855,-21.056c-5.534,-10.123 -23.143,-21.958 -30.279,-26.958c25.559,0 32.576,0 36.916,0c10.586,0 12.975,4.537 10.481,9.367c3.649,-0.719 6.921,-2.205 9.591,-4.406l0,-4.775c-1.417,1.482 -3.24,2.879 -5.494,3.979c1.187,-5.181 -3.111,-8.165 -11.716,-8.165c-3.78,0 -58.552,0 -58.552,0s34.132,16.741 44.453,31.159c-12.391,15.036 -29.467,15.649 -38.809,15.649c1.543,-3.707 -2.088,-8.81 -13.445,-8.81c-2.916,0 -13.685,0 -13.685,0c-5.693,12 -10.801,22 -15.354,30l6.733,0c7.188,-13 13.226,-25 13.226,-25c4.909,0.002 -0.703,0.002 7.312,0.002z" fill="#BBC4CA"/>
   <path id="svg_9" d="m188.605,42.229496c4.968,2.788 8.812,6.22 11.395,9.863l0,-6.183c-1.952,-1.982 -4.328,-3.897 -7.18,-5.697c-25.576,-16.146 -78.088,-29.193 -125.644,-40.213l-37.719,0l-29.457,31.662l0,13.714l40.194,-43.054c0,0 105.717,15.96 148.411,39.908z" fill="#BBC4CA"/>
   <path id="svg_10" d="m23.372,129.038496l58.128,-45.868c0.144,-0.487 0.296,-0.967 0.452,-1.452l-52.709,31.992c0.798,-8.824 2.458,-17.646 5.018,-26.159l-5.452,-3.085l62.038,-20.676c0.276,-0.423 0.557,-0.845 0.839,-1.261l-52.073,10.644c2.812,-6.268 6.164,-12.166 10.103,-17.708l-4.824,-4.466l62.276,0c0.173,-1 0.346,-0.773 0.516,-1.11l-92.721,-7.13l26.365,-28.407l-4.123,-5.257c0,0 113.721,16.662 149.626,36.357c7.978,4.376 11.849,9.546 13.169,14.193l0,-7.552c-2.581,-3.644 -6.426,-7.076 -11.395,-9.863c-42.694,-23.949 -148.411,-39.909 -148.411,-39.909l-40.194,43.054l0,5.624l41.859,0c-16.753,22 -23.616,55 -20.481,85l7.675,0c-0.151,-2 -0.259,-3.801 -0.321,-5.818l-5.36,-1.143z" fill="#FFFFFF"/>
   <path id="svg_11" d="m116.438,105.999496c11.358,0 14.989,5.064 13.446,8.771c9.341,0 26.418,-0.711 38.81,-15.746c-10.324,-14.418 -44.456,-31.025 -44.456,-31.025s54.771,0 58.552,0c8.604,0 12.903,2.984 11.716,8.166c2.253,-1.1 4.076,-2.497 5.494,-3.98l0,-5.154c-0.552,1.722 -1.482,2.963 -2.623,3.925c0.089,-4.464 -4.293,-7.956 -12.201,-7.956c-6.085,0 -77.165,0 -77.199,0l8.299,4.421c0,0 -19.021,38.579 -34.429,68.579l5.552,0c4.554,-8 9.662,-18 15.354,-30c0.001,-0.001 10.768,-0.001 13.685,-0.001zm3.947,-33.384l-1.078,-3.195c0,0 37.737,18.463 45.071,29.66c-3.864,5.146 -9.772,8.737 -17.687,10.543c5.056,-3.882 6.015,-7.625 2.908,-7.625c-1.443,0 -6.154,0 -11.187,0c-1.912,2 -2.931,5.276 -0.367,8.698c-4.325,-0.94 -8.489,-4.299 -8.813,-8.698c-9.895,0 -23.684,0 -23.684,0c3.162,-6.399 12.289,-24.403 14.837,-29.383z" fill="#FFFFFF"/>
   <path id="svg_12" d="m80.169,103.042496l-28.126,32.957l6.702,0l21.688,-31.725c-0.097,-0.443 -0.184,-0.789 -0.264,-1.232z" fill="#FFFFFF"/>
   <path id="svg_13" d="m138.046,110.697496c-2.563,-3.423 -1.545,-6.698 0.367,-8.698c5.032,0 9.743,0 11.187,0c3.106,0 2.147,3.743 -2.908,7.626c7.914,-1.808 13.822,-5.403 17.687,-10.547c-7.334,-11.197 -45.071,-29.656 -45.071,-29.656l1.078,3.192c-2.549,4.981 -11.676,22.985 -14.837,29.385c0,0 13.79,0 23.684,0c0.324,4.4 4.488,7.758 8.813,8.698zm-21.321,-17.912l26.879,3.981c-0.207,0.414 -0.416,0.832 -0.633,1.232l-28.969,0l2.723,-5.213z"/>
   <path fill="black" id="svg_14" d="m107.977,62.999496c0.035,0 71.115,0 77.2,0c7.907,0 12.29,3.492 12.201,7.956c1.14,-0.961 2.071,-2.203 2.623,-3.925l0,-7.385c-1.321,-4.647 -5.192,-9.822 -13.169,-14.198c-35.906,-19.696 -149.627,-36.363 -149.627,-36.363l4.123,5.247l-26.365,28.385l92.721,7.172c-0.17,0.337 -0.343,0.11 -0.516,1.11l-62.276,0l4.824,4.465c-3.939,5.542 -7.291,11.483 -10.103,17.75l52.073,-10.664c-0.282,0.417 -0.563,0.828 -0.839,1.251l-62.038,20.672l5.452,3.082c-2.56,8.514 -4.22,17.334 -5.018,26.157l52.709,-31.991c-0.155,0.483 -0.308,0.963 -0.452,1.45l-58.129,45.867l5.36,1.144c0.062,2.019 0.17,3.818 0.321,5.818l7.379,0c-0.223,-2 -0.408,-3.552 -0.544,-5.449l35.287,-29.895c0.012,0.541 0.032,0.936 0.059,1.479l-30.488,33.865l11.298,0l28.126,-32.957c0.08,0.443 0.167,0.789 0.264,1.232l-21.688,31.725l10.782,0l7.885,-11.688c0.234,0.443 0.475,0.787 0.721,1.23l-5.149,10.458l8.864,0c15.408,-30 34.429,-68.579 34.429,-68.579l-8.3,-4.421zm-20.952,-4.868l-37.099,6.627c1.446,-2.463 3,-4.844 4.672,-7.138l33.413,-0.76c-0.332,0.42 -0.66,0.846 -0.986,1.271zm-11.46,19.854l-37.926,20.711c0.569,-3.08 1.255,-6.131 2.067,-9.141l36.498,-13.113c-0.22,0.513 -0.434,1.03 -0.639,1.543zm111.744,-23.986l-6.382,0c-2.516,-4 -9.806,-10.146 -9.806,-10.146c3.947,1.318 12.828,6.146 16.188,10.146zm-17.497,5.243c3.379,-0.27 15.334,-1.154 22.09,-2.427l-0.991,-4.316c6.922,3.531 7.771,10.371 6.848,13.004c-0.627,-1.927 -3.602,-5.504 -10.659,-5.504c-5.875,0 -14.918,0 -17.795,0c0.172,0 0.341,-0.422 0.507,-0.757zm-130.698,-27.465l7.528,-8.153c41.448,6.405 91.023,16.529 116.191,23.861c-0.214,0.431 -0.44,0.874 -0.664,1.319l-123.055,-17.027z"/>
   <path id="svg_15" d="m197.759,65.536496c0.923,-2.634 0.074,-9.572 -6.848,-13.103l0.991,4.447c-6.756,1.273 -18.711,2.059 -22.09,2.329c-0.166,0.335 -0.336,0.79 -0.51,0.79c2.879,0 11.92,0 17.795,0c7.06,0 10.034,3.61 10.662,5.537z" fill="#FFFFFF"/>
   <path id="svg_16" d="m180.927,53.999496l6.382,0c-3.359,-4 -12.24,-8.828 -16.188,-10.146c0,0 7.29,6.146 9.806,10.146z" fill="#FFFFFF"/>
   <path id="svg_17" d="m143.604,96.798496l-26.879,-4.043l-2.724,5.244l28.97,0c0.217,-0.4 0.424,-0.788 0.633,-1.201z" fill="#C9243F"/>
   <path id="svg_18" d="m77.413,124.311496l-7.886,11.688l3.457,0l5.15,-10.457c-0.246,-0.443 -0.487,-0.787 -0.721,-1.231z" fill="#C9243F"/>
   <path id="svg_19" d="m71.174,100.755496l-35.287,29.795c0.136,1.897 0.321,3.449 0.544,5.449l4.313,0l30.488,-33.812c-0.025,-0.547 -0.045,-0.89 -0.058,-1.432z" fill="#C9243F"/>
   <path id="svg_20" d="m162.833,47.485496c-25.168,-7.332 -74.743,-17.455 -116.191,-23.861l-7.528,8.153l123.056,17.028c0.225,-0.446 0.449,-0.889 0.663,-1.32z" fill="#C9243F"/>
   <path id="svg_21" d="m37.639,98.696496l37.926,-20.711c0.205,-0.514 0.419,-1.03 0.639,-1.543l-36.497,13.116c-0.812,3.007 -1.499,6.059 -2.068,9.138z" fill="#C9243F"/>
   <path id="svg_22" d="m49.927,64.758496l37.099,-6.627c0.326,-0.425 0.654,-0.851 0.986,-1.27l-33.413,0.76c-1.672,2.293 -3.226,4.674 -4.672,7.137z" fill="#C9243F"/>
  </g>
 </g>

</svg>