<svg width="200" height="136" xmlns="http://www.w3.org/2000/svg" xmlns:svg="http://www.w3.org/2000/svg">
 <g class="layer">
  <title>Layer 1</title>
  <path d="m200,128c0,4.418 -3.582,8 -8,8l-184,0c-4.418,0 -8,-3.582 -8,-8l0,-120c0,-4.418 3.582,-8 8,-8l184,0c4.418,0 8,3.582 8,8l0,120z" fill="#660000" id="svg_1"/>
 </g>
 <g class="layer">
  <title>Layer 1</title>
  <polygon fill="#FFB612" fill-rule="nonzero" id="svg_3" points="0.2999894917011261,19.39940643310547 17.24708366394043,33.53042793273926 36.60673522949219,119.0250015258789 83.23272705078125,119.0250015258789 106.00695037841797,49.56732940673828 129.478759765625,119.0250015258789 172.95167541503906,119.0250015258789 199.80001831054688,19.445547103881836 151.6454620361328,19.39940643310547 163.9791259765625,29.683378219604492 150.53256225585938,89.15111541748047 149.24240112304688,89.15111541748047 126.36275482177734,19.445547103881836 85.14448547363281,19.445547103881836 64.0241928100586,89.15111541748047 62.73400115966797,89.15111541748047 46.54237747192383,19.445547103881836 "/>
 </g>
</svg>