<svg width="200" height="136" xmlns="http://www.w3.org/2000/svg" xmlns:svg="http://www.w3.org/2000/svg">
 <g>
  <title>Layer 1</title>
  <path id="svg_1" d="m200,128c0,4.418 -3.582,8 -8,8l-184,0c-4.418,0 -8,-3.582 -8,-8l0,-120c0,-4.418 3.582,-8 8,-8l184,0c4.418,0 8,3.582 8,8l0,120z" fill="#f0f0f0"/>
  <rect id="svg_42" height="63" width="155" y="37" x="23" stroke-linecap="null" stroke-linejoin="null" stroke-dasharray="null" stroke-width="null" fill="#29433a"/>
  <rect id="svg_43" height="32" width="57" y="391" x="546" stroke-linecap="null" stroke-linejoin="null" stroke-dasharray="null" stroke-width="null" fill="#f0f0f0"/>
  <rect id="svg_44" height="54" width="60" y="65" x="69" stroke-linecap="null" stroke-linejoin="null" stroke-dasharray="null" stroke-width="null" fill="#29433a"/>
  <rect id="svg_45" height="45" width="140" y="453" x="680" stroke-linecap="null" stroke-linejoin="null" stroke-dasharray="null" stroke-width="null" fill="#f0f0f0"/>
  <g id="svg_2">
   <path id="svg_3" d="m193.007,98.669c-9.508,9.505 -22.891,17.582 -38.702,23.353c-16.699,6.098 -35.476,9.315 -54.305,9.315c-18.361,0 -37.002,-3.317 -53.908,-9.606c-16.096,-5.979 -29.698,-14.237 -39.334,-23.873c-2.592,-2.592 -4.847,-5.247 -6.758,-7.937l0,38.479c0,4.418 3.582,7.6 8,7.6l184,0c4.418,0 8,-3.182 8,-7.602l0,-37.996c-1.968,2.812 -4.302,5.577 -6.993,8.267z" fill="none"/>
   <path id="svg_4" d="m25.88,24.137c20.852,-12.123 47.868,-19.075 74.12,-19.075c18.83,0 37.605,3.221 54.305,9.315c15.812,5.774 29.194,13.85 38.702,23.355c2.691,2.69 5.025,5.454 6.993,8.266l0,-37.998c0,-4.418 -3.582,-8 -8,-8l-184,0c-4.418,0 -8,3.582 -8,8l0,38.46c5.726,-8.065 14.51,-15.715 25.88,-22.323z" fill="none"/>
   <path id="svg_5" d="m46.092,121.73c16.905,6.289 35.547,9.606 53.908,9.606c18.83,0 37.605,-3.218 54.305,-9.315c15.812,-5.771 29.194,-13.848 38.702,-23.353c2.691,-2.69 5.025,-5.455 6.993,-8.267l0,-13.352c-8.264,24.61 -49.6,48.114 -100,48.114c-48.397,0 -91.533,-23.791 -100,-48.384l0,13.142c1.911,2.69 4.166,5.345 6.758,7.937c9.636,9.635 23.238,17.893 39.334,23.872z" fill="#FFFFFF"/>
   <path id="svg_6" d="m100,11.241c50.402,0 91.736,23.502 100,48.112l0,-13.354c-1.968,-2.812 -4.302,-5.576 -6.993,-8.266c-9.508,-9.505 -22.891,-17.582 -38.702,-23.355c-16.7,-6.095 -35.476,-9.316 -54.305,-9.316c-26.252,0 -53.267,6.951 -74.12,19.075c-11.37,6.608 -20.154,14.258 -25.88,22.323l0,13.161c8.466,-24.593 51.603,-48.38 100,-48.38z" fill="#FFFFFF"/>
   <path id="svg_7" d="m100,125.163c50.402,0 91.736,-23.504 100,-48.114l0,-17.696c-8.264,-24.61 -49.6,-48.112 -100,-48.112c-48.397,0 -91.533,23.788 -100,48.38l0,17.158c8.466,24.593 51.603,48.384 100,48.384zm-69.853,-62.176l0.505,-0.987l16.804,0c0,0 -4.316,7.396 -4.31,7.384c-0.265,0.447 -1.003,1.836 -1.187,2.478c0.132,0.035 0.332,0.154 0.629,0.184c1.027,0.107 1.167,0.061 2.169,-1.413l3.653,-6.854l0,-14.524c0,-1.604 0,-3.18 -0.652,-3.831c-0.339,-0.338 -0.968,-0.424 -1.872,-0.424l-7.886,0l0,-7l25.229,0l6.731,9l5.208,0c0,0 -0.856,1.785 -2.142,4.187l2.579,3.072l14.395,0.086l0,-3.545c0,-2.618 -0.484,-4.81 -1.399,-5.726c-0.548,-0.548 -1.76,-1.074 -3.096,-1.074l-6.505,0l0,-5.437l52,0.004l0,5.433l-7.208,0c0,0 -0.028,0 -0.038,0l-0.029,0.275c-0.774,0.054 -1.148,0.316 -1.39,0.77c-0.132,0.249 -0.262,0.998 0.849,2.707l4.067,6.542l17.278,0.01c0.393,-0.101 0.804,-0.18 1.226,-0.262c1.968,-3.276 3.429,-5.703 3.435,-5.713c1.311,-2.056 1.371,-3.087 1.201,-3.375c-0.184,-0.306 -1.024,-0.718 -1.537,-0.684l-0.061,-0.27l-0.062,0l-9.731,0l0,-6l28,0l0,6c0,0 -5.688,0 -5.709,0c-3.148,0 -3.389,0.62 -5.686,4.177l-2.992,5.166c0.85,-0.003 1.729,0.081 2.66,0.111c6.072,0.23 10.092,1.908 11.619,4.778c0.728,1.369 1.199,3.802 -0.66,6.802l-0.496,0.966l-5.303,0c0.909,0 1.566,0.744 1.566,1.424l0,0.021c1,0.004 0.307,0.02 0.311,0.023c0.002,0.005 0.156,0.017 0.162,0.023l0.069,-0.004c1.757,2.421 1.433,5.783 -0.995,9.472c-2.939,4.475 -8.848,5.361 -18.458,5.377c-1.192,-0.002 -3.088,-0.064 -3.088,-0.184c0,2.412 0,4.504 0,4.521c0,3.453 0.294,4.325 2.616,4.325l6.384,0l0,5l-26.062,0c-0.717,7 -10.633,13.521 -22.938,13.521c-12.234,0 -22.984,-7.144 -22.984,-13.854c0,-2.831 1.917,-5.768 5.046,-8.213l-5.323,-6.452l-21.895,0c-0.331,0 -0.844,0.562 -0.844,0.747l0,1.987c0,2.932 -0.028,6.143 0.699,6.863c0.336,0.331 1.189,0.403 2.508,0.403l7.793,0l0,5l-28,0l0,-5c0,0 8.575,0 8.563,0c2.239,0 2.437,-1.561 2.437,-7.266l0,-0.34c-2,0.365 -5.109,0.459 -8.625,0.48c-7.105,0.044 -11.542,-1.908 -13.391,-5.507c-1.925,-3.749 -0.455,-9.021 4.163,-15.38z" fill="#2A433A"/>
   <path id="svg_8" d="m100,81.825c9.716,0 17.939,4.175 21.326,9.175l0.693,0c0.705,0 1.98,-0.025 1.98,-3.741l0,-10.957c0,-0.544 -0.839,-1.796 -1.771,-3.382l-4.154,8.08l-18.613,0l9.352,-17l-8.104,0l-5.619,10.295c-0.001,2.786 -0.002,5.444 -0.003,8.016c1.595,-0.254 3.239,-0.486 4.913,-0.486z" fill="#2A433A"/>
   <path id="svg_9" d="m103.258,44l-5.556,0c-2.332,1 -2.691,2.072 -2.629,3.379c0.009,0.192 0.015,2.926 0.018,6.825l16.356,0.062c-1.329,-2.26 -2.202,-3.988 -2.202,-3.988c-1.736,-2.934 -3.416,-6.278 -5.987,-6.278z" fill="#2A433A"/>
   <polygon id="svg_10" points="53.822998046875,53.61900329589844 53.89500427246094,53.483001708984375 53.822998046875,53.39599609375 " fill="#2A433A"/>
   <path id="svg_11" d="m73.428,54l1.881,0l-2.283,-2.804c-0.244,0.456 -0.502,0.849 -0.774,1.358l1.176,1.446z" fill="#FFFFFF"/>
   <path id="svg_12" d="m138,86.636c0,3.716 0.92,5.364 4.57,5.364l4.43,0l0,3l-24.061,0c0.026,0 0.043,0.25 0.043,0.496c0,0.25 -0.018,0.504 -0.045,0.504l26.063,0l0,-5l-6.384,0c-2.322,0 -2.616,-0.873 -2.616,-4.325c0,-0.018 0,-2.108 0,-4.521c-1,-0.061 -1.6,-0.131 -2,-0.221l0,4.703z" fill="#FFFFFF"/>
   <path id="svg_13" d="m124,87.259c0,3.716 -1.275,3.741 -1.98,3.741l-0.693,0c0.333,1 0.688,0.975 0.923,1.477c2.358,-0.074 3.752,-1.77 3.752,-5.218l0,-11.364l-2.698,-4.453l-1.039,1.539c0.932,1.584 1.737,2.776 1.737,3.321l-0.002,10.957l0,0z" fill="#FFFFFF"/>
   <path id="svg_14" d="m52,83.734c0,8.11 0.979,8.266 5.207,8.266l6.793,0l0,3l-25,0l0,-3l6.575,0c4.137,0 4.425,-3.611 4.425,-8.266l0,-0.612c-0.4,0.104 -1,0.196 -2,0.272l0,0.34c0,5.705 -0.198,7.266 -2.437,7.266c0.012,0 -8.563,0 -8.563,0l0,5l28,0l0,-5l-7.793,0c-1.319,0 -2.171,-0.072 -2.507,-0.402c-0.728,-0.722 -0.7,-3.932 -0.7,-6.863l0,-1.987c-0.8,0.252 -1,0.476 -2,0.671l0,1.315z" fill="#FFFFFF"/>
   <polygon id="svg_15" points="52,56.430999755859375 54,53.61900329589844 54,53.39599609375 53.983001708984375,53.483001708984375 54.64500427246094,51.8489990234375 52,48.875 " fill="#FFFFFF"/>
   <path id="svg_16" d="m150.45,49.105c4.188,-6.568 -1.72,-6.105 -1.72,-6.105l-7.73,0l0,-3l24,0l0,3l-3.688,0c-4.562,0 -4.752,1.327 -8.127,6.393l-2.418,4.107c0.592,-0.022 1.211,-0.02 1.846,-0.022l2.99,-5.306c2.299,-3.558 2.539,-4.172 5.687,-4.172c0.022,0 5.709,0 5.709,0l0,-6l-28,0l0,6l9.731,0l0.062,0l0.06,0.271c0.514,-0.035 1.354,0.24 1.537,0.546c0.17,0.287 0.11,1.39 -1.201,3.446c-0.006,0.011 -1.465,2.476 -3.434,5.752c0.607,-0.117 1.248,-0.211 1.918,-0.291l2.778,-4.619z" fill="#FFFFFF"/>
   <path id="svg_17" d="m50,50.269c0,-3.418 0.341,-7.269 -4.114,-7.269l-6.886,0l0,-3l23.492,0l5.586,7l1.881,0l-6.731,-9l-25.228,0l0,7l7.886,0c0.904,0 1.533,0.09 1.872,0.429c0.652,0.651 0.652,2.271 0.652,3.875l0.047,14.512l1.543,-2.837l0,-10.71z" fill="#FFFFFF"/>
   <path id="svg_18" d="m78.77,81l-2.031,0l5.323,6.523c0.397,-0.31 0.812,-0.65 1.247,-0.944l-4.539,-5.579z" fill="#FFFFFF"/>
   <path id="svg_19" d="m94.942,82.204c0.001,-2.572 -0.071,-5.322 -0.07,-8.108l-1.872,3.36l0,5.082c1,-0.129 1.335,-0.238 1.942,-0.334z" fill="#FFFFFF"/>
   <path id="svg_20" d="m91,50.8c0,-4.656 -0.653,-7.8 -5.495,-7.8l-5.505,0l0,-2.943l49,0.005l0,2.938l-5.208,0c0,0 -5.696,-0.478 -1.877,5.581l3.573,5.734l1.763,0.006l-4.067,-6.503c-1.109,-1.709 -0.979,-2.387 -0.849,-2.636c0.241,-0.454 0.614,-0.854 1.39,-0.907l0.029,-0.274c0.01,0 0.038,0 0.038,0l7.208,0l0,-5.432l-52,-0.004l0,5.435l6.505,0c1.336,0 2.548,0.526 3.096,1.074c0.915,0.916 1.399,3.108 1.399,5.726l0,3.2l1,0l0,-3.2z" fill="#FFFFFF"/>
   <path id="svg_21" d="m103.854,43l-6.151,0c-4.325,0 -4.703,2.816 -4.703,7.47l0,3.53l2.045,0c-0.003,-4 0.015,-6.6 0.005,-6.792c-0.062,-1.307 0.32,-2.208 2.652,-3.208l5.556,0c2.571,0 4.251,3.379 5.987,6.312c0,0 0.874,1.625 2.202,3.884l1.677,0.069l-1.927,-3.256c-2.319,-3.977 -4.058,-8.009 -7.343,-8.009z" fill="#FFFFFF"/>
   <path id="svg_22" d="m161.312,43l3.688,0l0,-3l-24,0l0,3l7.73,0c0,0 5.906,-0.463 1.72,6.105l-2.777,4.637c0.962,-0.114 1.99,-0.185 3.095,-0.227l2.418,-4.126c3.375,-5.066 3.564,-6.389 8.126,-6.389z" fill="#2A433A"/>
   <path id="svg_23" d="m126,87.259c0,3.448 -1.393,5.097 -3.752,5.171c0.404,0.86 0.598,1.569 0.691,2.569l24.061,0l0,-3l-4.43,0c-3.65,0 -4.57,-1.649 -4.57,-5.364l0,-4.701c-2.8,-0.576 -5.199,-1.771 -6.408,-3.569c-0.9,-1.345 -1.654,-3.761 -0.216,-7.294l0.429,-1.07l-7.878,0l-0.625,1.37l2.698,4.524l0,11.364z" fill="#2A433A"/>
   <path id="svg_24" d="m71.431,54.353l1.997,-0.001l-1.175,-1.535c-0.264,0.492 -0.538,1.004 -0.822,1.536z" fill="#2A433A"/>
   <path id="svg_25" d="m39,40l0,3l6.886,0c4.455,0 4.114,3.851 4.114,7.269l0,10.709l2,-4.548l0,-7.556l2.6,2.79l2.546,-4.664l10.933,0l-5.586,-7l-23.493,0z" fill="#2A433A"/>
   <path id="svg_26" d="m123.792,43l5.208,0l0,-2.938l-49,-0.005l0,2.943l5.505,0c4.842,0 5.495,3.145 5.495,7.8l0,3.2l2,0l0,-3.53c0,-4.654 0.378,-7.47 4.702,-7.47l6.151,0c3.285,0 5.024,4.066 7.344,8.044l1.927,3.275l12.365,0.002l-3.574,-5.745c-3.819,-6.058 1.877,-5.576 1.877,-5.576z" fill="#2A433A"/>
   <path id="svg_27" d="m45.575,92l-6.575,0l0,3l25,0l0,-3l-6.793,0c-4.228,0 -5.207,-0.156 -5.207,-8.266l0,-1.316c0,0.287 -1.2,0.52 -2,0.704l0,0.612c0,4.655 -0.288,8.266 -4.425,8.266z" fill="#2A433A"/>
   <path id="svg_28" d="m93,82.538l0,-5.082l-1.689,3.544l-12.541,0l4.393,5.618c2.729,-1.843 6.837,-3.25 9.837,-4.08z" fill="#2A433A"/>
   <path id="svg_29" d="m122.939,95.064c-0.094,-0.869 -0.354,-1.741 -0.758,-2.602c-0.236,-0.502 -0.522,-1 -0.856,-1.49c-3.386,-4.977 -11.609,-9.162 -21.326,-9.162c-1.674,0 -3.318,0.141 -4.912,0.393c-0.606,0.096 -1.207,0.205 -1.796,0.334c-3.811,0.83 -7.253,2.314 -9.983,4.156c-0.435,0.293 -0.85,0.597 -1.247,0.906c-3.129,2.445 -5.046,5.375 -5.046,8.207c0,6.709 10.75,13.993 22.984,13.993c12.306,0 22.222,-6.711 22.938,-13.241c0.026,-0.252 0.045,-0.502 0.045,-0.752c0,-0.245 -0.016,-0.494 -0.043,-0.742zm-22.939,12.647c-10.972,0 -20.662,-5.711 -21.444,-11.711l8.493,0c-0.038,0 -0.064,-0.24 -0.064,-0.491c0,-0.258 0.027,-0.509 0.066,-0.509l-8.493,0c0.793,-6 10.477,-11.693 21.442,-11.693c11.455,0 20.695,5.693 21.447,11.693l-8.5,0c0.039,0 0.066,0.251 0.066,0.509c0,0.251 -0.027,0.491 -0.064,0.491l8.499,0c-0.741,6 -9.986,11.711 -21.448,11.711z" fill="#2A433A"/>
   <path id="svg_30" d="m92.244,91l15.512,0c2.635,0 4.809,2 5.191,4l8.5,0c-0.752,-6 -9.992,-11.693 -21.447,-11.693c-10.965,0 -20.649,5.693 -21.442,11.693l8.493,0c0.385,-2 2.559,-4 5.193,-4z" fill="#FFFFFF"/>
   <path id="svg_31" d="m121.448,96l-8.499,0c-0.377,3 -2.555,5 -5.194,5l-15.511,0c-2.639,0 -4.817,-2 -5.195,-5l-8.493,0c0.783,6 10.473,11.711 21.444,11.711c11.462,0 20.707,-5.711 21.448,-11.711z" fill="#FFFFFF"/>
   <path id="svg_32" d="m92.244,101l15.512,0c2.639,0 4.816,-1.949 5.194,-4.354c0.038,-0.242 0.063,-0.539 0.063,-0.791c0,-0.258 -0.027,-0.438 -0.065,-0.686c-0.384,-2.4 -2.558,-4.17 -5.191,-4.17l-15.513,0c-2.633,0 -4.808,1.746 -5.192,4.146c-0.04,0.246 -0.066,0.449 -0.066,0.707c0,0.252 0.026,0.573 0.064,0.815c0.376,2.408 2.554,4.333 5.194,4.333zm-0.701,-7.857l1.467,-0.004c-0.051,0.154 -0.095,0.282 -0.137,0.442c-0.12,0.466 -0.198,0.419 -0.243,1.419l2.624,0c0.04,0 0.11,-0.886 0.213,-1.305l1.414,0.006c-0.13,0.422 -0.218,1.299 -0.268,1.299l2.387,0l0,-1l2,0l0,1l2.385,0c-0.051,0 -0.14,-0.861 -0.271,-1.284l1.414,-0.034c0.105,0.418 0.176,1.318 0.216,1.318l2.622,0c-0.043,-1 -0.122,-0.953 -0.243,-1.419c-0.04,-0.16 -0.086,-0.304 -0.137,-0.457l1.466,0.01c0.04,0.144 0.077,0.292 0.108,0.442c0.164,0.732 0.25,1.49 0.25,2.27c0,0.908 -0.117,1.791 -0.338,2.633l-1.466,-0.26c0.194,-0.621 0.32,-1.219 0.372,-2.219l-2.625,0c-0.039,1 -0.112,1.207 -0.226,1.65l-1.394,-0.154c0.132,-0.436 0.218,-0.497 0.265,-1.497l-2.398,0l0,2l-2,0l0,-2l-2.4,0c0.046,1 0.132,1.199 0.263,1.635l-1.396,-0.122c-0.111,-0.444 -0.184,-0.512 -0.223,-1.512l-2.624,0c0.053,1 0.178,1.6 0.37,2.219l-1.467,0.122c-0.22,-0.842 -0.334,-1.653 -0.334,-2.562c0,-0.78 0.084,-1.502 0.248,-2.233c0.033,-0.15 0.069,-0.262 0.106,-0.403z" fill="#2A433A"/>
   <path id="svg_33" d="m91.188,95.85c0,0.907 0.115,1.789 0.334,2.631l1.467,-0.262c-0.192,-0.619 -0.316,-1.219 -0.369,-2.219l2.625,0c0.039,1 0.112,1.207 0.223,1.65l1.396,-0.154c-0.133,-0.435 -0.218,-0.496 -0.264,-1.496l2.4,0l0,2l2,0l0,-2l2.396,0c-0.045,1 -0.133,1.199 -0.264,1.635l1.395,-0.121c0.113,-0.445 0.187,-0.514 0.225,-1.514l2.625,0c-0.052,1 -0.178,1.6 -0.371,2.219l1.467,0.122c0.221,-0.842 0.338,-1.653 0.338,-2.562c0,-0.78 -0.088,-1.502 -0.25,-2.233c-0.033,-0.149 -0.069,-0.278 -0.109,-0.421l-1.465,0.005c0.05,0.155 0.096,0.287 0.136,0.447c0.121,0.466 0.2,0.424 0.243,1.424l-2.622,0c-0.041,0 -0.111,-0.886 -0.218,-1.304l-1.412,0.005c0.131,0.422 0.22,1.299 0.271,1.299l-2.385,0l0,-1l-2,0l0,1l-2.387,0c0.05,0 0.138,-0.862 0.268,-1.284l-1.414,-0.033c-0.103,0.416 -0.173,1.316 -0.213,1.316l-2.624,0c0.044,-1 0.123,-0.953 0.243,-1.419c0.042,-0.16 0.085,-0.304 0.137,-0.457l-1.467,0.01c-0.037,0.144 -0.073,0.292 -0.107,0.442c-0.164,0.733 -0.248,1.49 -0.248,2.274z" fill="#FFFFFF"/>
   <path id="svg_34" d="m39.583,83.875c3.516,-0.021 6.39,-0.116 8.833,-0.48c0.518,-0.078 1.014,-0.168 1.495,-0.272c0.858,-0.185 1.661,-0.417 2.418,-0.704c0.518,-0.195 1.016,-0.496 1.495,-0.748c0.348,-0.184 0.69,-0.67 1.021,-0.67l21.895,0l2.031,0l12.541,0l1.98,-3.621l1.8,-3.124l5.618,-10.256l8.103,0l-9.351,17l18.613,0l4.34,-8.08l0.821,-1.581l0.69,-1.34l7.878,0l-0.408,1.071c-1.439,3.533 -0.666,5.912 0.235,7.256c1.209,1.799 3.37,3.012 6.448,3.589c0.475,0.089 0.977,0.169 1.496,0.229c1.023,0.117 2.127,0.186 3.318,0.188c9.611,-0.016 15.75,-0.9 18.69,-5.374c2.426,-3.69 2.789,-7.049 1.032,-9.47l-0.016,0.135c-0.488,-0.681 -1.259,-1.624 -2.168,-1.624l5.303,0l0.494,-0.949c1.86,-3 1.389,-5.336 0.66,-6.706c-1.525,-2.87 -5.545,-4.55 -11.619,-4.781c-0.931,-0.03 -1.81,-0.06 -2.658,-0.057c-0.635,0.003 -1.254,0.003 -1.846,0.025c-1.104,0.042 -2.132,0.115 -3.095,0.229c-0.671,0.08 -1.312,0.173 -1.918,0.291c-0.422,0.082 -0.833,0.005 -1.226,0.105l-17.276,-0.156l-1.762,0l-12.365,0l-1.678,0l-16.355,0l-1.799,0l-2.391,0l-1.493,0l-14.098,0l-1.881,0l-1.997,0c0.284,0 0.559,-0.867 0.822,-1.359c0.272,-0.508 0.53,-1.087 0.774,-1.542c1.285,-2.403 2.141,-4.099 2.141,-4.099l-5.208,0l-1.881,0l-10.933,0l-2.382,4.665l-0.869,1.727l-0.072,0.181l-1.495,2.834l-2.418,4.56l-1.498,2.824l-3.653,6.875c-1.002,1.473 -1.142,1.559 -2.169,1.45c-0.298,-0.03 -0.497,-0.074 -0.629,-0.109c0.184,-0.64 0.922,-2.176 1.187,-2.623c-0.008,0.012 4.309,-7.384 4.309,-7.384l-16.805,0l-0.505,0.987c-4.619,6.358 -5.984,11.63 -4.06,15.381c1.85,3.599 6.39,5.551 13.496,5.507zm97.751,-21.21c2.281,-5.75 6.582,-7.832 17.874,-7.462c9.121,0.347 12.569,3.998 9.593,8.797l-11.009,0c0.153,-1.2 -0.253,-2.369 -1.188,-2.643c-1.153,-0.337 -2.694,-0.052 -2.84,1.185c-0.162,1.363 0.647,1.92 2.961,2.371c3.623,0.704 7.451,2.029 8.52,3.55c1.552,2.115 0.602,5.043 -1.064,7.577c-2.447,3.724 -7.777,4.711 -17.283,4.728c-8.787,-0.018 -12.209,-3.768 -9.945,-8.768l11.009,0c0.236,1 0.119,1.734 0.83,2.283c1.024,0.795 2.638,0.331 3.313,-0.528c0.588,-0.745 0.44,-2.04 -0.59,-2.424c-1.699,-0.629 -7.408,-1.501 -9.472,-2.854c-1.652,-1.081 -1.838,-3.148 -0.709,-5.812zm-30.813,-6.665l29.953,0l-3.268,6l-6.82,0l-9.32,18l-14.801,0l9.352,-18l-8.285,0l3.189,-6zm-31.989,0l27.462,0l-3.153,6l-14.011,0l-1.301,3l12.956,0l-3.238,6l-13.772,0l-1.494,3l15.496,0l-3.172,6l-28.32,0l12.547,-24zm-43.023,8l12.957,0l-2.764,4.686c-1.634,2.746 -2.51,4.698 0.712,5.039c2.037,0.213 2.667,-0.594 3.787,-2.242l11.955,-22.483l14.204,0l-12.665,23.701c-4.749,8.671 -8.744,9.277 -20.122,9.347c-12.5,0.074 -16.771,-6.048 -8.064,-18.048z" fill="#2A433A"/>
   <path id="svg_35" d="m162.621,67.498c-0.005,-0.006 -0.01,-0.012 -0.012,-0.017c-0.002,-0.004 -0.006,-0.008 -0.01,-0.013l0,0.001l0.017,0.022l0.005,0.007z" fill="#2A433A"/>
   <path id="svg_36" d="m39.573,82.061c11.378,-0.068 15.374,-0.756 20.122,-9.428l12.665,-23.633l-14.204,0l-11.955,22.516c-1.119,1.648 -1.75,2.476 -3.787,2.262c-3.223,-0.34 -2.346,-2.354 -0.712,-5.1l2.764,-4.678l-12.957,0c-8.707,12 -4.436,18.135 8.064,18.061z" fill="#FFFFFF"/>
   <polygon id="svg_37" points="102.26397705078125,80 117.06600952148438,80 126.38702392578125,62 133.20700073242188,62 136.47500610351562,56 106.52099609375,56 103.33099365234375,62 111.61599731445312,62 " fill="#FFFFFF"/>
   <path id="svg_38" d="m138.044,68.463c2.063,1.354 7.772,2.211 9.472,2.842c1.03,0.383 1.178,1.649 0.59,2.396c-0.676,0.858 -2.289,1.379 -3.313,0.584c-0.711,-0.55 -0.594,-1.283 -0.83,-2.283l-11.009,0c-2.264,5 1.158,8.751 9.943,8.769c9.504,-0.018 14.834,-0.949 17.283,-4.672c1.666,-2.533 2.616,-5.49 1.064,-7.605c-1.068,-1.521 -4.896,-2.859 -8.52,-3.563c-2.313,-0.45 -3.123,-1.013 -2.961,-2.376c0.146,-1.237 1.687,-1.527 2.84,-1.19c0.936,0.273 1.342,1.439 1.188,2.639l11.009,0c2.979,-4.8 -0.472,-8.451 -9.593,-8.797c-11.292,-0.37 -15.592,1.709 -17.874,7.459c-1.128,2.661 -0.942,4.717 0.711,5.797z" fill="#FFFFFF"/>
   <polygon id="svg_39" points="61.9840087890625,80 90.30400085449219,80 93.47599792480469,74 77.98001098632812,74 79.47500610351562,71 93.24700927734375,71 96.48500061035156,65 83.52899169921875,65 84.83000183105469,62 98.84100341796875,62 101.9940185546875,56 74.53199768066406,56 " fill="#FFFFFF"/>
  </g>
 </g>
</svg>