<svg width="200" height="136" xmlns="http://www.w3.org/2000/svg" xmlns:svg="http://www.w3.org/2000/svg">
 <g>
  <title>Layer 1</title>
  <g id="svg_2">
   <path fill="#a5acaf" d="m200,128c0,4.418 -3.582,8 -8,8l-184,0c-4.418,0 -8,-3.582 -8,-8l0,-120c0,-4.418 3.582,-8 8,-8l184,0c4.418,0 8,3.582 8,8l0,120z" id="svg_1"/>
   <path fill="none" d="m48.755,24.468c-1.273,-3.528 -1.197,-5.14 -0.631,-6.492c0.659,-2.125 3.998,-2.068 3.998,-2.068c8.997,0.449 15.751,-1.457 15.751,-1.457s17.794,-5.945 42.611,-8.044c0,0 5.64,-0.633 13.357,-0.703l0.006,0.017c17.289,-0.314 36.704,1.644 55.411,8.491c0.189,0.068 0.378,0.134 0.566,0.203c0,0 6.911,2.855 15.319,2.765c0,0 0.039,0 0.104,0.01c0.005,0.001 0.017,0.003 0.022,0.003c0.03,0.004 0.06,0.01 0.094,0.016c0.01,0.001 0.023,0.005 0.035,0.007c0.035,0.006 0.072,0.013 0.113,0.025c0.014,0.002 0.032,0.008 0.045,0.011c0.043,0.009 0.082,0.021 0.127,0.036c0.02,0.003 0.039,0.011 0.058,0.017c0.045,0.015 0.089,0.03 0.134,0.049c0.021,0.008 0.042,0.017 0.061,0.027c0.047,0.019 0.094,0.038 0.143,0.061c0.02,0.011 0.04,0.025 0.062,0.036c0.045,0.025 0.092,0.051 0.139,0.078c0.021,0.016 0.041,0.03 0.062,0.045c0.044,0.033 0.087,0.065 0.132,0.099c0.021,0.017 0.041,0.038 0.062,0.057c0.042,0.039 0.082,0.076 0.116,0.118c0.02,0.023 0.037,0.047 0.058,0.068c0.036,0.047 0.067,0.091 0.101,0.142c0.017,0.026 0.03,0.055 0.047,0.081c0.029,0.054 0.058,0.108 0.082,0.167c0.012,0.03 0.022,0.064 0.035,0.096c0.021,0.061 0.037,0.125 0.055,0.192c0.008,0.038 0.012,0.076 0.02,0.113c0.01,0.072 0.02,0.144 0.022,0.22c0.002,0.042 0.002,0.085 0.002,0.131c0,0.08 -0.005,0.163 -0.015,0.251c-0.004,0.048 0.004,0.095 -0.004,0.146c-0.005,0.047 -0.055,0.28 -0.055,0.365l0,0.004c0,0.002 -0.016,0.004 -0.016,0.004c-0.258,2.542 -2.064,8.981 -6.934,13.207c0.932,1.749 1.338,3.774 1.303,6.229c2.814,0.188 5.713,0.547 8.646,1.135l0,-32.426c0,-4.418 -3.582,-8 -8,-8l-183.999,0c-4.418,0 -8,3.582 -8,8l0,63.555c24.222,-19.73 45.393,-30.952 56.134,-35.314c-0.046,-0.06 -5.913,-7.706 -7.379,-11.773z" id="svg_3"/>
   <path fill="none" d="m190.259,47.016c0,0 -0.134,0.01 -0.327,0.021c-0.38,1.497 -0.774,2.883 -1.099,3.974c3.396,0.132 7.2,0.479 11.167,1.175l0,-4.939c-2.889,-0.242 -6.134,-0.35 -9.741,-0.231z" id="svg_4"/>
   <path fill="none" d="m191.146,41.187c-0.069,-0.004 -0.414,2.426 -0.681,3.623l0.313,-0.002c2.931,0.084 6.035,0.344 9.221,0.847l0,-3.905c-2.518,-0.306 -5.413,-0.523 -8.676,-0.557l-0.177,-0.006z" id="svg_5"/>
   <path fill="none" d="m107.538,22.488c0.021,-0.008 0.048,-0.018 0.071,-0.027c-0.023,0.009 -0.048,0.019 -0.071,0.027z" id="svg_6"/>
   <path fill="none" d="m123.579,20.801l0.582,0.121c-7.077,-1.612 -14.029,0.6 -16.229,1.416c2.142,-0.793 8.776,-2.901 15.647,-1.537z" id="svg_7"/>
   <path fill="none" d="m188.107,53.35c-3.734,9.735 -12.27,29.064 -25.073,39.986c-0.002,0.002 -0.007,0.004 -0.009,0.005c0,0 1.317,4.736 0.394,12.134c-0.801,6.4 -2.437,15.058 -12.224,20.332c-0.318,0.146 -0.703,0.193 -1.152,0.193c0.002,0 0.002,0 0.002,0l0.576,2.34c0.32,1.01 1.107,4.66 1.959,7.66l39.42,0c4.418,0 8,-3.182 8,-7.602l0,-74.247c-3.516,-0.448 -7.484,-0.754 -11.893,-0.801z" id="svg_8"/>
   <path fill="none" d="m32.404,118.698c-3.415,-0.579 -6.801,-1.05 -10.148,-1.425c-0.021,-0.002 -2.377,-0.25 -2.562,-0.267c-0.076,-0.008 -1.447,-0.134 -1.875,-0.175c-6.155,-0.541 -12.13,-0.766 -17.818,-0.77l0,12.336c-0.001,4.421 3.581,7.603 7.999,7.603l78.221,0c-7.829,-3 -15.85,-6.186 -24.223,-9.448c-9.794,-3.813 -19.798,-6.188 -29.594,-7.854z" id="svg_9"/>
   <path fill="none" d="m107.718,22.419c0.064,-0.024 0.134,-0.051 0.208,-0.079c-0.074,0.028 -0.144,0.055 -0.208,0.079z" id="svg_10"/>
   <path fill="#000016" d="m196.729,20.576c0.062,-0.142 0.108,-0.276 0.149,-0.405c0.036,-0.112 0.065,-0.22 0.091,-0.322c-0.002,-0.006 -0.002,-0.012 -0.005,-0.017c-0.388,-1.114 -1.163,-1.041 -2.795,-0.912c-2.377,0.454 -4.578,1.08 -6.427,1.08l0.002,0c-0.104,0 -0.199,-0.134 -0.299,-0.124c-0.073,0.006 -0.146,-0.062 -0.217,-0.059c-0.276,0.027 -0.543,0.013 -0.803,0.034c-0.037,0.003 -0.072,-0.014 -0.111,-0.01c-2.385,0.193 -3.894,0.193 -3.894,0.193c6.093,4.608 6.806,11.738 6.806,11.738l0.311,-0.268c4.677,-3.394 7.192,-10.928 7.192,-10.928z" id="svg_11"/>
   <path fill="#D1D3D4" d="m131.354,79.296c6.676,-5.726 11.922,-17.488 11.922,-17.488c10.971,-2.225 17.012,0 17.012,0c1.431,8.586 -1.75,15.579 -1.75,15.579c6.361,-5.086 9.222,-18.602 9.222,-18.602s-2.543,-2.385 -13.829,-3.178c-11.291,-0.795 -20.511,2.862 -20.511,2.862c3.019,8.902 -2.066,20.827 -2.066,20.827z" id="svg_12"/>
   <path fill="#D1D3D4" d="m151.249,102.029c0,0 -5.659,1.184 -9.351,0.048c0,0 1.451,-3.027 -0.252,-9.558c0,0 -3.313,9.226 -6.719,12.633c0,0 4.399,2.41 12.062,1.701c7.667,-0.709 9.512,-3.547 10.222,-6.387c0.71,-2.838 0,-6.814 -1.278,-9.795c0.001,0.002 0.568,7.524 -4.684,11.358z" id="svg_13"/>
   <path fill="#D1D3D4" d="m117.001,23.415c-1.466,2.169 -0.908,3.209 -0.908,3.209c14.257,-0.25 21.944,2.053 21.944,2.053s-5.312,-5.805 -13.877,-7.754l-0.582,-0.121c-4.628,-0.88 -6.577,2.613 -6.577,2.613z" id="svg_14"/>
   <path fill="#D1D3D4" d="m180.547,28.124c-1.876,-1.75 -5.879,-4 -10.255,-3.125c-4.375,0.875 -4.627,5.628 -4.627,5.628c4.752,-4.379 14.882,-2.503 14.882,-2.503z" id="svg_15"/>
   <path fill="#0099D9" d="m124.801,39.333c0.967,-0.866 2.082,-1.749 3.37,-2.644c0,0 -24.644,-6.838 -53.737,0.795c0,-0.001 23.495,-4.501 50.367,1.849z" id="svg_16"/>
   <path fill="#0099D9" d="m74.561,46.66c0,0 20.594,-5.133 45.701,-1.672c0.479,-0.951 1.127,-1.953 1.973,-2.993c-9.062,-1.038 -27.452,-1.852 -47.674,4.665z" id="svg_17"/>
   <path fill="#0099D9" d="m75.085,55.544c0,0 19.459,-6.009 43.998,-4.312c-0.121,-0.879 -0.131,-1.931 0.094,-3.116c-9.835,-0.268 -26.398,0.627 -44.092,7.428z" id="svg_18"/>
   <path fill="#0099D9" d="m22.256,117.273c3.347,0.375 6.733,0.846 10.148,1.425c7.699,-28.179 29.361,-43.15 29.361,-43.15c-29.299,14.171 -41.617,37.452 -44.072,41.452c0.002,0 0.006,0 0.01,0c0.019,0 0.059,-0.084 0.115,-0.079c0.428,0.042 1.799,0.123 1.875,0.13c0.186,0.017 2.542,0.22 2.563,0.222z" id="svg_19"/>
   <path fill="#0099D9" d="m163.323,100.789c-1.851,-13.491 -5.648,-14.503 -7.483,-23.001c-1.832,-8.5 3.014,-14.321 3.014,-14.321c-11.01,9.654 -4.345,19.319 -1.012,26.817c3.329,7.499 1.998,12.999 -1.333,16.83c-3.334,3.834 -12.5,4.167 -18.663,3.001c-6.166,-1.167 -9.332,-7.667 -11,-15.331c-1.664,-7.667 1.334,-21.164 1.334,-21.164c-4.5,6.833 -4.5,20.83 -1,32.162c3.498,11.331 12.662,14.161 19.329,14.161c6.666,0 18.663,-5.661 16.814,-19.154z" id="svg_20"/>
   <path fill="#0099D9" d="m72.328,59.871c0,0 -3.945,15.355 5.424,26.852c9.37,11.498 32.188,12.752 32.188,12.752s-14.269,-3.156 -25.768,-14.793c-11.496,-11.642 -11.844,-24.811 -11.844,-24.811z" id="svg_21"/>
   <path fill="#0099D9" d="m142.32,34.302c13.514,5.25 13.354,13.356 13.354,13.356c2.067,-7.79 11.607,-11.922 11.607,-11.922s-4.928,-2.387 -11.766,-2.862c-6.835,-0.479 -13.195,1.428 -13.195,1.428z" id="svg_22"/>
   <path fill="#0099D9" d="m123.579,20.801c-6.871,-1.365 -13.505,0.744 -15.647,1.537c-0.002,0.001 -0.002,0.001 -0.005,0.002c-0.075,0.028 -0.145,0.054 -0.208,0.079c-0.039,0.015 -0.074,0.028 -0.109,0.042c-0.022,0.009 -0.049,0.019 -0.07,0.027c-0.165,0.065 -0.27,0.109 -0.309,0.125c-0.004,0.002 -0.008,0.002 -0.008,0.004c-0.002,0.002 -0.005,0.002 -0.008,0.002l-0.001,0.002c7.504,0.126 9.788,0.793 9.788,0.793s1.948,-3.492 6.577,-2.613z" id="svg_23"/>
   <path fill="#0099D9" d="m150.044,126c0,0 0,0 -0.002,0c-0.087,0 -4.867,1.791 -10.785,0.729c0,0 3.05,3.271 7.276,9.271l6.046,0c-0.853,-3 -1.638,-6.65 -1.959,-7.66l-0.576,-2.34z" id="svg_24"/>
   <path fill="#000000" d="m139.257,127c5.917,1.062 10.697,-0.521 10.785,-0.553c0.449,-0.158 0.834,-0.271 1.151,-0.418c9.789,-5.275 11.424,-14.18 12.225,-20.58c0.924,-7.397 -0.393,-12.122 -0.393,-12.122s16.938,-22.228 21.242,-39.728c0,0 0.996,-3.161 0.426,-6.4c-0.158,-0.905 -0.412,-1.677 -0.729,-2.345c-0.002,0 -0.256,-0.64 -1.023,-1.643c-0.658,-0.837 -1.395,-1.494 -2.065,-2.127c-1.464,-1.381 -4.099,-2.198 -4.099,-2.198s-0.002,0 -0.004,-0.002c1.836,1.392 3.24,3.394 3.381,6.273c0.429,8.862 -8.721,12.438 -8.721,12.438c2.146,-1.429 6.004,-6.29 5.002,-12.582c-1,-6.29 -9.154,-9.278 -9.154,-9.278s-9.54,4.132 -11.607,11.922c0,0 0.159,-8.106 -13.354,-13.356c0,0 6.357,-1.907 13.195,-1.428c6.838,0.476 11.767,2.862 11.767,2.862s1.265,-3.332 7.978,-4.472c6.708,-1.141 13.967,0.504 13.967,0.504c-1.342,-2.447 -2.888,-6.013 -9.632,-8.77c-6.743,-2.756 -12.79,-0.263 -12.79,-0.263s-0.439,-3.254 -5.343,-6.427c-7.967,-5.153 -29.038,-8.224 -33.099,-8.441c-4.061,-0.218 3.041,2.397 5.891,4.021c3.234,1.845 6.857,4.974 7.167,7.945c0.079,0.797 -0.108,1.497 -0.468,2.072c-0.284,-0.832 -0.885,-1.89 -1.938,-3.242c-5.769,-7.415 -20.416,-10.62 -31.4,-9.887c-10.983,0.731 -19.71,4.888 -19.71,4.888c0.125,1.014 -4.054,4.557 -15.573,5.826c-10.978,1.205 -18.724,-0.803 -21.512,-1.214c-0.072,-0.019 -0.144,-0.037 -0.21,-0.042c-1.13,-0.143 -1.979,-0.09 -2.333,0.723c-0.016,0.036 -0.029,0.074 -0.038,0.113c-0.009,0.047 -0.017,0.097 -0.025,0.148c-0.045,0.535 0.259,1.254 0.293,1.333c1.118,2.091 5.617,10.045 11.45,14.236c0,0 3.678,-0.779 8.042,-1.247c0,0 -37.581,18.29 -67.998,48.896l0,33.625c5.688,0.004 11.663,0.317 17.818,0.857c-0.057,-0.005 -0.097,0.079 -0.115,0.079c-0.004,0 -0.008,0 -0.01,0c2.455,-4 14.773,-27.281 44.072,-41.452c0,0 -21.662,15.016 -29.361,43.194c9.796,1.665 19.8,4.02 29.594,7.833c8.372,3.267 16.393,6.429 24.222,9.429l60.312,0c-4.224,-6 -7.276,-9 -7.276,-9zm31.035,-102.002c4.376,-0.875 8.379,1.375 10.255,3.125c0,0 -10.13,-1.875 -14.883,2.502c0,0.001 0.252,-4.751 4.628,-5.627zm-16.362,30.609c11.286,0.793 13.829,3.178 13.829,3.178s-2.86,13.515 -9.222,18.602c0,0 3.181,-6.992 1.75,-15.579c0,0 -6.042,-2.225 -17.012,0c0,0 -5.246,11.762 -11.922,17.488c0,0 5.086,-11.925 2.065,-20.826c0,0 9.221,-3.658 20.512,-2.863zm2.004,35.066c1.277,2.981 1.988,6.958 1.277,9.795c-0.71,2.839 -2.555,5.677 -10.223,6.388c-7.663,0.707 -12.062,-1.703 -12.062,-1.703c3.405,-3.407 6.72,-12.633 6.72,-12.633c1.703,6.53 0.252,9.559 0.252,9.559c3.69,1.136 9.35,-0.049 9.35,-0.049c5.253,-3.835 4.686,-11.357 4.686,-11.357zm-48.719,-68.053c0.002,0 0.004,0 0.008,-0.002c0,-0.002 0.004,-0.002 0.008,-0.004c0.039,-0.016 0.144,-0.06 0.309,-0.125c0.021,-0.008 0.048,-0.018 0.07,-0.027c0.035,-0.014 0.07,-0.027 0.109,-0.042c0.064,-0.024 0.135,-0.051 0.208,-0.079c0.001,0 0.003,-0.001 0.005,-0.002c2.2,-0.816 9.152,-3.028 16.229,-1.416c8.563,1.949 13.877,7.754 13.877,7.754s-7.688,-2.303 -21.944,-2.053c0,0 -0.558,-1.04 0.908,-3.209c0,0 -2.284,-0.667 -9.788,-0.793l0.001,-0.002zm20.955,14.068c-1.288,0.896 -2.402,1.778 -3.37,2.644c-26.872,-6.349 -50.367,-1.849 -50.367,-1.849c29.094,-7.632 53.737,-0.795 53.737,-0.795zm-50.418,50.035c-9.369,-11.496 -5.424,-26.852 -5.424,-26.852s0.349,13.169 11.845,24.811c11.499,11.639 25.769,14.793 25.769,14.793s-22.82,-1.254 -32.19,-12.752zm41.331,-35.491c-24.539,-1.697 -43.998,4.312 -43.998,4.312c17.694,-6.801 34.257,-7.697 44.092,-7.428c-0.225,1.186 -0.215,2.237 -0.094,3.116zm1.179,-6.244c-25.107,-3.46 -45.701,1.672 -45.701,1.672c20.223,-6.517 38.613,-5.703 47.673,-4.665c-0.845,1.04 -1.494,2.042 -1.972,2.993zm6.918,60.795c-3.5,-11.332 -3.5,-25.328 1,-32.162c0,0 -2.998,13.497 -1.332,21.164c1.666,7.663 4.832,14.164 10.998,15.331c6.165,1.166 15.33,0.833 18.664,-3.001c3.332,-3.831 4.663,-9.332 1.333,-16.83c-3.333,-7.498 -9.999,-17.163 1.011,-26.817c0,0 -4.845,5.82 -3.013,14.321c1.835,8.498 5.634,9.51 7.483,23.001c1.849,13.493 -10.148,19.155 -16.814,19.155c-6.667,-0.002 -15.832,-2.831 -19.33,-14.162z" id="svg_25"/>
   <path fill="#000016" d="m48.352,20.261c0.025,0.049 0.056,0.107 0.09,0.172c-0.033,-0.064 -0.064,-0.123 -0.09,-0.172z" id="svg_26"/>
   <path fill="#0099D9" d="m67.998,33.542c-4.364,0.468 -8.042,1.247 -8.042,1.247c-5.833,-4.191 -10.333,-12.146 -11.45,-14.236c-0.034,-0.079 -0.338,-0.798 -0.293,-1.333c0.008,-0.051 0.016,-0.101 0.025,-0.147c0.009,-0.04 0.022,-0.078 0.038,-0.113c0.354,-0.813 1.203,-0.866 2.333,-0.723c0.066,0.005 0.138,0.022 0.21,0.042c2.788,0.411 10.534,2.418 21.512,1.214c11.519,-1.27 15.697,-4.812 15.573,-5.826c0,0 8.727,-4.157 19.709,-4.888c10.986,-0.733 25.633,2.472 31.4,9.887c1.053,1.353 1.654,2.411 1.938,3.242c0.36,-0.575 0.547,-1.275 0.468,-2.072c-0.309,-2.971 -3.932,-6.1 -7.167,-7.945c-2.849,-1.624 -9.951,-4.239 -5.892,-4.021c4.062,0.218 25.133,3.288 33.1,8.441c4.902,3.172 5.342,6.427 5.342,6.427s6.047,-2.493 12.791,0.263s8.29,6.322 9.631,8.77c0,0 -0.711,-7.135 -6.805,-11.743c0,0 1.51,-0.009 3.895,-0.203c0.037,-0.003 0.074,-0.005 0.11,-0.009c0.259,-0.021 0.526,-0.046 0.804,-0.073c0.069,-0.004 0.144,0.142 0.215,0.136c0.102,-0.01 0.197,0.124 0.3,0.124l-0.002,0c1.849,0 4.05,-0.626 6.427,-1.08c1.633,-0.129 2.407,-0.125 2.795,0.989c0.003,0.005 0.003,-0.028 0.005,-0.021c-0.026,0.102 -0.055,0.19 -0.091,0.303c-0.042,0.129 -0.089,0.254 -0.148,0.396c0,0 -2.516,7.528 -7.193,10.922l-0.311,0.262c0,0 -7.259,-1.645 -13.967,-0.505c-6.712,1.141 -7.979,4.472 -7.979,4.472s8.156,2.989 9.156,9.278c1.002,6.292 -2.857,11.152 -5.002,12.581c0,0 9.147,-3.576 8.721,-12.438c-0.142,-2.879 -1.547,-4.881 -3.381,-6.273c0.002,0.002 0.004,0.002 0.004,0.002s2.634,0.818 4.098,2.199c0.671,0.633 1.407,1.29 2.064,2.127c0.77,1.003 1.022,1.644 1.024,1.644c0.315,0.668 0.57,1.441 0.729,2.347c0.567,3.239 -0.426,6.403 -0.426,6.403c-4.306,17.5 -21.244,39.734 -21.244,39.734c0.002,-0.001 0.006,-0.003 0.009,-0.005c12.805,-10.922 21.339,-30.25 25.073,-39.986c4.408,0.048 8.377,0.354 11.893,0.801l0,-1.965c-3.967,-0.696 -7.771,-1.043 -11.167,-1.175c0.323,-1.091 0.719,-2.478 1.099,-3.974c0.193,-0.011 0.327,-0.021 0.327,-0.021c3.606,-0.118 6.853,-0.01 9.741,0.231l0,-1.592c-3.186,-0.503 -6.29,-0.763 -9.221,-0.847l-0.313,0.002c0.269,-1.197 0.611,-3.627 0.681,-3.623l0.178,0.006c3.263,0.034 6.158,0.251 8.676,0.557l0,-1.324c-2.936,-0.588 -5.835,-0.947 -8.65,-1.135c0.035,-2.455 -0.375,-4.481 -1.307,-6.229c4.87,-4.226 6.684,-10.665 6.939,-13.207c0,0 0.017,-0.002 0.017,-0.004l0,-0.005c0,-0.085 0.05,-0.318 0.056,-0.366c0.008,-0.051 0.006,-0.098 0.01,-0.146c0.012,-0.088 0.012,-0.172 0.012,-0.251c0,-0.045 -0.002,-0.089 -0.004,-0.131c-0.004,-0.076 -0.014,-0.147 -0.023,-0.22c-0.008,-0.038 -0.013,-0.076 -0.02,-0.113c-0.018,-0.066 -0.034,-0.131 -0.055,-0.192c-0.012,-0.032 -0.023,-0.066 -0.035,-0.096c-0.024,-0.059 -0.054,-0.113 -0.082,-0.167c-0.017,-0.026 -0.03,-0.055 -0.047,-0.081c-0.033,-0.051 -0.064,-0.095 -0.101,-0.142c-0.021,-0.021 -0.038,-0.045 -0.058,-0.068c-0.034,-0.042 -0.074,-0.079 -0.116,-0.118c-0.021,-0.019 -0.041,-0.04 -0.062,-0.057c-0.044,-0.034 -0.088,-0.066 -0.132,-0.099c-0.021,-0.015 -0.042,-0.03 -0.062,-0.045c-0.047,-0.026 -0.094,-0.053 -0.139,-0.078c-0.022,-0.011 -0.043,-0.025 -0.062,-0.036c-0.049,-0.023 -0.094,-0.042 -0.143,-0.061c-0.019,-0.01 -0.039,-0.019 -0.061,-0.027c-0.045,-0.019 -0.089,-0.034 -0.134,-0.049c-0.019,-0.006 -0.038,-0.014 -0.058,-0.017c-0.046,-0.016 -0.084,-0.027 -0.127,-0.036c-0.013,-0.003 -0.031,-0.009 -0.046,-0.011c-0.041,-0.012 -0.077,-0.019 -0.112,-0.025c-0.012,-0.002 -0.025,-0.006 -0.035,-0.007c-0.034,-0.006 -0.063,-0.011 -0.094,-0.016c-0.006,0 -0.018,-0.002 -0.022,-0.003c-0.065,-0.01 -0.104,-0.01 -0.104,-0.01c-8.408,0.091 -15.32,-2.765 -15.32,-2.765c-0.188,-0.069 -0.377,-0.135 -0.565,-0.203c-18.707,-6.847 -38.123,-8.805 -55.411,-8.491l-0.006,-0.017c-7.719,0.07 -13.357,0.703 -13.357,0.703c-24.817,2.099 -42.611,8.044 -42.611,8.044s-6.754,1.906 -15.751,1.457c0,0 -3.339,-0.057 -3.998,2.068c-0.566,1.353 -0.642,2.964 0.631,6.492c1.466,4.067 7.333,11.713 7.379,11.771c-10.739,4.362 -31.91,15.583 -56.132,35.314l0,10.883c30.417,-30.606 67.998,-48.896 67.998,-48.896zm-19.556,-13.109c-0.034,-0.064 -0.065,-0.123 -0.09,-0.172c0.026,0.049 0.057,0.108 0.09,0.172z" id="svg_27"/>
  </g>
 </g>
</svg>