<svg width="200" height="136" xmlns="http://www.w3.org/2000/svg" xmlns:svg="http://www.w3.org/2000/svg">
 <g>
  <title>Layer 1</title>
  <path id="svg_1" d="m200,128c0,4.418 -3.582,8 -8,8l-184,0c-4.418,0 -8,-3.582 -8,-8l0,-120c0,-4.418 3.582,-8 8,-8l184,0c4.418,0 8,3.582 8,8l0,120z" fill="#a2aaad"/>
  <g id="svg_2">
   <path id="svg_3" d="m10.121,69.661c-10.121,-2.629 -5.334,-11.862 -2.271,-12.152c0,0 -3.646,0.444 -7.685,0.788l0,70.102c0,4.419 3.582,7.601 8,7.601l108.555,0c-27.086,-31 -56.006,-52.174 -106.599,-66.339z" fill="none"/>
   <path id="svg_4" d="m200.165,13.381l0,-5.381c0,-4.418 -3.582,-8 -8,-8l-59.023,0c27.74,8.25 37.671,19.326 67.023,13.381z" fill="none"/>
   <path id="svg_5" d="m182.368,88.006l-15.413,7.26l2.897,22.586l-10.108,4.68l-2.741,6.568c0.995,2.276 1.387,4.9 1.283,6.9l33.879,0c4.418,0 8,-3.182 8,-7.602l0,-88.478c-7.501,20.417 -17.797,48.086 -17.797,48.086z" fill="none"/>
   <path id="svg_6" d="m12.902,63.579c21.965,-2.188 39.223,-11.932 74.464,-8.108c-16.896,-10.304 -32.399,-10.854 -49.977,-8.964l-2.764,-16.514c11.005,-2.042 22.281,-3.068 34.817,-2.292c-11.403,-5.188 -23.416,-6.803 -36.182,-6.365l-3.112,-19.273c6.786,-0.89 13.733,-1.587 20.877,-2.063l-42.86,0c-4.165,0 -7.583,3.184 -7.962,7.25c8.601,-1.814 17.359,-3.418 26.391,-4.697l3.561,18.937c-9.556,0.563 -19.533,2.194 -29.99,4.276l0,12.871c10.605,-2.932 20.977,-5.913 31.718,-8.058l2.946,16.247c-10.567,1.245 -21.882,3.242 -34.664,4.441l0,7.03c4.038,-0.344 7.685,-0.688 7.685,-0.688c-3.063,0.289 -7.85,9.423 2.271,12.052c50.593,14.165 79.513,35.339 106.599,66.339l9.35,0c-19.574,-24 -50.153,-55.886 -113.168,-72.421z" fill="#FFFFFF"/>
   <path id="svg_7" d="m157.003,129.1l2.741,-6.668l10.108,-4.631l-2.897,-22.561l15.413,-7.247c0,0 10.296,-27.656 17.797,-48.073l0,-26.539c-29.352,5.945 -39.283,-5.131 -67.023,-13.381l-39.884,0c54.538,3.697 67.265,28.518 105.986,20.481l-23.006,62.976l-17.363,7.109l2.935,23.104l-9.274,4.337l-0.158,4.768l-3.462,7.226c1.145,1.394 1.82,3.999 1.718,5.999l7.653,0c0.103,-2 -0.289,-4.624 -1.284,-6.9z" fill="#FFFFFF"/>
   <path id="svg_8" d="m26.594,2.552c-9.032,1.28 -17.79,2.884 -26.391,4.698c-0.023,0.247 -0.038,0.497 -0.038,0.75l0,17.766c10.457,-2.082 20.434,-3.713 29.99,-4.278l-3.561,-18.936z" fill="#DA2128"/>
   <path id="svg_9" d="m148.915,130.001l3.462,-7.326l0.158,-4.716l9.274,-4.312l-2.935,-23.092l17.363,-7.104l23.006,-62.973c-38.723,8.037 -51.447,-16.781 -105.985,-20.478l-42.233,0c-7.145,0.476 -14.091,1.176 -20.877,2.066l3.113,19.277c12.766,-0.438 24.779,1.184 36.182,6.371c-12.537,-0.776 -23.812,0.263 -34.817,2.304l2.764,16.539c17.577,-1.89 33.08,-1.289 49.977,9.014c-35.241,-3.824 -52.499,5.82 -74.464,8.008c63.014,16.535 93.593,48.421 113.166,72.421l7.441,0c-9.074,-12 -19.351,-24.671 -36.253,-36.506c5.689,-6.801 13.156,-2.385 20.271,3.773l7.908,11.53l-2.488,-14.394l-19.251,-15.766c3.5,-11.185 28.301,-10.519 33.39,-3.391c-9.074,-1.155 -13.852,1.979 -16.921,8.934l21.808,1.285c1.767,-7.031 5.854,-9.58 10.717,-8.986l3.537,27.397l-12.304,-0.767l-2.284,2.5l6.651,3.186l-0.242,3.706l-6.509,-0.381l-8.553,5.854l8.433,-1.521l7.486,0.44l-2.765,4.803l-6.021,-0.355l5.292,6.316c0.484,0.604 0.716,1.34 0.695,2.34l4.523,0c0.105,-1.997 -0.57,-4.602 -1.715,-5.996zm4.247,-74.872l-18.789,4.426l11.61,-13.521l-9.575,-12.685l16.036,5.503l9.341,-9.813l1.548,13.76l15.489,5.814l-14.529,3.641l1.435,18.551l-12.566,-15.676z" fill="#002A5C"/>
   <path id="svg_10" d="m31.883,30.579c-10.741,2.145 -21.113,5.126 -31.718,8.058l0,12.63c12.782,-1.199 24.097,-3.196 34.664,-4.441l-2.946,-16.247z" fill="#DA2128"/>
   <path id="svg_11" d="m145.414,133.66l-5.292,-6.416l6.021,0.404l2.764,-4.776l-7.486,-0.429l-8.432,1.527l8.552,-5.852l6.509,0.383l0.242,-3.706l-6.652,-3.187l2.285,-2.5l12.303,0.768l-3.535,-27.396c-4.863,-0.594 -8.952,1.955 -10.719,8.986l-21.809,-1.28c3.068,-6.955 7.846,-10.086 16.921,-8.931c-5.089,-7.127 -29.89,-7.787 -33.39,3.396l19.251,15.779l2.489,14.418l-7.91,-11.479c-7.112,-6.158 -14.58,-10.674 -20.27,-3.874c16.905,11.834 27.18,24.505 36.255,36.505l12.598,0c0.021,-1 -0.212,-1.734 -0.695,-2.34z" fill="#B0B7BC"/>
   <polygon id="svg_12" points="164.29298400878906,52.253997802734375 178.8219757080078,48.61299133300781 163.33299255371094,42.79899597167969 161.7849884033203,29.03900146484375 152.44398498535156,38.853004455566406 136.4080047607422,33.3489990234375 145.9829864501953,46.03399658203125 134.3730010986328,59.55499267578125 153.16197204589844,55.128997802734375 165.7270050048828,70.80499267578125 " fill="#FFFFFF"/>
  </g>
 </g>
</svg>