<svg width="200" height="136" xmlns="http://www.w3.org/2000/svg" xmlns:svg="http://www.w3.org/2000/svg">
 <g>
  <title>Layer 1</title>
  <path id="svg_1" d="m200,128c0,4.418 -3.582,8 -8,8l-184,0c-4.418,0 -8,-3.582 -8,-8l0,-120c0,-4.418 3.582,-8 8,-8l184,0c4.418,0 8,3.582 8,8l0,120z" fill="#000000"/>
  <g id="svg_2">
   <path id="svg_3" d="m171.939,110.384c-12.342,-1.225 -25.19,-0.457 -30.449,-0.041c-3.975,3.455 -9.497,6.483 -16.475,9.007l-8.295,2.99c0,0 -0.728,-5.099 -0.728,-5.102c-3.796,2.654 -8.046,7.328 -10.306,16.272l-0.679,2.49l86.993,0c4.418,0 8,-3.182 8,-7.602l0,-17.871c-6.889,0.682 -16.422,1.008 -28.061,-0.143z" fill="none"/>
   <path id="svg_4" d="m0,65.276l0,17.271c1.985,-3.085 4.359,-7.003 5.798,-10.175c3.407,-7.509 -0.444,-7.789 -5.798,-7.096z" fill="none"/>
   <path id="svg_5" d="m71.722,119.607l8.346,-13.278c1.901,-2.787 -0.018,-3.804 -0.607,-4.029c-7.252,-2.766 -27.527,0.87 -42.942,6.404l-21.25,7.61l12.954,-18.489c1.116,-1.708 1.199,-1.925 1.347,-2.321c0.505,-1.163 0.21,-2.225 -1.401,-2.254c-4.509,0.162 -13.429,1.863 -23.365,5.316l-4.804,1.668l0,28.166c0,4.418 3.582,7.6 8,7.6l85.081,0c-1.68,-2 -6.437,-8.129 -7.285,-18.73c-1.754,0.261 -14.074,2.337 -14.074,2.337z" fill="none"/>
   <path id="svg_6" d="m124.449,14.031c5.771,2.474 10.992,5.434 15.74,8.746c-0.465,-3.888 -1.051,-8.758 -1.051,-8.758l14.641,16.556c1.453,1.643 2.718,3.392 3.834,5.251c0.521,-0.714 5.771,-7.884 5.771,-7.884s2.266,16.997 2.266,17c0.062,0.475 0.108,0.999 0.143,1.57c3.545,-0.052 8.167,0.14 14.034,0.961l13.573,1.903c0,0 -1.235,1.254 -2.405,2.439c1.608,0.519 3.198,1.052 4.713,1.639l4.292,1.675l0,-47.129c0,-4.418 -3.582,-8 -8,-8l-184,0c-4.418,0 -8,3.582 -8,8l0,17.266c15.546,-9.182 30.528,-14.234 42.729,-17c28.382,-6.439 58.167,-4.338 81.72,5.765z" fill="none"/>
   <path id="svg_7" d="m200,63.418l0,-2.184l-2.919,0.98c0.978,0.386 1.951,0.788 2.919,1.204z" fill="#FFFFFF"/>
   <path id="svg_8" d="m123.369,17.988c10.093,4.327 17.451,9.521 22.77,14.464l-0.67,-5.588l5.913,6.692c3.3,3.735 5.104,7.525 6.204,10.586c0.479,-0.659 3.812,-5.21 3.812,-5.21l0.916,6.866c0.117,0.883 0.158,1.967 0.158,3.071c0,0.787 -0.025,1.57 -0.055,2.308c3.425,-0.32 9.245,-0.457 17.682,0.722l5.479,0.772c0,0 -0.802,0.814 -1.538,1.562c3.835,0.923 7.554,2.063 11.094,3.445l4.864,1.9l0,-4.449l-4.292,-1.675c-1.516,-0.586 -3.105,-1.12 -4.713,-1.639c1.17,-1.185 2.406,-2.439 2.406,-2.439l-13.574,-1.903c-5.868,-0.821 -10.489,-1.013 -14.034,-0.961c-0.034,-0.571 -0.081,-1.095 -0.142,-1.57c0,-0.003 -2.267,-17 -2.267,-17s-5.25,7.17 -5.772,7.884c-1.115,-1.86 -2.379,-3.609 -3.832,-5.251l-14.641,-16.556c0,0 0.584,4.87 1.051,8.758c-4.748,-3.312 -9.969,-6.272 -15.742,-8.746c-23.55,-10.103 -53.335,-12.204 -81.717,-5.765c-12.2,2.767 -27.182,7.819 -42.729,17l0,4.982c15.911,-9.744 31.319,-15.003 43.764,-17.826c27.699,-6.28 56.715,-4.251 79.605,5.566z" fill="#FFFFFF"/>
   <path id="svg_9" d="m10.742,63.781c-1.459,-2.013 -5.25,-2.8 -10.742,-2.259l0,3.753c5.354,-0.693 9.205,-0.413 5.798,7.097c-1.439,3.172 -3.813,7.09 -5.798,10.175l0,7.801c1.07,-1.578 6.604,-9.809 9.452,-15.709c2.293,-4.758 2.772,-8.81 1.29,-10.858z" fill="#FFFFFF"/>
   <path id="svg_10" d="m115.993,117.236c0,0.004 0.728,5.103 0.728,5.103l8.295,-2.991c6.979,-2.522 12.5,-5.551 16.475,-9.006c5.259,-0.416 18.107,-1.184 30.449,0.041c11.639,1.151 21.172,0.825 28.061,0.145l0,-3.41c-6.641,0.626 -15.745,0.896 -26.846,-0.203c-14.081,-1.389 -28.745,-0.282 -32.747,0.068c-2.679,2.582 -7.55,6.031 -16.248,9.17l-3.546,1.283c0,0 -0.69,-4.842 -0.831,-5.836c-4.97,1.76 -13.89,6.729 -17.661,21.672l-0.739,2.728l3.624,0l0.679,-2.489c2.259,-8.945 6.511,-13.618 10.307,-16.275z" fill="#FFFFFF"/>
   <path id="svg_11" d="m90.146,114.887c0,-0.498 0.031,-1.022 0.05,-1.544c-1.608,0.25 -3.243,0.501 -3.243,0.501l-6.632,1.014l3.573,-5.688c0.152,-0.234 3.633,-5.873 -0.089,-8.734c-8.046,-6.166 -34.083,-0.195 -48.603,5.01l-9.086,3.254l5.543,-7.901c0.899,-1.282 3.328,-5.569 2.786,-8.397c-0.166,-0.846 -0.59,-1.455 -1.374,-1.967c-3.402,-2.227 -18.074,0.766 -29.716,4.812l-3.355,1.166l0,3.821l4.803,-1.666c9.937,-3.454 18.856,-5.155 23.365,-5.317c1.611,0.03 1.906,1.092 1.401,2.254c-0.148,0.396 -0.231,0.613 -1.347,2.321l-12.954,18.49l21.25,-7.611c15.416,-5.534 35.69,-9.17 42.942,-6.404c0.59,0.227 2.508,1.242 0.607,4.029l-8.346,13.277c0,0 12.321,-2.075 14.074,-2.338c0.848,10.603 5.605,16.731 7.285,18.731l5.36,0l-1.492,-1.328c-0.312,-0.324 -6.802,-6.945 -6.802,-19.785z" fill="#FFFFFF"/>
   <path id="svg_12" d="m119.783,111.604c0.14,0.994 0.832,5.834 0.832,5.834l3.545,-1.281c8.699,-3.141 13.57,-6.588 16.248,-9.172c4.002,-0.35 18.666,-1.457 32.746,-0.067c11.103,1.101 20.207,0.829 26.847,0.203l0,-3.867c-4.495,0.3 -9.838,0.399 -16.116,0.058c-14.057,-0.77 -26.441,-3.22 -44.676,-0.353c-2.314,2.729 -6.363,6.042 -14.975,9.153l-1.112,-4.532c-5.138,0.842 -19.651,5.304 -23.816,22.049c0,0 -5.729,-8.18 -2.458,-20.996l-10.085,2.187c0,0 5.772,-8.108 0.817,-13.905c-10.669,-12.489 -46.225,-1.845 -46.225,-1.845c14.868,-23.185 -32.234,-6.495 -32.234,-6.495s7.006,-9.072 11.001,-19.415c3.971,-10.292 1.321,-16.399 -9.582,-16.144c-3.717,0.088 -7.245,0.404 -10.54,0.857l0,7.649c5.492,-0.541 9.283,0.246 10.742,2.259c1.482,2.047 1.002,6.1 -1.29,10.857c-2.848,5.902 -8.382,14.132 -9.452,15.71l0,6.065l3.355,-1.166c11.642,-4.047 26.314,-7.039 29.716,-4.813c0.784,0.514 1.208,1.123 1.374,1.967c0.542,2.828 -1.887,7.117 -2.786,8.398l-5.543,7.901l9.086,-3.253c14.521,-5.206 40.557,-11.176 48.603,-5.01c3.723,2.86 0.241,8.498 0.089,8.733l-3.573,5.687l6.632,-1.012c0,0 1.635,-0.253 3.243,-0.502c-0.019,0.521 -0.05,1.045 -0.05,1.545c0,12.838 6.49,19.459 6.802,19.784l1.492,1.328l2.943,0l0.739,-2.727c3.773,-14.942 12.69,-19.912 17.661,-21.669z" fill="#D2AA41"/>
   <path id="svg_13" d="m123.654,22.715c14.691,6.873 22.463,14.736 26.551,20.89l-0.859,-7.542c4.635,4.194 6,10.372 6.354,14.645c2.687,-2.046 3.792,-5.336 3.792,-5.336c0.488,3.817 0.105,6.678 -0.37,8.548c3.784,-0.393 10.161,-0.512 19.295,1.042l-1.866,1.681c4.986,0.772 10.354,1.998 15.487,3.961c0,0 -3.345,-0.073 -6.681,1.007c4.976,1.4 10.045,3.147 14.643,5.309l0,-3.501c-0.968,-0.417 -1.941,-0.819 -2.919,-1.204l2.919,-0.98l0,-1.657l-4.863,-1.9c-3.541,-1.381 -7.26,-2.521 -11.095,-3.445c0.737,-0.747 1.538,-1.562 1.538,-1.562l-5.48,-0.772c-8.436,-1.179 -14.256,-1.042 -17.681,-0.722c0.03,-0.738 0.054,-1.521 0.054,-2.308c0,-1.104 -0.041,-2.188 -0.156,-3.071l-0.918,-6.866c0,0 -3.332,4.551 -3.812,5.21c-1.101,-3.061 -2.905,-6.851 -6.204,-10.586l-5.912,-6.692l0.668,5.588c-5.315,-4.942 -12.676,-10.137 -22.769,-14.464c-22.89,-9.817 -51.906,-11.847 -79.605,-5.565c-12.446,2.823 -27.854,8.082 -43.765,17.826l0,6.672c39.215,-27.558 91.376,-29.291 123.654,-14.206z" fill="#D2AA41"/>
   <path id="svg_14" d="m113.624,65.27c0.135,-0.018 0.271,-0.034 0.405,-0.051c-0.134,0.017 -0.27,0.033 -0.405,0.051z"/>
   <path id="svg_15" d="m120.229,64.724c0.151,-0.006 0.305,-0.009 0.457,-0.014c-0.153,0.004 -0.306,0.008 -0.457,0.014z"/>
   <path id="svg_16" d="m121.751,64.684c0.147,-0.002 0.294,-0.006 0.442,-0.007c-0.147,0.001 -0.295,0.005 -0.442,0.007z"/>
   <path id="svg_17" d="m123.575,64.672c0.132,0 0.264,0.002 0.396,0.004c-0.132,-0.001 -0.264,-0.003 -0.396,-0.004z"/>
   <path id="svg_18" d="m125.166,64.696c0.104,0.002 0.208,0.004 0.312,0.007c-0.104,-0.003 -0.207,-0.004 -0.312,-0.007z"/>
   <path id="svg_19" d="m126.936,64.755c0.098,0.004 0.195,0.009 0.295,0.014c-0.1,-0.005 -0.198,-0.01 -0.295,-0.014z"/>
   <path id="svg_20" d="m128.641,64.844c0.03,0.002 0.062,0.003 0.094,0.005c-0.032,-0.001 -0.064,-0.003 -0.094,-0.005z"/>
   <path id="svg_21" d="m116.908,64.919c0.154,-0.013 0.309,-0.023 0.464,-0.035c-0.155,0.012 -0.31,0.022 -0.464,0.035z"/>
   <path id="svg_22" d="m108.617,66.151c0.132,-0.029 0.265,-0.058 0.396,-0.087c-0.131,0.029 -0.264,0.058 -0.396,0.087z"/>
   <path id="svg_23" d="m115.074,65.096c0.171,-0.019 0.343,-0.038 0.515,-0.055c-0.172,0.018 -0.343,0.037 -0.515,0.055z"/>
   <path id="svg_24" d="m111.814,65.539c0.16,-0.026 0.319,-0.052 0.479,-0.077c-0.159,0.025 -0.318,0.051 -0.479,0.077z"/>
   <path id="svg_25" d="m110.389,65.787c0.086,-0.016 0.174,-0.031 0.262,-0.047c-0.089,0.016 -0.176,0.031 -0.262,0.047z"/>
   <path id="svg_26" d="m118.387,64.815c0.17,-0.01 0.338,-0.021 0.508,-0.031c-0.17,0.009 -0.338,0.021 -0.508,0.031z"/>
   <path id="svg_27" d="m112.566,24.316c44.354,13.237 37.639,38.685 37.639,38.685s-3.582,0.225 -7.809,-7.67c-3.987,-7.454 -9.879,-8.412 -9.879,-8.412s4.353,-0.4 10.467,2.265c0,0 -8.588,-12.885 -33.104,-11.894c0,0 12.367,1.523 17.603,8.438c0,0 -16.651,-2.625 -31.633,5.127c0,0 13.363,-2.208 23.609,4.696c0,0 -15.366,-1.151 -23.8,7.604c7.506,-1.385 15.646,-1.839 24.169,-0.826c5.577,0.844 10.325,1.975 13.813,2.946c14.063,1.555 26.746,5.708 32.943,7.731l-9.34,-6.752l11.793,1.023l-6.338,-5.112c0,0 21.191,1.505 37.301,10.201l0,-5.446c-4.598,-2.162 -9.667,-3.909 -14.643,-5.309c3.336,-1.08 6.681,-1.007 6.681,-1.007c-5.134,-1.963 -10.501,-3.188 -15.487,-3.961l1.866,-1.681c-9.134,-1.554 -15.511,-1.435 -19.295,-1.042c0.476,-1.87 0.858,-4.73 0.37,-8.548c0,0 -1.105,3.29 -3.792,5.336c-0.354,-4.273 -1.72,-10.451 -6.354,-14.645l0.859,7.542c-4.088,-6.154 -11.859,-14.017 -26.551,-20.89c-32.278,-15.085 -84.439,-13.352 -123.654,14.206l0,6.604c27.089,-21.473 70.668,-31.711 112.566,-19.209zm20.058,36.663c-3.435,1.12 -7.248,-0.421 -8.519,-3.433c-1.271,-3.012 0.481,-6.359 3.916,-7.47c3.426,-1.116 7.242,0.421 8.517,3.435c1.269,3.009 -0.481,6.352 -3.914,7.468z"/>
   <path id="svg_28" d="m130.866,79.305c0.409,2.245 6.308,6.682 12.222,9.014c-4.227,-4.062 -0.556,-5.098 -0.556,-5.098c5.424,-0.443 34.718,2.117 57.468,8.11l0,-4.405c-14.062,-3.865 -33.746,-6.962 -55.021,-9.474c-10.23,-1.203 -14.547,-0.534 -14.113,1.853z"/>
   <path id="svg_29" d="m130.3,64.96c0.05,0.004 0.099,0.008 0.148,0.012c-0.05,-0.003 -0.098,-0.008 -0.148,-0.012z"/>
   <path id="svg_30" d="m65.562,74.805c-0.103,0.064 -0.359,0.228 -0.631,0.4c0.209,-0.139 0.42,-0.267 0.631,-0.4z"/>
   <path id="svg_31" d="m64.865,75.247c-0.304,0.194 -0.615,0.394 -0.745,0.479c0.248,-0.164 0.493,-0.324 0.745,-0.479z"/>
   <path id="svg_32" d="m137.62,99.243l0,0c0.004,-0.004 0.009,-0.011 0.019,-0.022c0.004,-0.005 0.008,-0.011 0.012,-0.016c-0.017,0.02 -0.025,0.031 -0.031,0.038z"/>
   <path id="svg_33" d="m20.122,69.16c-3.996,10.342 -11.001,19.415 -11.001,19.415s47.102,-16.689 32.234,6.495c0,0 35.556,-10.645 46.224,1.841c4.955,5.796 -0.817,13.905 -0.817,13.905l10.085,-2.187c-3.271,12.815 2.458,20.996 2.458,20.996c4.166,-16.745 18.677,-21.207 23.816,-22.049l1.111,4.532c8.61,-3.112 12.66,-6.426 14.976,-9.153c18.235,-2.867 30.619,-0.417 44.676,0.353c6.277,0.342 11.621,0.242 16.116,-0.058l0,-4.956c-2.771,0.184 -5.773,0.291 -9.042,0.311c-14.178,0.072 -26.81,-3.539 -43.933,-1.424l-5.738,-4.605c-0.775,1.99 -1.696,3.663 -2.422,4.835c-0.643,1.052 -1.113,1.666 -1.227,1.81c-0.008,0.01 -0.015,0.021 -0.022,0.032c-4.638,6.358 -9.816,7.654 -9.816,7.654c3.067,-7.755 -0.68,-13.294 -0.68,-13.294s-2.595,7.988 -13.843,12.693c-12.332,5.161 -14.246,12.69 -14.246,12.69s-0.449,-6.884 6.064,-14.119c2.098,-2.339 3.637,-4.278 4.606,-5.976l-13.787,3.771c9.25,-26.881 -44.133,-16.067 -44.133,-16.067c1.963,-2.785 5.748,-6.373 10.961,-9.955c-0.114,0.074 -0.231,0.158 -0.348,0.235c-1.039,0.058 -2.063,0.093 -3.061,0.093l-9.185,0.526c-5.454,0.282 -14.661,1.386 -17.721,1.776l-9.136,1.432c0,0 13.967,-22.341 4.751,-31.843c-5.462,-5.63 -19.711,-3.431 -28.042,-1.519l0,6.523c3.295,-0.453 6.823,-0.769 10.541,-0.857c10.902,-0.255 13.552,5.852 9.581,16.144z"/>
   <path id="svg_34" d="m140.797,93.716c-0.119,0.267 -0.236,0.521 -0.355,0.771c-0.015,0.029 -0.028,0.057 -0.043,0.086c-0.551,1.152 -1.084,2.104 -1.535,2.84c0.727,-1.172 1.646,-2.846 2.423,-4.835c-0.155,0.385 -0.308,0.739 -0.466,1.088c-0.009,0.016 -0.014,0.034 -0.024,0.05z" fill="#FFFFFF"/>
   <path id="svg_35" d="m169.038,67.278l-11.793,-1.023l9.34,6.752c-6.196,-2.024 -18.88,-6.176 -32.944,-7.731l0,0c-1.057,-0.117 -2.121,-0.219 -3.191,-0.304c-0.049,-0.004 -0.1,-0.008 -0.148,-0.012c-0.521,-0.041 -1.042,-0.078 -1.564,-0.111c-0.032,-0.002 -0.063,-0.003 -0.096,-0.005c-0.469,-0.029 -0.939,-0.054 -1.41,-0.076c-0.1,-0.004 -0.197,-0.009 -0.295,-0.014c-0.484,-0.021 -0.971,-0.039 -1.457,-0.052c-0.104,-0.003 -0.209,-0.004 -0.312,-0.007c-0.398,-0.01 -0.796,-0.016 -1.195,-0.02c-0.132,-0.001 -0.264,-0.003 -0.396,-0.004c-0.462,-0.002 -0.921,-0.001 -1.382,0.004c-0.147,0.001 -0.295,0.005 -0.442,0.007c-0.354,0.006 -0.71,0.015 -1.065,0.025c-0.152,0.005 -0.306,0.008 -0.457,0.014c-0.444,0.016 -0.89,0.037 -1.334,0.061c-0.17,0.009 -0.338,0.021 -0.509,0.031c-0.338,0.021 -0.676,0.044 -1.014,0.069c-0.155,0.012 -0.31,0.022 -0.464,0.035c-0.44,0.036 -0.881,0.078 -1.319,0.122c-0.172,0.018 -0.343,0.037 -0.515,0.055c-0.35,0.039 -0.696,0.08 -1.045,0.123c-0.135,0.017 -0.271,0.033 -0.405,0.051c-0.444,0.059 -0.888,0.124 -1.331,0.192c-0.16,0.025 -0.318,0.051 -0.479,0.077c-0.39,0.063 -0.778,0.13 -1.166,0.201c-0.088,0.016 -0.174,0.031 -0.263,0.047c-0.459,0.086 -0.917,0.18 -1.374,0.278c-0.132,0.029 -0.265,0.058 -0.396,0.087c-0.473,0.104 -0.942,0.213 -1.409,0.33c0,0 24.542,-0.274 35.739,6.409c-41.453,-6.765 -63.007,7.635 -63.007,7.635c23.317,-6.664 41.925,-4.825 48.037,-3.914c-9.807,2.341 1.737,9.521 8.793,13.272c0.101,0.247 0.219,0.525 0.344,0.83c0.881,2.132 2.154,5.574 0.507,8.529c0.006,-0.007 0.014,-0.019 0.028,-0.038c0.957,-1.317 1.893,-2.85 2.75,-4.633c0.015,-0.029 0.028,-0.057 0.043,-0.086c0.121,-0.252 0.238,-0.508 0.355,-0.771c0.01,-0.016 0.016,-0.034 0.023,-0.052c0.158,-0.352 0.314,-0.714 0.466,-1.088l5.737,4.605c17.125,-2.115 29.756,1.496 43.934,1.424c3.268,-0.02 6.27,-0.127 9.042,-0.311l0,-6.964c-22.75,-5.993 -52.044,-8.554 -57.468,-8.11c0,0 -3.67,1.037 0.556,5.098c-5.914,-2.332 -11.812,-6.769 -12.222,-9.015c-0.434,-2.386 3.882,-3.055 14.111,-1.853c21.276,2.512 40.959,5.607 55.021,9.474l0,-14.554c-16.109,-8.696 -37.301,-10.201 -37.301,-10.201l6.342,5.112z" fill="#FFFFFF"/>
   <path id="svg_36" d="m140.82,93.664c-0.008,0.018 -0.016,0.036 -0.023,0.052" fill="none"/>
   <path id="svg_37" d="m28.044,48.869c9.216,9.502 -4.751,31.843 -4.751,31.843l9.136,-1.433c-0.659,0.076 -1.035,0.13 -1.035,0.13c7.139,-24.977 13.581,-33.732 17.894,-38.014c2.563,-3.13 7.097,-5.248 10.73,-6.483c-24.428,1.161 -48.175,6.19 -48.175,6.19c15.363,-11.919 50.968,-20.248 71.5,-18.152c20.526,2.094 19.128,10.42 17.017,15.167c-1.708,3.84 -10.092,9.04 -17.98,10.72c8.165,1.068 12.79,7.366 9.865,13.658c-0.252,0.541 -0.542,1.061 -0.853,1.563c-1.088,0.259 -2.16,0.537 -3.217,0.831c-0.457,0.128 -0.911,0.26 -1.362,0.394c-0.064,0.019 -0.129,0.037 -0.193,0.056c-5.346,1.601 -10.259,3.627 -14.629,5.843c-0.009,0.004 -0.017,0.01 -0.026,0.014c-0.419,0.213 -0.833,0.427 -1.241,0.643c-0.042,0.021 -0.083,0.044 -0.125,0.067c-0.372,0.196 -0.739,0.395 -1.103,0.594c-0.077,0.042 -0.152,0.084 -0.229,0.126c-0.291,0.162 -0.578,0.323 -0.863,0.484c-0.155,0.09 -0.31,0.182 -0.464,0.271c-0.298,0.169 -0.594,0.345 -0.887,0.521c-0.224,0.129 -0.45,0.261 -0.674,0.4c-0.274,0.167 -0.547,0.338 -0.816,0.504c-0.211,0.133 -0.422,0.264 -0.631,0.4c-0.022,0.016 -0.044,0.027 -0.067,0.042c-0.252,0.155 -0.497,0.315 -0.745,0.479c-0.217,0.139 -0.438,0.282 -0.655,0.428c-0.241,0.169 -0.483,0.332 -0.721,0.496c-5.213,3.582 -8.999,7.17 -10.961,9.955c0,0 53.383,-10.812 44.133,16.067l13.787,-3.771c-0.969,1.697 -2.508,3.637 -4.605,5.976c-6.515,7.235 -6.065,14.119 -6.065,14.119s1.915,-7.529 14.247,-12.69c11.248,-4.705 13.842,-12.693 13.842,-12.693s3.747,5.539 0.68,13.294c0,0 5.379,-1.296 10.016,-7.654l0.182,0.002l0,-0.256l-0.2,0c1.601,-3 0.284,-6.275 -0.597,-8.407c-0.125,-0.305 -0.289,-0.522 -0.389,-0.769c-7.056,-3.752 -18.623,-10.902 -8.815,-13.243c-6.108,-0.911 -24.729,-2.735 -48.047,3.929c0,0 21.549,-14.392 63.003,-7.627c-11.199,-6.684 -35.744,-6.405 -35.744,-6.405c0.467,-0.117 0.938,-0.223 1.408,-0.328c0.132,-0.029 0.264,-0.057 0.396,-0.086c0.457,-0.098 0.914,-0.191 1.373,-0.277c0.086,-0.016 0.174,-0.03 0.26,-0.046c0.389,-0.071 0.776,-0.138 1.166,-0.201c0.16,-0.026 0.319,-0.052 0.479,-0.077c0.442,-0.068 0.886,-0.133 1.331,-0.192c0.135,-0.018 0.271,-0.034 0.406,-0.051c0.348,-0.043 0.695,-0.084 1.044,-0.123c0.172,-0.019 0.343,-0.038 0.515,-0.055c0.439,-0.044 0.879,-0.086 1.319,-0.122c0.153,-0.013 0.309,-0.023 0.464,-0.035c0.337,-0.025 0.676,-0.049 1.014,-0.069c0.17,-0.01 0.34,-0.021 0.51,-0.031c0.443,-0.024 0.889,-0.044 1.332,-0.061c0.152,-0.006 0.306,-0.01 0.459,-0.014c0.354,-0.011 0.709,-0.02 1.064,-0.025c0.146,-0.002 0.294,-0.006 0.441,-0.007c0.461,-0.005 0.922,-0.007 1.383,-0.004c0.132,0 0.264,0.002 0.396,0.004c0.397,0.004 0.797,0.01 1.194,0.021c0.104,0.002 0.208,0.004 0.312,0.007c0.486,0.013 0.973,0.031 1.457,0.052c0.099,0.004 0.196,0.009 0.295,0.014c0.472,0.022 0.941,0.047 1.412,0.076c0.03,0.002 0.062,0.003 0.094,0.005c0.522,0.033 1.045,0.07 1.565,0.111c0.05,0.004 0.099,0.008 0.148,0.012c1.069,0.085 2.136,0.187 3.192,0.304l0,0c-3.488,-0.971 -8.236,-2.103 -13.813,-2.946c-8.522,-1.013 -16.663,-0.559 -24.169,0.826c8.434,-8.755 23.8,-7.604 23.8,-7.604c-10.246,-6.904 -23.609,-4.696 -23.609,-4.696c14.982,-7.753 31.633,-5.127 31.633,-5.127c-5.235,-6.915 -17.603,-8.438 -17.603,-8.438c24.517,-0.992 33.104,11.894 33.104,11.894c-6.114,-2.666 -10.467,-2.265 -10.467,-2.265s5.892,0.958 9.879,8.412c4.228,7.895 7.809,7.67 7.809,7.67s6.715,-25.448 -37.639,-38.685c-41.897,-12.507 -85.476,-2.269 -112.565,19.204l0,3.825c8.331,-1.912 22.58,-4.111 28.044,1.519z" fill="#2C2D8B"/>
   <path id="svg_38" d="m137.648,99.205c-0.004,0.005 -0.006,0.011 -0.01,0.016c0.112,-0.144 0.582,-0.758 1.225,-1.81c0.451,-0.735 0.984,-1.688 1.535,-2.841c-0.857,1.784 -1.793,3.317 -2.75,4.635z" fill="#231F20"/>
   <path id="svg_39" d="m140.441,94.484c0.119,-0.248 0.236,-0.502 0.355,-0.77c-0.116,0.265 -0.234,0.52 -0.355,0.77z" fill="#231F20"/>
   <path id="svg_40" d="m140.398,94.57c0.015,-0.028 0.028,-0.057 0.043,-0.086c-0.014,0.032 -0.028,0.058 -0.043,0.086z" fill="#231F20"/>
   <path id="svg_41" d="m137.609,99.256l0.006,-0.003c0.008,-0.011 0.015,-0.022 0.023,-0.032c-0.01,0.012 -0.016,0.019 -0.02,0.022s-0.009,0.013 -0.009,0.013z" fill="#231F20"/>
   <path id="svg_42" d="m141.287,92.576c-0.15,0.374 -0.307,0.736 -0.465,1.088c0.157,-0.35 0.31,-0.703 0.465,-1.088z" fill="#231F20"/>
   <path id="svg_43" d="m70.724,71.837c-0.042,0.022 -0.083,0.044 -0.125,0.067c0.041,-0.022 0.083,-0.045 0.125,-0.067z" fill="#FFFFFF"/>
   <path id="svg_44" d="m71.991,71.182c-0.009,0.004 -0.017,0.01 -0.026,0.014c0.009,-0.007 0.017,-0.01 0.026,-0.014z" fill="#FFFFFF"/>
   <path id="svg_45" d="m64.12,75.727c0.13,-0.086 0.44,-0.285 0.745,-0.479c0.022,-0.015 0.044,-0.028 0.067,-0.042c0.271,-0.173 0.528,-0.335 0.631,-0.4c0.269,-0.166 0.542,-0.337 0.816,-0.504c0.224,-0.14 0.45,-0.271 0.674,-0.4c0.293,-0.176 0.588,-0.352 0.887,-0.521c0.155,-0.089 0.31,-0.181 0.464,-0.271c-0.879,0.5 -1.734,1.004 -2.559,1.513c-2.215,0.248 -4.41,0.364 -6.494,0.364l-7.939,0.34c0,0 -7.567,0.396 -15.917,1.277c4.858,-15.447 10.955,-28.417 16.606,-33.411c6.483,-6.186 14.933,-7.083 16.606,-6.976c-1.95,3.208 -3.896,6.907 -6.5,13.235c0,0 11.324,-0.797 19.079,1.014c5.893,1.378 7.762,3.242 8.7,6.035c0.625,1.846 0.523,4.175 -0.35,6.046c-0.38,0.82 -0.851,1.592 -1.399,2.324c-0.021,0.006 -0.042,0.013 -0.063,0.019c1.057,-0.294 2.129,-0.572 3.217,-0.831c0.311,-0.502 0.601,-1.022 0.853,-1.563c2.925,-6.292 -1.7,-12.59 -9.865,-13.658c7.888,-1.681 16.272,-6.88 17.98,-10.72c2.112,-4.748 3.509,-13.073 -17.017,-15.167c-20.531,-2.096 -56.137,6.233 -71.5,18.152c0,0 23.747,-5.029 48.175,-6.19c-3.633,1.235 -8.167,3.354 -10.73,6.483c-4.313,4.282 -10.755,13.037 -17.894,38.014c0,0 0.376,-0.053 1.035,-0.129c3.061,-0.391 12.268,-1.494 17.721,-1.776l9.185,-0.526c0.997,0 2.022,-0.035 3.061,-0.093c0.117,-0.077 0.234,-0.163 0.348,-0.235c0.238,-0.164 0.48,-0.328 0.721,-0.496c0.218,-0.146 0.439,-0.291 0.656,-0.428zm6.156,-28.727l-3.682,0c2.281,-5 4.099,-8.386 5.362,-10.291c1.304,-1.974 2.015,-2.529 2.015,-2.529l4.12,0.003c3.968,0.421 5.85,3.508 3.395,7.8c-1.12,1.939 -3.395,3.509 -6.332,4.38c-1.48,0.442 -3.125,0.637 -4.878,0.637zm-47.96,-9.438c17.457,-8.519 37.954,-10.608 42.174,-11.168c10.656,-1.429 19.079,-0.283 19.079,-0.283c8.317,0.419 12.999,2.288 14.919,5.436c0.942,1.546 0.876,3.497 -0.29,5.929c-1.596,3.333 -8.542,7.632 -16.191,9.268l-5.119,1.09c4.442,-1.807 5.971,-3.561 7.272,-5.228c2.372,-3.021 2.021,-5.491 0.762,-7.556c-1.214,-1.987 -4.382,-3.002 -7.798,-3.002c0,0 -5.275,-0.152 -10.078,0.021c-11.424,0.414 -29.463,1.774 -44.73,5.493z" fill="#FFFFFF"/>
   <path id="svg_46" d="m76.559,63.836c1.777,-3.973 2.034,-7.17 0.597,-9.52c-0.915,-1.508 -2.916,-3.316 -7.267,-3.316l-8.429,0c0,0 -4.562,8.364 -8.709,21.521l9.568,-0.353c2.495,0.001 10.81,-0.672 14.24,-8.332zm-10.513,5.478c-1.387,0.354 -2.73,0.686 -3.861,0.686l-5.248,0c0,0 2.108,-6.87 5.496,-14.04c0.417,-0.883 0.852,-1.96 1.308,-2.96l6.072,0c4.884,0 7.601,2.949 4.553,9.506c-1.851,3.98 -5.212,6.041 -8.32,6.808z" fill="#FFFFFF"/>
   <path id="svg_47" d="m69.496,72.498c-0.077,0.042 -0.152,0.084 -0.229,0.126c0.077,-0.041 0.152,-0.083 0.229,-0.126z" fill="#FFFFFF"/>
   <path id="svg_48" d="m86.813,65.283c-0.064,0.019 -0.129,0.037 -0.193,0.056c0.064,-0.019 0.129,-0.037 0.193,-0.056z" fill="#FFFFFF"/>
   <path id="svg_49" d="m81.486,41.992c2.455,-4.292 0.573,-7.372 -3.395,-7.792l-4.12,0.012c0,0 -0.711,0.586 -2.015,2.56c4.792,0.038 6.742,2.432 4.206,7.877c-0.319,0.69 -0.656,1.28 -1.008,1.782c2.937,-0.871 5.212,-2.5 6.332,-4.439z"/>
   <path id="svg_50" d="m69.813,53l-6.072,0c-0.456,1 -0.891,1.8 -1.308,3l2.057,0c4.887,0 7.601,2.671 4.554,9.227c-0.776,1.675 -1.822,2.923 -2.998,3.917c3.108,-0.768 6.469,-2.744 8.32,-6.724c3.049,-6.556 0.331,-9.42 -4.553,-9.42z"/>
   <path id="svg_51" d="m69.044,65.227c3.047,-6.556 0.333,-9.227 -4.554,-9.227l-2.057,0c-3.388,7.2 -5.496,14 -5.496,14l5.248,0c1.132,0 2.474,-0.293 3.861,-0.646c1.176,-0.997 2.222,-2.452 2.998,-4.127z" fill="#2C2D8B"/>
   <path id="svg_52" d="m71.956,36.709c-1.263,1.905 -3.081,5.291 -5.362,10.291l3.682,0c1.753,0 3.398,-0.191 4.878,-0.631c0.352,-0.502 0.688,-1.092 1.008,-1.782c2.536,-5.445 0.587,-7.839 -4.206,-7.878z" fill="#2C2D8B"/>
   <path id="svg_53" d="m77.125,32.048c3.416,0 6.583,1.015 7.798,3.002c1.259,2.065 1.609,4.536 -0.762,7.556c-1.301,1.667 -2.83,3.421 -7.272,5.228l5.119,-1.09c7.649,-1.636 14.595,-5.935 16.191,-9.268c1.166,-2.432 1.231,-4.383 0.29,-5.929c-1.92,-3.148 -6.602,-5.017 -14.919,-5.436c0,0 -8.422,-1.146 -19.079,0.283c-4.22,0.561 -24.716,2.649 -42.173,11.168c15.266,-3.719 33.306,-5.079 44.73,-5.493c4.801,-0.173 10.077,-0.021 10.077,-0.021z" fill="#D2AA41"/>
   <path id="svg_54" d="m89.638,62.547c0.873,-1.872 0.975,-4.201 0.35,-6.046c-0.938,-2.793 -2.807,-4.656 -8.7,-6.035c-7.754,-1.812 -19.079,-1.014 -19.079,-1.014c2.605,-6.328 4.551,-10.027 6.5,-13.235c-1.673,-0.107 -10.124,0.79 -16.606,6.976c-5.652,4.993 -11.749,17.962 -16.606,33.411c8.35,-0.881 15.917,-1.277 15.917,-1.277l7.939,-0.34c2.084,0 4.278,-0.116 6.494,-0.364c0.824,-0.508 1.679,-1.013 2.559,-1.513c0.285,-0.162 0.573,-0.323 0.863,-0.484c0.077,-0.042 0.152,-0.084 0.229,-0.126c0.363,-0.199 0.731,-0.397 1.103,-0.594c0.042,-0.022 0.083,-0.046 0.125,-0.067c0.409,-0.216 0.822,-0.43 1.241,-0.643c0.009,-0.004 0.017,-0.008 0.026,-0.014c4.371,-2.216 9.284,-4.242 14.629,-5.843c0.064,-0.019 0.129,-0.037 0.193,-0.056c0.451,-0.134 0.905,-0.266 1.362,-0.394c0.021,-0.006 0.042,-0.013 0.063,-0.019c0.547,-0.73 1.018,-1.503 1.398,-2.323zm-27.319,9.637l-9.568,0.338c4.148,-13.158 8.709,-21.522 8.709,-21.522l8.429,0c4.351,0 6.352,1.808 7.267,3.316c1.437,2.35 1.18,5.534 -0.597,9.506c-3.43,7.658 -11.745,8.362 -14.24,8.362z" fill="#D2AA41"/>
   <path id="svg_55" d="m128.021,50.076c-3.435,1.111 -5.188,4.458 -3.916,7.47c1.271,3.012 5.084,4.553 8.519,3.433c3.433,-1.116 5.183,-4.46 3.914,-7.468c-1.274,-3.014 -5.091,-4.551 -8.517,-3.435zm-2.061,7.165c-0.962,-2.279 0.418,-4.813 3.078,-5.678c1.685,-0.545 3.479,-0.285 4.808,0.552c-0.974,-0.217 -2.033,-0.177 -3.058,0.154c-2.653,0.868 -4.037,3.407 -3.08,5.67c0.354,0.835 0.972,1.515 1.74,2c-1.559,-0.335 -2.901,-1.306 -3.488,-2.698zm8.049,2.613c-1.909,0.683 -4.018,-0.219 -4.71,-2.029c-0.689,-1.801 0.305,-3.818 2.213,-4.499c1.916,-0.69 4.022,0.214 4.713,2.02c0.69,1.805 -0.3,3.822 -2.216,4.508z" fill="#DA2128"/>
   <path id="svg_56" d="m127.708,57.939c-0.957,-2.263 0.426,-4.803 3.08,-5.67c1.024,-0.331 2.084,-0.371 3.058,-0.154c-1.328,-0.836 -3.123,-1.097 -4.808,-0.552c-2.66,0.864 -4.041,3.398 -3.078,5.678c0.587,1.392 1.929,2.363 3.488,2.698c-0.768,-0.484 -1.386,-1.164 -1.74,-2z" fill="#FFFFFF"/>
   <path id="svg_57" d="m131.512,53.327c-1.908,0.681 -2.902,2.698 -2.213,4.499c0.692,1.81 2.801,2.712 4.71,2.029c1.916,-0.687 2.906,-2.703 2.216,-4.508c-0.691,-1.806 -2.798,-2.71 -4.713,-2.02z"/>
  </g>
 </g>
</svg>