<svg width="200" height="136" xmlns="http://www.w3.org/2000/svg" xmlns:svg="http://www.w3.org/2000/svg">
 <g>
  <title>Layer 1</title>
  <path id="svg_1" d="m200,128c0,4.418 -3.582,8 -8,8l-184,0c-4.418,0 -8,-3.582 -8,-8l0,-120c0,-4.418 3.582,-8 8,-8l184,0c4.418,0 8,3.582 8,8l0,120z" fill="#a28d5b"/>
  <path id="svg_3" d="m-31.184,114.098c0,0 -10.793,2.992 -10.779,3.074l-2.665,-10.881c-0.41,-1.555 -4.331,-15.175 -16.606,-14.898c-8.516,0.193 -15.562,7.738 -19.088,12.606c1.15,3.446 1.771,7.567 1.196,12.008l4.792,-6.416l8.708,6.255c5.056,3.748 11.597,11.154 13.73,20.154l32.896,0c4.418,0 8,-3.182 8,-7.602l0,-28.334c-4.745,6.711 -11.732,11.695 -20.184,14.034z" fill="none"/>
  <path id="svg_4" d="m-156.285,115.96l8.694,-6.381l4.805,6.462c-0.58,-4.441 0.028,-8.542 1.169,-11.982c-3.535,-4.865 -10.6,-12.379 -19.115,-12.554c-12.271,-0.249 -16.169,13.386 -16.552,14.863l-2.642,10.889l-10.808,-2.967c-8.483,-2.332 -15.502,-7.324 -20.266,-14.061l0,28.171c0,4.418 3.582,7.6 8,7.6l33.07,0c2.143,-9 8.621,-16.298 13.645,-20.04z" fill="none"/>
  <path id="svg_5" d="m-195.565,42.047c19.152,-11.185 38.032,-8.644 52.365,-2.297c0.617,-4.713 1.841,-9.882 3.871,-15.939c2.835,-8.454 5.927,-16.566 8.708,-23.811l-72.379,0c-4.418,0 -8,3.582 -8,8l0,48.403c3.754,-5.645 8.973,-10.577 15.435,-14.356z" fill="none"/>
  <path id="svg_6" d="m-78.887,39.663c14.316,-6.379 33.191,-8.957 52.367,2.187c6.5,3.779 11.748,8.726 15.521,14.392l0,-48.242c0,-4.418 -3.582,-8 -8,-8l-72.538,0c2.794,7.229 5.898,15.31 8.744,23.746c2.047,6.044 3.277,11.208 3.906,15.917z" fill="none"/>
  <path fill="black" id="svg_7" d="m145.30613,115.846l-8.708,-6.354l-4.792,6.466c0.576,-4.441 -0.045,-8.536 -1.196,-11.982c3.525,-4.869 10.572,-12.401 19.088,-12.595c12.275,-0.276 16.196,13.351 16.606,14.905l2.665,10.885c-0.016,-0.082 10.779,-3.074 10.779,-3.074c8.451,-2.338 15.438,-7.32 20.184,-14.031l0,-43.825c-3.771,-5.667 -9.02,-10.613 -15.521,-14.392c-19.176,-11.143 -38.051,-8.566 -52.365,-2.187c-0.631,-4.708 -1.859,-9.873 -3.908,-15.917c-2.845,-8.435 -5.949,-16.516 -8.744,-23.745l-7.933,0c0.164,0.422 0.326,0.844 0.492,1.271c2.905,7.507 6.201,16.013 9.18,24.833c2.867,8.482 4.018,14.912 4.018,20.877c0,1.841 -0.207,3.632 -0.408,5.436c10.898,-7.53 32.422,-17.863 55.955,-4.179c13.059,7.595 20.09,20.67 18.359,34.13c-1.542,11.971 -9.697,21.401 -21.283,24.614l-3.443,0.943l-0.864,-3.461c-0.212,-0.852 -5.427,-20.873 -23.938,-20.458c-14.891,0.331 -24.598,14.847 -27.222,19.304c1.265,2.319 2.315,5.521 2.315,9.205c0,3.916 -1.33,8.368 -4.713,12.838c1.361,1.836 3.594,4.086 6.189,4.297c3.71,0.3 7.457,-3.617 9.941,-6.949l2.076,-2.785l2.791,1.867c3.474,2.576 8.308,8.218 10.369,14.218l7.758,0c-2.13,-9.001 -8.671,-16.407 -13.727,-20.155z"/>
  <path fill="black" id="svg_8" d="m59.27374,122.06698l2.78,-1.977l2.085,2.826c2.49,3.332 6.242,7.26 9.951,6.957c2.596,-0.217 4.824,-2.465 6.187,-4.305c-3.411,-4.479 -4.746,-8.938 -4.746,-12.865c0,-3.662 1.036,-6.85 2.288,-9.164c-2.628,-4.45 -12.368,-18.935 -27.267,-19.233c-18.507,-0.373 -23.676,19.659 -23.888,20.511l-0.856,3.475l-3.443,-0.942c-11.594,-3.186 -19.773,-12.604 -21.343,-24.57c-1.763,-13.455 5.243,-26.544 18.286,-34.17c23.483,-13.726 45.015,-3.466 55.946,4.036c-0.226,-1.854 -0.441,-3.7 -0.441,-5.587c0,-5.901 1.159,-12.229 4.004,-20.717c2.96,-8.837 6.237,-17.357 9.127,-24.878c0.166,-0.432 0.33,-0.858 0.494,-1.285l-7.922,0c-2.782,7.245 -5.874,15.357 -8.708,23.811c-2.03,6.058 -3.254,11.226 -3.871,15.939c-14.333,-6.347 -33.213,-8.888 -52.365,2.297c-6.463,3.778 -11.682,8.71 -15.436,14.355l0,43.826c4.764,6.737 11.783,11.731 20.268,14.062l10.808,2.968l2.642,-10.885c0.382,-1.478 4.281,-15.106 16.552,-14.856c8.515,0.174 15.58,7.7 19.115,12.564c-1.141,3.441 -1.749,7.566 -1.169,12.008l-4.805,-6.412l-8.694,6.281c-5.026,3.743 -11.504,11.041 -13.647,20.041l7.761,0c2.073,-6 6.861,-11.544 10.307,-14.111z"/>
  <path fill="#ffffff" id="svg_11" d="m89.98387,124.50187c-11.24,-9.551 -3.157,-20.865 -3.157,-20.865c-0.746,-9.385 -18.434,-28.275 -36.09,-28.238c-24.008,0.046 -30.976,21.699 -30.976,21.699c-23.801,-17.311 -2.356,-46.613 23.4,-46.64c25.762,-0.032 46.952,29.173 46.952,29.173c-0.925,-4.777 -11.99,-26.288 -2.085,-52.053c4.893,-12.728 7.858,-21.69 9.608,-27.51l-5.54,0c-3.166,8.25 -6.782,17.517 -10.047,27.267c-5.136,15.336 -4.382,23.18 -1.804,33.665c0,0 -27.64,-27.971 -59.251,-9.495c-24.914,14.563 -20.459,46.146 2.223,52.377c0,0 5.721,-23.603 27.34,-23.16c18.76,0.373 30.516,20.795 31.211,22.857c0,0 -7.903,10.313 2.688,21.701c0,0 -9.265,18.027 -23.175,-0.535c0,0 -6.098,5.322 -8.749,11.322l5.609,0c1.324,-2 2.868,-4.622 2.868,-4.622c1.886,2.062 3.713,3.622 5.471,4.622l13.483,0c6.251,-3.999 10.021,-11.565 10.021,-11.565z"/>
  <path fill="#ffffff" id="svg_12" d="m138.83013,124.59912c-13.869,18.596 -23.176,0.497 -23.176,0.497c10.563,-11.416 2.639,-21.657 2.639,-21.657c0.689,-2.066 12.404,-22.492 31.16,-22.911c21.619,-0.487 27.392,23.113 27.392,23.113c22.668,-6.282 27.05,-37.878 2.103,-52.376c-31.652,-18.406 -59.23,9.636 -59.23,9.636c2.568,-10.494 3.295,-18.335 -1.878,-33.663c-3.288,-9.734 -6.924,-18.98 -10.105,-27.215l-5.541,0c1.764,5.817 4.747,14.771 9.666,27.474c9.965,25.744 -1.044,47.28 -1.96,52.067c0,0 21.122,-29.255 46.878,-29.283c25.756,-0.032 47.274,29.241 23.51,46.607c0,0 -7.014,-21.605 -31.026,-21.605c-17.66,0.006 -35.302,18.991 -36.024,28.371c0,0 8.109,11.192 -3.098,20.771c0,0 3.822,7.598 10.134,11.598l13.234,0c1.801,-1 3.675,-2.598 5.61,-4.725c0,0 1.59,2.725 2.932,4.725l5.602,0c-2.644,-7 -8.822,-11.424 -8.822,-11.424z"/>
  <path id="svg_13" d="m110.20248,124.402c11.208,-9.579 3.097,-20.873 3.097,-20.873c0.723,-9.379 18.365,-28.315 36.025,-28.32c24.013,0 31.027,21.63 31.027,21.63c23.764,-17.366 2.246,-46.627 -23.51,-46.595c-25.758,0.028 -46.879,29.29 -46.879,29.29c0.916,-4.787 11.926,-26.32 1.961,-52.063c-4.92,-12.703 -7.904,-21.654 -9.666,-27.471l-4.693,0c-1.75,5.82 -4.716,14.785 -9.608,27.512c-9.905,25.766 1.16,47.279 2.085,52.056c0,0 -21.19,-29.198 -46.952,-29.167c-25.757,0.027 -47.201,29.342 -23.4,46.654c0,0 6.968,-21.63 30.976,-21.676c17.656,-0.037 35.345,18.903 36.09,28.289c0,0 -8.083,11.215 3.157,20.766c0,0 -3.771,7.566 -10.021,11.566l40.444,0c-6.312,-4 -10.133,-11.598 -10.133,-11.598z" fill="#000000"/>
  <path id="svg_14" d="m133.47515,136l8.542,0c-1.342,-2 -2.932,-4.725 -2.932,-4.725c-1.935,2.127 -3.808,3.725 -5.61,4.725z" fill="#000000"/>
  <path id="svg_15" d="m61.03998,131.378c0,0 -1.544,2.622 -2.868,4.622l8.338,0c-1.757,-1 -3.583,-2.562 -5.47,-4.622z" fill="#000000"/>
 </g>
</svg>