<svg width="200" height="136" xmlns="http://www.w3.org/2000/svg" xmlns:svg="http://www.w3.org/2000/svg">
 <g>
  <title>Layer 1</title>
  <path id="svg_1" d="m200,128c0,4.418 -3.582,8 -8,8l-184,0c-4.418,0 -8,-3.582 -8,-8l0,-120c0,-4.418 3.582,-8 8,-8l184,0c4.418,0 8,3.582 8,8l0,120z" fill="#001433"/>
  <g id="svg_14">
   <path id="svg_3" d="m144.949,36.165c6.779,0.723 28.658,3.615 46.687,12.237c3.106,1.484 5.899,3.185 8.364,5.08l0,-45.482c0,-4.418 -3.582,-8 -8,-8l-184,0c-4.418,0 -8,3.582 -8,8l0,11.971c33.963,-0.06 91.034,-0.185 91.797,-0.188c19.946,0 40.098,2.063 53.152,16.382z" fill="none"/>
   <path id="svg_4" d="m176.734,136l15.266,0c4.418,0 8,-3.182 8,-7.602l0,-16.112c-12.055,17.25 -22.509,23.714 -23.266,23.714z" fill="none"/>
   <path id="svg_5" d="m164.575,118.286c-13.621,-2.724 -31.505,-3.447 -39.058,-3.447l-125.517,0.027l0,13.532c0,4.42 3.582,7.602 8,7.602l157.811,0c1.797,-2 3.707,-5.956 4.723,-9.379c2.266,-7.633 -5.959,-8.335 -5.959,-8.335z" fill="none"/>
   <path id="svg_6" d="m142.458,41.105c0,0 26.401,2.125 46.956,11.952c4.263,2.039 7.793,4.463 10.586,7.229l0,-6.804c-2.465,-1.895 -5.258,-3.596 -8.364,-5.08c-18.028,-8.623 -39.907,-11.515 -46.687,-12.237c-13.055,-14.319 -33.206,-16.382 -53.151,-16.382c-0.764,0.003 -57.835,0.128 -91.798,0.188l0,5.156c34.202,-0.061 91.797,-0.188 91.797,-0.188c19.676,0 39.141,2.088 50.661,16.166z" fill="#FFFFFF"/>
   <path id="svg_7" d="m200,112.286l0,-9.399c-0.341,0.565 -0.689,1.131 -1.055,1.702c-13.107,20.55 -26.346,29.267 -26.346,29.267s12.756,-16.676 -7.02,-20.633c-14.891,-2.974 -33.964,-3.543 -40.062,-3.543c-7.014,0 -69.705,0.144 -77.524,0.144c-7.823,0 -9.981,-1.067 -11.699,-3.427c-1.712,-2.354 -2.012,-5.573 1.197,-10.396c3.22,-4.822 8.109,-12.374 8.109,-12.374l-21.134,-17.005c17.732,-17.695 31.895,-23.63 44.261,-23.63c12.54,0 18.063,1.844 38.7,10.502c20.642,8.665 27.462,-0.549 27.462,-0.549c-8.664,3.685 -16.404,0.549 -30.968,-5.896c-14.557,-6.453 -23.219,-9.398 -36.296,-9.398c-13.086,0 -24.14,3.682 -37.989,13.871c-12.079,8.882 -13.817,11.227 -29.636,11.523l0,8.539c11.969,0.01 15.108,0.73 21.669,5.823c6.608,5.134 12.523,10.237 12.523,10.237c-7.509,13.034 -10.488,16.356 -5.214,22.356c0,0 -13.042,0 -28.978,0l0,4.866l125.52,-0.027c7.551,0 25.436,0.724 39.057,3.447c0,0 8.225,0.703 5.958,8.335c-1.015,3.423 -2.925,7.379 -4.724,9.379l10.926,0c0.754,0 11.208,-6.464 23.263,-23.714z" fill="#FFFFFF"/>
   <path id="svg_8" d="m67.625,37.65c13.077,0 21.74,2.945 36.296,9.398c14.562,6.445 22.304,9.581 30.968,5.896c0,0 -6.82,9.214 -27.462,0.549c-20.637,-8.659 -26.161,-10.502 -38.7,-10.502c-12.366,0 -26.529,5.935 -44.261,23.63l21.134,17.005c0,0 -4.89,7.551 -8.109,12.374c-3.208,4.823 -2.909,8.043 -1.197,10.396c1.718,2.359 3.876,3.427 11.699,3.427c7.821,0 70.512,-0.144 77.524,-0.144c6.099,0 25.172,0.569 40.062,3.543c19.775,3.957 7.02,20.633 7.02,20.633s13.238,-8.717 26.346,-29.267c0.365,-0.569 0.714,-1.137 1.055,-1.702l0,-42.6c-2.792,-2.766 -6.323,-5.191 -10.586,-7.229c-20.555,-9.827 -46.956,-11.952 -46.956,-11.952c-11.521,-14.078 -30.985,-16.166 -50.661,-16.166c0,0 -57.595,0.127 -91.797,0.188l0,37.918c15.819,-0.297 17.557,-2.641 29.636,-11.525c13.849,-10.188 24.903,-13.87 37.989,-13.87zm19.509,16.034c2.049,0.715 4.153,1.502 6.244,2.323c-0.289,0.412 -0.532,0.843 -0.698,1.303c-1.16,3.13 1.194,6.098 5.276,6.619c3.103,0.401 6.306,-0.734 8.16,-2.69c0.397,0.163 0.799,0.325 1.183,0.482c0.401,0.16 0.778,0.289 1.172,0.438c-1.906,3.256 -4.367,4.808 -13.435,4.035c-14.555,-1.228 -12.094,-5.726 -7.902,-12.51zm-10.27,-2.252c-1.163,2.112 -2.312,4.214 -2.984,5.45c0.02,0.009 0.072,0.009 0.072,0.009c-2.454,4.371 -7.891,13.251 13.185,14.683c18.116,1.238 24.501,-1.073 29.353,-7.837c2.785,0.35 5.729,0.375 8.996,-0.034c-1.738,3.786 -6.312,12.297 -25.243,12.297c-11.195,0 -16.575,0 -20.36,0c-10.893,0 -18.923,-1.234 -30.961,-13.145c-0.001,0 11.793,-12.421 27.942,-11.423zm28.719,45.015c-15.078,-0.869 -24.432,1.553 -29.029,8.553l-7.763,0c6.364,-11 17.2,-13.486 29.607,-13.523c25.388,-0.082 61.915,8.565 82.413,20.564c-16.623,-6.193 -38.018,-13.439 -75.228,-15.594zm46.161,-47.347c0,0 -7.992,5.414 1.355,7.65c18.69,2.589 55.262,9.438 30.621,50.816c-17.326,-9.017 -50.113,-20.789 -91.24,-20.812c-17.995,1.016 -24.866,4.246 -33.964,18.246l-9.956,0c8.449,-15 16.659,-24 34.287,-24c8.824,0 16.592,0 21.766,0c12.709,0 19.412,0.966 26.854,-14.009c0.228,-0.451 0.449,-0.795 0.665,-1.213c1.154,-3.069 6.16,-13.96 19.612,-16.678z" fill="#001433"/>
   <path id="svg_9" d="m131.467,66.991c-7.444,14.975 -14.145,14.009 -26.854,14.009c-5.174,0 -12.942,0 -21.766,0c-17.628,0 -25.838,9 -34.287,24l9.956,0c9.099,-14 15.969,-17.23 33.965,-18.244c41.126,0.021 73.914,11.809 91.24,20.825c24.643,-41.38 -11.93,-48.235 -30.621,-50.825c-9.348,-2.236 -1.355,-7.653 -1.355,-7.653c-13.453,2.718 -18.458,13.607 -19.612,16.676c-0.216,0.418 -0.44,0.761 -0.666,1.212z" fill="#FFFFFF"/>
   <path id="svg_10" d="m68.791,105l7.763,0c4.598,-7 13.951,-9.422 29.03,-8.553c37.21,2.154 58.605,9.347 75.229,15.541c-20.498,-11.999 -57.024,-20.565 -82.414,-20.484c-12.408,0.036 -23.244,2.496 -29.608,13.496z" fill="#FFFFFF"/>
   <path id="svg_11" d="m100.243,76c18.932,0 23.505,-8.511 25.241,-12.298c-3.267,0.409 -6.209,0.38 -8.996,0.03c-4.85,6.764 -11.235,9.079 -29.352,7.838c-21.074,-1.43 -15.638,-10.311 -13.184,-14.681c0,0 -0.053,0.001 -0.072,-0.008c0.672,-1.236 1.821,-3.337 2.984,-5.45c-16.149,-0.998 -27.943,11.424 -27.943,11.424c12.038,11.911 20.069,13.145 30.961,13.145c3.786,0 9.166,0 20.361,0z" fill="#FFFFFF"/>
   <path id="svg_12" d="m95.036,66.193c9.067,0.773 11.528,-0.779 13.435,-4.035c-0.394,-0.149 -0.771,-0.278 -1.172,-0.438c-0.384,-0.157 -0.785,-0.319 -1.183,-0.482c-1.854,1.956 -5.058,3.091 -8.16,2.69c-4.083,-0.521 -6.437,-3.488 -5.276,-6.619c0.166,-0.459 0.409,-0.891 0.698,-1.303c-2.09,-0.821 -4.195,-1.608 -6.244,-2.323c-4.192,6.785 -6.653,11.283 7.902,12.51z" fill="#4dff00"/>
   <path id="svg_13" d="m34.192,87.645c0,0 -5.915,-5.031 -12.523,-10.166c-6.561,-5.093 -9.7,-5.885 -21.669,-5.895l0,38.416c15.936,0 28.978,0 28.978,0c-5.274,-6 -2.295,-9.322 5.214,-22.355z" fill="#a5acaf"/>
  </g>
 </g>
</svg>