<svg width="200" height="136" xmlns="http://www.w3.org/2000/svg" xmlns:svg="http://www.w3.org/2000/svg">
 <g>
  <title>Layer 1</title>
  <path id="svg_1" d="m200,128c0,4.418 -3.582,8 -8,8l-184,0c-4.418,0 -8,-3.582 -8,-8l0,-120c0,-4.418 3.582,-8 8,-8l184,0c4.418,0 8,3.582 8,8l0,120z" fill="#000000"/>
  <g id="svg_2">
   <path id="svg_3" d="m192,-0.0005l-33.339,0c19.176,16.517 31.339,40.764 31.339,67.998c0,27.236 -12.163,52.002 -31.341,68.002l33.341,0c4.418,0 8,-3.182 8,-7.602l0,-120.398c0,-4.418 -3.582,-8 -8,-8z" fill="none"/>
   <path id="svg_4" d="m10,67.9975c0,-27.234 12.163,-51.481 31.34,-67.998l-33.34,0c-4.418,0 -8,3.582 -8,8l0,120.398c0,4.42 3.582,7.602 8,7.602l33.341,0c-19.178,-16 -31.341,-40.766 -31.341,-68.002z" fill="none"/>
   <path id="svg_5" d="m11.975,67.9975c0,-27.502 12.617,-51.856 32.375,-67.998l-3.01,0c-19.177,16.517 -31.34,40.764 -31.34,67.998c0,27.236 12.163,52.002 31.341,68.002l3.011,0c-19.76,-16 -32.377,-40.498 -32.377,-68.002z"/>
   <path id="svg_6" d="m190,67.9975c0,-27.234 -12.163,-51.481 -31.339,-67.998l-3.011,0c19.758,16.142 32.375,40.496 32.375,67.998c0,27.504 -12.617,52.002 -32.377,68.002l3.012,0c19.177,-16 31.34,-40.766 31.34,-68.002z"/>
   <path id="svg_7" d="m26.569,68.2155c0,-31.126 19.368,-57.528 46.709,-68.216l-28.928,0c-19.758,16.142 -32.375,40.496 -32.375,67.998c0,27.504 12.617,52.002 32.377,68.002l27.863,0c-26.778,-10 -45.646,-37.066 -45.646,-67.784z" fill="#B1BABF"/>
   <path id="svg_8" d="m188.025,67.9975c0,-27.502 -12.617,-51.856 -32.375,-67.998l-28.928,0c27.34,10.688 46.707,37.09 46.707,68.216c0,30.718 -18.867,57.784 -45.645,67.784l27.863,0c19.761,-16 32.378,-40.498 32.378,-68.002z" fill="#B1BABF"/>
   <path id="svg_9" d="m64.26,105.0345c23.925,-3.068 34,-10.742 36.122,-36.621c-1.948,-28.772 -19.246,-35.487 -36.339,-36.353c22.582,-2.898 33.099,-9.566 35.993,-32.061l-26.758,0c-27.341,10.688 -46.709,37.09 -46.709,68.216c0,30.718 18.868,57.784 45.645,67.784l28.065,0c-3.591,-24 -19.998,-30.148 -36.019,-30.965zm24.374,-34.583c0.386,0.149 1.35,0.157 1.522,-0.277c0.119,-0.305 0.196,-0.471 -0.069,-0.87c-0.482,-0.73 -1.518,-0.85 -2.428,-1.08c-1.625,-0.411 -2.021,-1.984 -1.949,-3.179c0.036,-0.565 0.136,-1.218 0.492,-1.657c0.751,-0.929 1.08,-0.882 1.528,-1.099c1.495,-0.728 3.357,-0.209 4.349,0.795c0.556,0.562 0.737,1.593 0.759,2.589l-2.56,-0.011c0,-0.266 0.006,-0.499 -0.042,-0.7c-0.071,-0.285 -0.451,-0.554 -0.834,-0.558c-0.455,0 -0.805,0.146 -0.957,0.585c-0.182,0.53 -0.097,1.312 1.285,1.467c-0.027,0 0.728,0.174 0.704,0.174c0.783,0.265 1.538,0.483 2.127,1.605c0.099,0.193 0.115,0.257 0.275,0.807c0.334,1.143 0.113,2.014 -0.261,2.691c-0.226,0.408 -0.783,0.914 -0.983,1.037c-1.081,0.668 -2.542,0.739 -3.871,0.336c-0.652,-0.197 -1.364,-0.695 -1.714,-1.379c-0.366,-0.709 -0.374,-1.285 -0.421,-2.242l2.475,-0.016c-0.049,0.389 0.192,0.837 0.573,0.982zm-8.634,-8.366l2.828,-0.032l-0.008,1.38c0.433,-0.759 0.672,-1.035 1.647,-1.435l0.533,0l0,3.359c-2,-0.174 -2,0.691 -2,1.356l0,6.286l-3,0l0,-10.914zm-8,3.028c0,-1.008 0.385,-1.885 1.357,-2.526c1.66,-0.724 2.614,-0.53 3.859,-0.1c1.19,0.649 1.783,1.451 1.783,2.57l0,2.942l-4.873,0l-0.166,1.748c0.006,0.988 2.04,1.423 2.04,0.178l0,-0.312l2.605,-0.013l0.092,1.297c0.023,0.862 -0.29,1.8 -1.747,2.302c-1.548,0.483 -2.37,0.194 -3.275,0c-1.188,-0.434 -1.675,-1.38 -1.675,-2.714l0,-5.372zm-4,-7.441l3,0.008l0,15.319l-3,0l0,-15.327zm-23.01,13.664c0,0 -0.144,0.438 -0.547,0.815c-1.645,1.533 -3.922,1.602 -5.611,0.798c-0.776,-0.372 -1.376,-0.731 -1.803,-1.692c-0.421,-0.941 -0.516,-1.795 -0.396,-3.183l3.151,-0.02c-0.057,0.443 0.071,1.559 0.368,1.867c0.293,0.309 1.489,0.608 1.948,-0.206c0.164,-0.284 0.203,-1.526 -0.299,-2.005c-0.947,-0.909 -1.762,-1 -2.875,-1.696c-1.589,-0.992 -2.436,-2.771 -2.333,-4.46c0.047,-0.799 0.265,-1.356 0.656,-2.056c0.387,-0.693 0.938,-1.325 1.735,-1.673c2.116,-0.929 4.701,-0.474 5.842,1.539c0.298,0.526 0.599,1.434 0.557,2.634l-2.026,0l-1.107,0.082c-0.024,-0.482 -0.097,-1.074 -0.417,-1.366c-0.475,-0.431 -1.546,-0.176 -1.831,0.426c-0.512,1.075 0.144,2.097 1.801,2.626c-0.04,0 0.49,0.23 0.455,0.23c1.566,0.763 1.999,1.141 2.582,1.967c0.178,0.249 0.522,0.899 0.661,1.693c0.298,1.698 -0.129,2.752 -0.511,3.68zm6.01,-1.498l0,3.302c-1,-0.035 -4.047,0.442 -4.058,-2.662l-0.011,-5.844l-1.098,0.035l-0.007,-2.542l1.174,-0.035l0,-1.016l2.949,-1.621l0.011,2.673l1.124,-0.024l0.033,2.606l-1.117,-0.02l0,4.336c0,0.595 0,0.832 1,0.812zm8,-1.839l-4.747,0l-0.237,1.748c0.004,0.988 1.984,1.423 1.984,0.178l0,-0.312l2.659,-0.013l0.123,1.297c0.022,0.862 -0.277,1.8 -1.735,2.302c-1.547,0.483 -2.417,0.194 -3.323,0c-1.188,-0.434 -1.724,-1.38 -1.724,-2.714l0,-5.374c0,-1.008 0.44,-1.885 1.413,-2.526c1.661,-0.724 2.588,-0.53 3.832,-0.1c1.19,0.649 1.755,1.451 1.755,2.57l0,2.944zm2.783,5.2c-1.19,-0.434 -1.783,-1.38 -1.783,-2.714l0,-5.374c0,-1.008 0.47,-1.885 1.443,-2.526c1.661,-0.724 2.573,-0.53 3.814,-0.1c1.19,0.649 1.743,1.451 1.743,2.57l0,2.944l-4.691,0l-0.266,1.748c0.006,0.988 1.957,1.423 1.957,0.178l0,-0.312l2.688,-0.013l0.138,1.297c0.02,0.862 -0.251,1.8 -1.708,2.302c-1.549,0.484 -2.43,0.195 -3.335,0z" fill="#FFFFFF"/>
   <path id="svg_10" d="m76.44,66.1735c0.453,-1.926 -2.566,-2.175 -2.196,-0.008l2.196,0.008z" fill="#FFFFFF"/>
   <path id="svg_11" d="m100.382,68.5155c23.927,-3.073 34.277,-10.613 36.397,-36.491c-0.163,-0.009 -0.326,-0.02 -0.489,-0.029c-7.856,-0.307 -35.078,7.084 -35.908,36.52z" fill="#FFFFFF"/>
   <path id="svg_12" d="m100.382,68.5155c1.329,27.555 18.558,36.101 35.978,37.193c0.183,0.008 0.357,0.018 0.52,0.032c-1.946,-28.773 -19.407,-36.36 -36.498,-37.225z" fill="#FFFFFF"/>
   <path id="svg_13" d="m173.432,68.2155c0,-31.126 -19.367,-57.528 -46.709,-68.216l-25.906,0c2.791,24.149 18.965,30.983 35.475,31.995c0.171,0.006 0.337,0.016 0.49,0.029c1.318,27.385 17.812,35.945 35.167,36.828c0.301,0.004 0.581,0.016 0.833,0.037c-0.278,-0.01 -0.555,-0.021 -0.833,-0.037c-8.243,-0.059 -34.248,7.871 -35.068,36.89c-0.173,-0.011 -0.346,-0.222 -0.519,-0.232c-7.396,-0.296 -31.497,5.491 -35.103,30.491l26.527,0c26.776,-10.001 45.646,-37.067 45.646,-67.785z" fill="#FFFFFF"/>
   <path id="svg_14" d="m54.355,66.1655l2.196,0.008c0.453,-1.926 -2.563,-2.175 -2.196,-0.008z" fill="#FFFFFF"/>
   <path id="svg_15" d="m64.608,66.1735c0.455,-1.926 -2.564,-2.175 -2.197,-0.008l2.197,0.008z" fill="#FFFFFF"/>
   <path id="svg_16" d="m136.29,31.9945c0.163,0.01 0.326,0.021 0.489,0.029c-0.152,-0.013 -0.318,-0.023 -0.489,-0.029z" fill="#FFC20E"/>
   <path id="svg_17" d="m64.043,32.1105c17.093,0.866 34.391,7.631 36.339,36.403c0.83,-29.435 28.052,-36.825 35.908,-36.52c-16.509,-1.011 -32.683,-7.845 -35.474,-31.994l-0.781,0c-2.893,22.495 -13.41,29.212 -35.992,32.111z" fill="#FFC20E"/>
   <path id="svg_18" d="m100.382,68.5155c17.091,0.865 34.552,8.452 36.497,37.227c0.82,-29.02 26.825,-36.947 35.068,-36.889c-17.354,-0.884 -33.848,-9.443 -35.168,-36.829c-2.12,25.877 -12.47,33.417 -36.397,36.491z" fill="#DA2128"/>
   <path id="svg_19" d="m171.945,68.8535c0.277,0.015 0.556,0.026 0.834,0.037c-0.252,-0.024 -0.532,-0.036 -0.834,-0.037z" fill="#DA2128"/>
   <path id="svg_20" d="m136.878,105.7405c-0.161,-0.015 -0.336,-0.024 -0.519,-0.032c0.174,0.012 0.347,0.021 0.519,0.032z" fill="#00539B"/>
   <path id="svg_21" d="m136.359,105.5085c-17.42,-1.093 -34.648,-9.54 -35.978,-37.094c-2.122,25.878 -12.196,33.502 -36.122,36.571c16.022,0.815 32.429,7.014 36.02,31.014l0.979,0c3.605,-25 27.706,-30.787 35.101,-30.491z" fill="#00539B"/>
   <path id="svg_22" d="m83,66.7145c0,-0.665 0,-1.53 2,-1.356l0,-3.359l-0.533,0c-0.975,0.4 -1.233,0.676 -1.667,1.435l0.027,-1.382l-2.827,0.033l0,10.914l3,0l0,-6.285z"/>
   <path id="svg_23" d="m85.588,69.4855c0.047,0.957 0.055,1.533 0.421,2.242c0.35,0.685 1.062,1.183 1.714,1.381c1.328,0.402 2.79,0.332 3.871,-0.338c0.2,-0.121 0.757,-0.627 0.983,-1.035c0.374,-0.68 0.595,-1.549 0.261,-2.692c-0.16,-0.549 -0.176,-0.614 -0.275,-0.807c-0.589,-1.123 -1.344,-1.34 -2.127,-1.605c0.023,0 -0.731,-0.174 -0.704,-0.174c-1.382,-0.154 -1.467,-0.937 -1.285,-1.467c0.152,-0.438 0.502,-0.585 0.957,-0.585c0.384,0.004 0.763,0.272 0.834,0.558c0.047,0.202 0.042,0.435 0.042,0.7l2.56,0.011c-0.022,-0.996 -0.204,-2.028 -0.759,-2.589c-0.992,-1.004 -2.854,-1.523 -4.349,-0.795c-0.449,0.217 -0.777,0.17 -1.528,1.099c-0.356,0.439 -0.457,1.091 -0.492,1.657c-0.071,1.194 0.324,2.768 1.949,3.179c0.91,0.23 1.945,0.349 2.428,1.081c0.265,0.398 0.188,0.564 0.069,0.869c-0.172,0.436 -1.137,0.428 -1.522,0.277c-0.381,-0.146 -0.623,-0.594 -0.571,-0.98l-2.477,0.013z"/>
   <path id="svg_24" d="m44.842,65.9675c-0.583,-0.827 -1.016,-1.202 -2.582,-1.965c0.036,0 -0.494,-0.226 -0.455,-0.226c-1.657,-0.529 -2.313,-1.542 -1.801,-2.617c0.284,-0.602 1.356,-0.838 1.831,-0.407c0.32,0.292 0.393,0.847 0.417,1.329l1.107,-0.082l2.026,0c0.042,-1.2 -0.259,-2.108 -0.557,-2.634c-1.141,-2.012 -3.727,-2.505 -5.842,-1.576c-0.797,0.348 -1.348,0.999 -1.735,1.691c-0.392,0.699 -0.609,1.266 -0.656,2.065c-0.104,1.688 0.743,3.473 2.333,4.465c1.113,0.695 1.927,0.789 2.875,1.698c0.502,0.479 0.462,1.723 0.299,2.007c-0.459,0.814 -1.655,0.515 -1.948,0.206c-0.296,-0.308 -0.425,-1.422 -0.368,-1.866l-3.151,0.02c-0.121,1.388 -0.025,2.242 0.396,3.183c0.427,0.96 1.026,1.32 1.803,1.692c1.688,0.803 3.966,0.734 5.611,-0.799c0.403,-0.375 0.547,-0.814 0.547,-0.814c0.382,-0.929 0.809,-1.98 0.513,-3.676c-0.141,-0.796 -0.485,-1.445 -0.663,-1.694z"/>
   <path id="svg_25" d="m50,64.6905l1.116,0.02l-0.022,-2.606l-1.13,0.024l-0.012,-2.673l-2.952,1.621l0,1.016l-1.171,0.036l0.04,2.542l1.131,-0.035l0,5.845c0,3.104 3,2.625 4,2.662l0,-3.303c-1,0.02 -1,-0.217 -1,-0.81l0,-4.339z"/>
   <polygon id="svg_26" points="71,57.68049621582031 68,57.67250061035156 68,72.99949645996094 71,72.99949645996094 "/>
   <path id="svg_27" d="m73.697,73.1995c0.905,0.194 1.81,0.483 3.357,0c1.457,-0.502 1.784,-1.439 1.761,-2.302l-0.195,-1.297l-2.62,0.013l0,0.312c0,1.245 -2.034,0.811 -2.039,-0.178l0.166,-1.748l4.873,0l0,-2.941c0,-1.119 -0.654,-1.921 -1.844,-2.57c-1.246,-0.43 -2.084,-0.625 -3.745,0.1c-0.973,0.64 -1.411,1.517 -1.411,2.525l0,5.374c0,1.332 0.509,2.278 1.697,2.712zm2.743,-7.026l-2.196,-0.008c-0.37,-2.167 2.649,-1.918 2.196,0.008z"/>
   <path id="svg_28" d="m66.957,70.8975l-0.27,-1.297l-2.687,0.013l0,0.312c0,1.245 -1.951,0.811 -1.957,-0.178l0.266,-1.748l4.691,0l0,-2.941c0,-1.119 -0.571,-1.921 -1.761,-2.57c-1.241,-0.43 -2.125,-0.625 -3.785,0.1c-0.973,0.64 -1.454,1.517 -1.454,2.525l0,5.374c0,1.332 0.593,2.277 1.783,2.712c0.905,0.194 1.851,0.483 3.399,0c1.458,-0.502 1.795,-1.439 1.775,-2.302zm-2.349,-4.724l-2.197,-0.008c-0.367,-2.167 2.652,-1.918 2.197,0.008z"/>
   <path id="svg_29" d="m57.212,62.4875c-1.244,-0.43 -2.113,-0.625 -3.773,0.1c-0.973,0.641 -1.439,1.518 -1.439,2.526l0,5.374c0,1.332 0.564,2.277 1.753,2.712c0.906,0.194 1.837,0.483 3.385,0c1.457,-0.502 1.799,-1.439 1.777,-2.302l-0.248,-1.297l-2.667,0.013l0,0.312c0,1.245 -1.98,0.811 -1.984,-0.178l0.237,-1.748l4.747,0l0,-2.941c0,-1.12 -0.598,-1.922 -1.788,-2.571zm-0.66,3.686l-2.196,-0.008c-0.368,-2.167 2.648,-1.918 2.196,0.008z"/>
  </g>
 </g>
</svg>