<svg width="200" height="136" xmlns="http://www.w3.org/2000/svg" xmlns:svg="http://www.w3.org/2000/svg">
 <g>
  <title>Layer 1</title>
  <path id="svg_1" d="m200,128c0,4.418 -3.582,8 -8,8l-184,0c-4.418,0 -8,-3.582 -8,-8l0,-120c0,-4.418 3.582,-8 8,-8l184,0c4.418,0 8,3.582 8,8l0,120z" fill="#091f2c"/>
  <g id="svg_11">
   <path id="svg_3" d="m52.594,116.7c4.132,-27.052 -24.323,-44.72 -38.065,-53.142l16.728,-11.954c-22.885,-18.354 -29.388,-36.905 -25.077,-51.388c-3.54,0.825 -6.18,3.993 -6.18,7.784l0,120.398c0,4.42 3.582,7.602 8,7.602l51.668,0l-21.201,-9.404l14.127,-9.896z" fill="none"/>
   <path id="svg_4" d="m192,0l-138.573,0c0.134,6.923 9.9,15.762 33.098,27.284c23.23,11.542 36.644,15.242 36.644,15.242c31.771,-4.522 62.735,-9.158 22.047,-40.12c56.244,4.935 72.397,60.728 8.979,75.273c-11.521,30.475 -38.299,38.057 -38.545,53.039l-12.1,5.281l88.45,0c4.418,0 8,-3.182 8,-7.602l0,-120.397c0,-4.418 -3.582,-8 -8,-8z" fill="none"/>
   <path id="svg_5" d="m154.195,77.68c63.419,-14.546 47.265,-70.339 -8.979,-75.273c40.688,30.962 9.724,35.597 -22.047,40.12c0,0 -13.414,-3.701 -36.644,-15.242c-23.198,-11.523 -32.964,-20.362 -33.098,-27.285l-4.47,0c0.411,11.929 21.616,27.546 67.271,45.181c9.665,29.538 -4.269,59.819 -31.677,90.819l5.442,0c26.176,-24 49.804,-55.994 41.69,-90.18c33.312,-3.716 52.28,-17.28 24.959,-38.666c42.116,13.387 51.359,54.087 -5.283,66.721c-12.058,32.042 -37.504,39.375 -39.361,53.811l-18.737,8.314l10.291,0l12.099,-5.281c0.245,-14.983 27.023,-22.565 38.544,-53.039z" fill="#FFFFFF"/>
   <polygon id="svg_6" points="90.41899108886719,70.28799438476562 86.87399291992188,55.08300018310547 80.39801025390625,65.77899169921875 64.15899658203125,58.46800231933594 76.38600158691406,72.38600158691406 69.89199829101562,83.08100891113281 83.93800354003906,80.98599243164062 96.16400146484375,94.89299011230469 92.6090087890625,79.68399047851562 106.66000366210938,77.58699035644531 " fill="#FFFFFF"/>
   <path id="svg_7" d="m57.419,119.911c6.3,-27.282 -12.266,-44.616 -29.788,-56.324l16.501,-11.792c-26.639,-18.608 -34.931,-37.608 -30.721,-51.795l-5.411,0c-0.627,0 -1.234,0.08 -1.82,0.216c-4.311,14.483 2.192,33.034 25.076,51.388l-16.728,11.954c13.743,8.422 42.198,26.09 38.066,53.142l-14.126,9.896l21.2,9.404l12.722,0l-23.282,-10.352l8.311,-5.737z" fill="#FFFFFF"/>
   <path id="svg_8" d="m116.229,45.181c-45.656,-17.635 -66.861,-33.252 -67.272,-45.181l-35.546,0c-4.209,14.187 4.083,33.187 30.722,51.796l-16.501,11.791c17.522,11.708 36.088,29.042 29.788,56.324l-8.312,5.737l23.282,10.352l12.161,0c27.408,-31 41.342,-61.281 31.678,-90.819zm-20.065,49.712l-12.226,-13.907l-14.046,2.095l6.494,-10.695l-12.227,-13.918l16.239,7.311l6.476,-10.696l3.545,15.205l16.24,7.299l-14.05,2.097l3.555,15.209z" fill="#091f2c"/>
   <path id="svg_9" d="m151.361,73.925c56.642,-12.634 47.397,-53.284 5.283,-66.671c27.319,21.386 8.353,34.851 -24.961,38.566c8.114,34.186 -15.514,66.18 -41.689,90.18l3.268,0l18.738,-8.29c1.857,-14.437 27.303,-21.743 39.361,-53.785z" fill="#C9243F"/>
  </g>
 </g>
</svg>