<svg width="200" height="136" xmlns="http://www.w3.org/2000/svg" xmlns:svg="http://www.w3.org/2000/svg">
 <g class="layer">
  <title>Layer 1</title>
  <path d="m200,128c0,4.42 -3.58,8 -8,8l-184,0c-4.42,0 -8,-3.58 -8,-8l0,-120c0,-4.42 3.58,-8 8,-8l184,0c4.42,0 8,3.58 8,8l0,120z" fill="#5a1414" id="svg_1"/>
  <path d="m176.73,136l15.27,0c4.42,0 8,-3.18 8,-7.6l0,-16.11c-12.06,17.25 -22.51,23.71 -23.27,23.71z" fill="none" id="svg_4"/>
 </g>
 <g class="layer">
  <title>Layer 2</title>
  <g clip-path="url(#clip0_1_185)" id="svg_2">
   <path d="m136.54,9l7,21.46l-5.21,15.95l-12.16,-37.41l-54.5,0l-9.78,29.99l-9.74,-29.99l-65.16,0l20.47,33.24l28.04,86.13l52.76,0l10.6,-32.56l10.57,32.56l57.73,0l38.83,-119.36l-69.46,0zm-121.78,29.86l-13.49,-21.9l45.1,0l11.33,34.9l-19.36,59.45l-23.59,-72.46zm67.69,81.72l-38.73,0l31.63,-97.17l19.33,59.53l-12.24,37.65zm-0.82,-103.61l38.75,0l13.78,42.33l-19.4,59.6l-33.14,-101.93zm79.68,103.56l-38.72,0l29.3,-90.01l-4.41,-13.55l47.52,0l-33.69,103.56z" fill="#FFB612" id="svg_3"/>
   <path d="m134.14,59.31l-19.4,59.6l-33.11,-101.94l38.75,0l13.75,42.34zm13.34,-42.34l4.39,13.55l-29.3,90.01l38.72,0l33.73,-103.56l-47.54,0zm-101.11,0l-45.1,0l13.49,21.9l23.63,72.47l19.31,-59.46l-11.33,-34.9zm-2.65,103.56l38.78,0l12.24,-37.6l-19.39,-59.53l-31.63,97.13z" fill="#5A1414" id="svg_5"/>
  </g>
 </g>
</svg>