<svg width="200" height="136" xmlns="http://www.w3.org/2000/svg" xmlns:svg="http://www.w3.org/2000/svg">
 <g class="layer">
  <title>Layer 1</title>
  <path d="m200,127c0,4.418 -3.582,8 -8,8l-184,0c-4.418,0 -8,-3.582 -8,-8l0,-120c0,-4.418 3.582,-8 8,-8l184,0c4.418,0 8,3.582 8,8l0,120z" fill="#dc4405" id="svg_1"/>
  <path d="m133.871,123.316c6.791,-33.004 24.507,-63.486 52.098,-85.563c0.006,-0.329 0.033,-0.642 0.033,-0.979c0.003,-0.381 -0.002,-0.758 -0.012,-1.134c-0.004,-0.106 -0.008,-0.212 -0.012,-0.317c-0.01,-0.293 -0.024,-0.585 -0.043,-0.875c-0.006,-0.09 -0.01,-0.181 -0.017,-0.271c-0.026,-0.369 -0.06,-0.736 -0.099,-1.1c-0.006,-0.064 -0.016,-0.127 -0.022,-0.19c-0.034,-0.307 -0.073,-0.611 -0.118,-0.914c-0.015,-0.099 -0.029,-0.198 -0.046,-0.296c-0.049,-0.315 -0.103,-0.628 -0.161,-0.939c-0.01,-0.046 -0.017,-0.092 -0.025,-0.138c-0.07,-0.357 -0.146,-0.712 -0.229,-1.064c-0.018,-0.078 -0.038,-0.155 -0.057,-0.233c-0.069,-0.285 -0.144,-0.569 -0.22,-0.85c-0.022,-0.081 -0.045,-0.162 -0.067,-0.243c-0.199,-0.696 -0.423,-1.381 -0.673,-2.054c-0.027,-0.074 -0.057,-0.147 -0.083,-0.221c-0.111,-0.291 -0.226,-0.579 -0.347,-0.864c-0.02,-0.048 -0.039,-0.097 -0.06,-0.145c-0.144,-0.338 -0.294,-0.673 -0.452,-1.004c-0.014,-0.03 -0.029,-0.061 -0.044,-0.091c-0.143,-0.298 -0.292,-0.593 -0.444,-0.886c-0.031,-0.059 -0.062,-0.117 -0.094,-0.176c-0.346,-0.648 -0.717,-1.284 -1.113,-1.905c-0.023,-0.037 -0.049,-0.074 -0.072,-0.111c-0.184,-0.284 -0.372,-0.565 -0.566,-0.844c-0.023,-0.034 -0.046,-0.067 -0.07,-0.101c-0.435,-0.618 -0.896,-1.221 -1.383,-1.809c-0.024,-0.029 -0.049,-0.058 -0.072,-0.087c-0.748,-0.893 -1.553,-1.752 -2.418,-2.573c-0.014,-0.013 -0.026,-0.026 -0.041,-0.039c-3.551,-3.36 -8.082,-6.099 -13.479,-8.087c-22.787,33.795 -35.136,76.873 -29.592,116.103z" id="svg_28"/>
  <path d="m96.217,133l14.002,0c-2.027,-11 -2.99,-23 -3.13,-33l-9.402,0c-1.905,0 -3.687,-1.754 -3.687,-3.657l0,-18.343l13.854,0c0.566,-6 1.426,-13 2.49,-20l-16.344,0l0,-17.81c0,-1.891 1.792,-3.19 3.687,-3.19l15.317,0c0.618,0 0.997,-0.188 1.997,-0.146l0,0.04c2.999,-12.68 6.687,-23.894 10.259,-32.894l-40.166,0c-15.115,57 0.081,102 11.123,129z" id="svg_27"/>
  <path d="m69.671,123.736c-19.912,-37.425 -25.248,-80.736 -17.832,-119.736l-18.806,0l-18.84,33l12.967,0c2.562,0 4.84,1.866 4.84,4.427l0,41.212c10,15.681 23.556,30.95 37.671,41.097z" id="svg_26"/>
  <path d="m166.538,66.898c-1.375,-0.33 -1.154,-2.011 -0.147,-2.392c12.385,-4.686 19.612,-13.029 19.612,-27.732c0,0.337 -0.026,0.65 -0.032,0.979c-27.592,22.077 -45.309,52.56 -52.099,85.563c-5.544,-39.229 6.805,-82.309 29.593,-116.104c5.396,1.988 9.928,4.974 13.479,8.334c-7.828,-7.407 -20.412,-11.546 -36.529,-11.546l-15.155,0c-3.572,9 -7.324,20.407 -10.48,33.086c7.646,0.574 10.541,4.68 10.541,10.248c0,6.34 -3.338,10.667 -12.317,10.667l-2.66,0c-1.065,7 -1.924,14 -2.491,20l5.151,0c8.979,0 12.317,4.666 12.317,10.829c0,6.332 -3.338,11.171 -12.317,11.171l-5.915,0c0.141,10 1.104,22 3.13,33l-14.002,0c-11.042,-27.001 -26.238,-72.001 -11.123,-129.001l-33.255,0c-7.417,39 -2.081,82.311 17.832,119.736c-14.115,-10.147 -27.671,-25.416 -37.671,-41.097l0,12.5c0,2.561 -2.278,4.861 -4.839,4.861l-12.823,0l18.981,33.004l112.201,-0.068c32.037,0 45.235,-21.322 45.235,-36.99c-0.001,-13.77 -10.148,-25.685 -24.217,-29.048z" fill="#dc4405" id="svg_25"/>
  <path d="m185.99,35.64c0.01,0.376 0.015,0.753 0.012,1.134c0.003,-0.381 -0.002,-0.758 -0.012,-1.134z" fill="#F04E23" id="svg_24"/>
  <path d="m185.68,31.972c0.043,0.303 0.082,0.607 0.118,0.914c-0.034,-0.307 -0.073,-0.612 -0.118,-0.914z" fill="#F04E23" id="svg_23"/>
  <path d="m185.219,29.533c0.083,0.352 0.159,0.707 0.229,1.064c-0.07,-0.357 -0.147,-0.712 -0.229,-1.064z" fill="#F04E23" id="svg_22"/>
  <path d="m185.938,34.447c0.018,0.291 0.033,0.582 0.043,0.875c-0.012,-0.293 -0.026,-0.585 -0.043,-0.875z" fill="#F04E23" id="svg_21"/>
  <path d="m185.82,33.076c0.039,0.364 0.072,0.731 0.099,1.1c-0.026,-0.369 -0.06,-0.736 -0.099,-1.1z" fill="#F04E23" id="svg_20"/>
  <path d="m184.941,28.45c0.078,0.281 0.151,0.565 0.221,0.85c-0.069,-0.285 -0.142,-0.569 -0.221,-0.85z" fill="#F04E23" id="svg_19"/>
  <path d="m183.771,25.068c0.121,0.286 0.235,0.574 0.347,0.864c-0.111,-0.29 -0.225,-0.578 -0.347,-0.864z" fill="#F04E23" id="svg_18"/>
  <path d="m181.564,20.862c0.397,0.621 0.769,1.257 1.115,1.905c-0.346,-0.648 -0.717,-1.284 -1.115,-1.905z" fill="#F04E23" id="svg_17"/>
  <path d="m183.261,23.92c0.157,0.331 0.308,0.666 0.452,1.004c-0.145,-0.338 -0.295,-0.673 -0.452,-1.004z" fill="#F04E23" id="svg_16"/>
  <path d="m182.771,22.943c0.153,0.293 0.303,0.588 0.445,0.886c-0.142,-0.298 -0.291,-0.593 -0.445,-0.886z" fill="#F04E23" id="svg_15"/>
  <path d="m184.202,26.153c0.25,0.673 0.474,1.358 0.673,2.054c-0.199,-0.696 -0.424,-1.381 -0.673,-2.054z" fill="#F04E23" id="svg_14"/>
  <path d="m180.927,19.908c0.194,0.278 0.384,0.56 0.566,0.844c-0.182,-0.285 -0.372,-0.566 -0.566,-0.844z" fill="#F04E23" id="svg_13"/>
  <path d="m179.4,17.912c-0.746,-0.894 -1.553,-1.751 -2.418,-2.573c0.866,0.821 1.672,1.68 2.418,2.573z" fill="#F04E23" id="svg_12"/>
  <path d="m185.473,30.736c0.06,0.311 0.112,0.625 0.162,0.939c-0.05,-0.315 -0.103,-0.628 -0.162,-0.939z" fill="#F04E23" id="svg_11"/>
  <path d="m179.473,17.999c0.487,0.588 0.949,1.191 1.385,1.809c-0.436,-0.619 -0.898,-1.222 -1.385,-1.809z" fill="#F04E23" id="svg_10"/>
  <path d="m200,107.604l0,-19.12c-3.087,-10.303 -11.174,-18.432 -19.368,-22.605c-1.067,-0.544 -0.938,-1.518 -0.165,-2.092c9.117,-6.757 15.266,-15.419 15.266,-28.803c0,-12.254 -6.782,-28.33 -30.355,-34.984l-141.229,0l-24.092,42l18.997,0c2.115,0 3.946,1.675 3.946,3.791l0,44.979c0,2.116 -1.831,3.23 -3.946,3.23l-19.054,0l0,2.854l23.021,39.146l146.209,0c17.56,-5 27.422,-15.736 30.77,-28.396zm-54.48,25.274l-112.201,0.125l-18.981,-33.003l12.823,0c2.561,0 4.839,-2.301 4.839,-4.861l0,-12.5l0,-41.212c0,-2.561 -2.278,-4.427 -4.839,-4.427l-12.968,0l18.84,-33l18.806,0l33.255,0l40.166,0l15.154,0c16.118,0 28.702,4.139 36.527,11.547c0.014,0.013 0.027,-0.098 0.041,-0.085c0.865,0.821 1.672,1.618 2.418,2.511c0.023,0.029 0.048,0.027 0.072,0.056c0.486,0.588 0.948,1.176 1.383,1.793c0.023,0.033 0.047,0.059 0.07,0.093c0.194,0.278 0.383,0.556 0.566,0.84c0.023,0.037 0.049,0.072 0.072,0.108c0.396,0.622 0.768,1.256 1.113,1.905c0.031,0.059 0.062,0.117 0.094,0.175c0.152,0.293 0.302,0.587 0.444,0.885c0.015,0.03 0.03,0.061 0.044,0.091c0.157,0.331 0.309,0.666 0.452,1.004c0.021,0.048 0.04,0.096 0.06,0.145c0.121,0.286 0.235,0.574 0.347,0.864c0.028,0.073 0.056,0.146 0.083,0.221c0.25,0.673 0.475,1.358 0.673,2.054c0.022,0.081 0.045,0.162 0.067,0.243c0.078,0.281 0.15,0.565 0.22,0.85c0.019,0.078 0.039,0.155 0.057,0.233c0.083,0.352 0.159,0.707 0.229,1.064c0.009,0.046 0.016,0.092 0.025,0.138c0.059,0.311 0.111,0.625 0.161,0.939c0.017,0.099 0.031,0.198 0.046,0.296c0.043,0.303 0.084,0.607 0.118,0.914c0.009,0.063 0.017,0.126 0.023,0.19c0.038,0.364 0.071,0.731 0.098,1.1c0.007,0.09 0.011,0.181 0.017,0.271c0.019,0.291 0.033,0.582 0.043,0.875c0.004,0.105 0.008,0.211 0.012,0.317c0.01,0.376 0.015,0.753 0.012,1.134c0,14.703 -7.227,23.047 -19.613,27.732c-1.005,0.381 -1.227,2.062 0.148,2.392c14.07,3.363 24.217,15.25 24.217,29.02c0.001,15.669 -13.196,36.963 -45.233,36.963z" fill="#FFFFFF" id="svg_9"/>
  <path d="m94,96.343c0,1.902 1.782,3.657 3.687,3.657l9.402,0l5.915,0c8.98,0 12.318,-4.839 12.318,-11.171c0,-6.163 -3.338,-10.829 -12.318,-10.829l-5.15,0l-13.854,0l0,18.343z" fill="#FFFFFF" id="svg_8"/>
  <path d="m113.003,37l-15.316,0c-1.895,0 -3.687,1.299 -3.687,3.19l0,17.81l16.344,0l2.66,0c8.98,0 12.43,-4.45 12.43,-10.79c0,-5.567 -3.433,-9.759 -10.433,-10.333l0,-0.005c-1.001,-0.041 -1.38,0.128 -1.998,0.128z" fill="#FFFFFF" id="svg_7"/>
 </g>
</svg>