<?xml version="1.0" encoding="utf-8"?>
<!-- Generator: Adobe Illustrator 24.0.1, SVG Export Plug-In . SVG Version: 6.00 Build 0)  -->
<svg version="1.1" id="LAC" xmlns="http://www.w3.org/2000/svg" xmlns:xlink="http://www.w3.org/1999/xlink" x="0px" y="0px"
	 width="200px" height="136px" viewBox="0 0 200 136" style="enable-background:new 0 0 200 136;" xml:space="preserve">
<style type="text/css">
	.st0{fill:#382F28;}
	.st1{clip-path:url(#SVGID_2_);}
	.st2{fill:#FFFFFF;}
	.st3{fill:#B1BABF;}
	.st4{fill:#A30D2D;}
	.st5{fill:#DC4405;}
</style>
<path class="st0" d="M192,136H8c-4.4,0-8-3.6-8-8V8c0-4.4,3.6-8,8-8H192c4.4,0,8,3.6,8,8V128C200,132.4,196.4,136,192,136z"/>
<g>
	<defs>
		<path id="SVGID_1_" d="M192,136H8c-4.4,0-8-3.6-8-8V8c0-4.4,3.6-8,8-8H192c4.4,0,8,3.6,8,8V128C200,132.4,196.4,136,192,136z"/>
	</defs>
	<clipPath id="SVGID_2_">
		<use xlink:href="#SVGID_1_"  style="overflow:visible;"/>
	</clipPath>
	<g class="st1">
		<g>
			<path class="st2" d="M156.4,132.8c-2.6,3.9-22.9,32.9-24.3,34.8c-0.1-0.1-3.6-3.1-3.7-3.2c5.2-7.2,19.8-29,20.1-29.5
				c2.6-0.6,5.2-1.3,7.7-2.1C156.3,132.8,156.4,132.8,156.4,132.8z"/>
			<path class="st3" d="M166.1,129.3c-3.7,5.8-23.7,36-28.5,42.9c0,0-0.1-0.1-0.1-0.1c-0.7-0.6-1.6-1.4-2.6-2.2
				c1.6-2.3,20.2-29.9,25.6-38.4C162.4,130.8,164.3,130,166.1,129.3z"/>
			<path class="st2" d="M114,183.3c-0.7,1.7-1.3,4.6-1.1,6.7c0.1,0.5,0.1,0.9,0.3,1.3v0c-1.6,7.3-4.7,7.4-5.5,7.3
				c-0.1,0-0.2,0-0.2,0c3-2.7,2.9-7.5,6-14.3C113.7,183.9,113.8,183.6,114,183.3C114,183.3,114,183.3,114,183.3z"/>
			<path class="st3" d="M131.9,188.5c0.1,1.4-1.5,3.4-2.9,3.9c-1,0.4-2.4,0.6-3.7,0.6c-0.4,0-0.8,0-1.2-0.1c0.4-0.6,0.8-1.4,1.3-2.2
				c1.1-1.8,2.5-4,3.7-5.6c0.8,0.4,2,1.2,2.6,2.4C131.8,187.9,131.9,188.2,131.9,188.5z"/>
			<path class="st3" d="M123.6,178.8c-1-0.9-1.7-2-2.1-3c0,0-3.9,5.1-7.4,12.8c0.1,0.4,0.2,0.7,0.4,1.1c1.1,2.3,2,2.9,3.9,2.8
				c0,0,4.4-7.6,7.6-11.6C125.3,180.3,124.5,179.6,123.6,178.8z"/>
			<path class="st2" d="M121.5,175.8c-0.7-2.1-0.6-4.2-0.5-4.6c-0.1,0.1-0.1,0.2-0.2,0.3c-1.2,1.9-2.4,3.7-3.5,5.6
				c-1.1,1.8-3.2,5.9-3.3,6c0,0.1-0.5,3.1,0,5.5c0,0,0,0,0,0c0-0.1,0.1-0.1,0,0C117.6,180.9,121.5,175.8,121.5,175.8z"/>
			<path class="st3" d="M141,184.6c-0.9-4.1-6.2-8.1-7.4-9c-2.6-2.3-9.3-7.5-9.9-8.6c-0.7-1.2-3.8-5.4-8-6.3c0,0-0.7-0.1-0.8,0.4
				c-0.1,0.3,0.1,0.6,0.6,0.8c0.5,0.1,2.1,0.3,3.8,1.9c1.7,1.6,2.4,3.8,2.3,5.6c0,1.8,0.6,4.4,2.8,6.1c2.2,1.7,4.9,4.5,7.2,5.1
				c0.1,0,0.3,0.1,0.4,0.1c1.5,0.1,3-1.2,2.7-2c0.5,1.7,0,2.9-0.7,3.8c2.6,2.5,3.8,5.4,3,8c-1,3.3-4.7,7.8-11.5,7.7
				c-4.8-0.1-7.7-1.4-8.9-2.2c0,0,0.4-0.9,0.4-1c-2.8,0.7-3.9-3.5-3.9-3.7c-1.6,7.3-4.7,7.4-5.5,7.3c-0.1,0-0.2,0-0.2,0
				s0.6,2.4,3,3.5c-1.1-0.3-2.3,0.1-2.9,1.1c-0.8,1.2-0.5,2.8,0.7,3.6c1.2,0.8,2.8,0.5,3.6-0.7c0.8-1.2,0.5-2.8-0.7-3.6
				c-0.1,0-0.1-0.1-0.2-0.1c0.3,0.1,0.6,0.2,1,0.3c3.2,0.5,4.2-1,4.2-1s-0.2-0.4-0.4-1c0,0-3.1,2.2-6.6-1.3c0.1,0,1.3,0.4,3.2,0.1
				c2.9-0.4,3.3-1.4,3.5-1.5c0,0,0-0.1,0-0.1c2.5,1.4,5.3,2,9.3,2.1c4.5,0.1,8.7-1.3,11.3-3.5C139.1,194.1,142.1,189.5,141,184.6z"
				/>
		</g>
		<path class="st3" d="M209.9-28.2c0,0,0.6,11.7-1.6,22.4C206.2,4.5,205,8.5,205,8.5c-4.5,2.6-11.8,5.9-22.5,7.7
			c-19.9,3.3-38-2-57.8-9.8C105-1.4,78.6-9.7,54.1-6.9C30.3-4.2,13.3,5.4,4.2,11.7c-9,6.3-10.7,7.9-18.5,10.1c0,0,6.1,2.4,9.2,2.4
			c0,0-1.5,6.1-0.9,8.1c0,0,12.9-5.9,14.4-3.1C10,32,3.9,33.9-0.4,35c-4.2,1.1-15.3,0.9-15.3,0.9s5.2,4,7,6.8c0,0-9.8,4.3-20.7,2.8
			c0,0-0.4,4,8.6,10.6c-1.9,0.7-4.3,1.8-5.8,3.4c0,0,9.4-1.9,15.3,4.6c1.6,1.9,2.1,3.7,1.9,5.9c-0.3,4-1.9,5.5-5.6,8
			c-2.1,0.9-4.4,2-6.6,3.3c-10.4,6.4-18,16.1-23.3,27.2c-2.3,4.8-4.2,10.4-5.5,15.4c-1.3,5.1-1.8,9.6-2.1,12.4
			c-0.3,2.8-0.7,11.7-0.7,11.7s4.7-6.5,6.8-9.6c2.2-3.1,15.9-20.4,36-25.4c6.4-1.6,12.8-2.3,18.9-2.3c14.7,0,27.8,4,35.5,7.8
			c11.3,5.4,29.8,18.3,54,22.3c5.7,0.9,11.9,1.4,18.2,1.4c6.1,0,12.5-0.4,18.8-1.3c-3.6,5.3-7,10.3-10.3,14.9
			c-3.3-3.1-7.8-3.5-7.8-3.5c-5.4-0.5-8.2,2.8-8.2,2.8c-1.1,1.2-1.9,2.7-2.2,4.6c-0.4,1.7,0.1,3.7,0.4,4.6c1,3.3,3.9,4.8,4.9,5.3
			c-7.9,10.6-10.3,22.8-10.3,22.8l-3.6,3.2l1.3,5.3c-2,6.5,1.2,11.4,5.3,13.4c4.2,2.1,8.1,0.9,8.1,0.9c2.5-0.7,4.7-2.2,6.2-4.5
			c0.2-0.3,0.4-0.7,0.6-1c0.8-0.5,1.6-1,2.2-1.5c1.1,0.1,4.1,0.2,4.1,0.2c6-0.1,11.9-1.8,16.4-5.6c3.5-3.2,7.4-8.5,7.6-15.9
			c0-1.4,0.3-7-4.3-11.8c29-42.6,47.9-70.1,59.9-98C237.2,2.9,210-27.9,209.9-28.2z M158.1,150.2c-6.2,9.4-12.1,18.1-16.9,25
			c5.6,4.6,5.2,10.4,5.2,11.5c-0.1,6.2-3.4,10.8-6.4,13.5c-3.7,3.2-8.9,4.7-14.2,4.8c-0.2,0-4-0.1-5.3-0.4c-0.6,0.8-1.7,1.9-3.5,2.6
			c-0.2,0.6-0.5,1.1-0.8,1.7c-1.5,2.2-3.9,3.4-6.4,3.4c0,0-2.5-0.1-4.3-1.3c-2.2-1.5-3.5-3.9-3.5-6.4v-0.1c0-1.2,0.3-2.4,0.9-3.5
			c-0.3-0.6-1.2-4.3-1.2-4.3l2.4-2.1c0.2-0.1,0.8-1,1.4-3.3c0.7-2.2,1.5-5.5,3.3-9.3c2.2-4.9,5.3-9.9,7.6-13.3
			c-0.2-1.1-1.4-1.6-2.2-1.8c-0.9-0.3-2.1-0.8-3-1.9c-1-1.1-1.7-2.7-1.3-4.8c0.4-2,1.7-3.5,3.2-4.2v0c1.7-0.9,3.8-0.5,3.8-0.5
			c4.9,0.5,8.6,5,8.6,5c4.9-6.9,16.4-23.9,16.6-24.3c-15,2.9-30.5,3.3-43.4,1.1c-23.4-3.9-41.5-16.4-53.1-22
			c-11.6-5.7-33.8-11.5-56.7-5.7c-22.9,5.8-38,26.9-38,26.9c6.8-48.1,36.6-56.2,39.5-57.1c4.3-4.1,10-16.5-3.5-24.8
			c-4.6-2.9-8.5-6.5-8.5-6.5c2.8,0.3,9.5-0.5,13.1-2C-4.1,44.6,0,44,0,44c-3.5-3.3-8.8-5-8.8-5c5.3-0.3,13.6-2.2,18.8-4.5
			c5.2-2.3,8-6.5,7.1-8.3c-0.8-1.8-5.5-0.8-5.5-0.8c1.7-2.5,5.7-3.5,5.7-3.5C5.8,21.2-2.6,27.4-2.6,27.4c1.3-2.7,5.5-7.7,5.5-7.7
			c-1.6,0.5-6,1.9-6.3,2c18-13.9,38-26.1,66.1-26.2c28.1-0.2,55.4,12.4,73.7,18.2c18.2,5.8,27.9,8.8,47.6,5.9
			c9.4-1.4,17.7-5.3,23.7-8.9c0,0,4.2-10.8,4.6-26.2c0,0,5.1,9.1,5.1,23.3c0.1,48.6-23.5,84.1-31,97
			C179.1,117.5,169.6,132.7,158.1,150.2z"/>
		<path d="M114.1,188.5C114.1,188.6,114.1,188.6,114.1,188.5C114.1,188.6,114.1,188.5,114.1,188.5
			C114.1,188.5,114.1,188.5,114.1,188.5C114.1,188.5,114.1,188.5,114.1,188.5z M212.2-15.4c-0.3,15.4-4.6,26.2-4.6,26.2
			c-6,3.6-14.3,7.5-23.7,8.9c-19.7,2.9-29.4,0-47.6-5.9C118.1,7.9,90.8-4.6,62.7-4.5C34.6-4.3,14.6,7.9-3.4,21.8
			c0.3-0.1,4.7-1.5,6.3-2c0,0-4.2,4.9-5.5,7.7c0,0,8.4-6.2,19.8-5.6c0,0-4,1-5.7,3.5c0,0,4.7-1,5.5,0.8c0.8,1.8-2,6-7.1,8.3
			C4.8,36.8-3.5,38.7-8.9,39c0,0,5.3,1.7,8.8,5c0,0-4.1,0.6-8.5,2.3c-3.7,1.5-10.3,2.3-13.1,2c0,0,3.9,3.6,8.5,6.5
			c13.5,8.4,7.8,20.8,3.5,24.8c-2.9,0.8-32.7,8.9-39.5,57.1c0,0,15.1-21.1,38-26.9c22.9-5.8,45.1,0,56.7,5.7
			c11.6,5.7,29.7,18.2,53.1,22c12.9,2.1,28.4,1.7,43.4-1.1c-0.2,0.4-11.7,17.4-16.6,24.3c0,0-3.7-4.6-8.6-5c0,0-2.1-0.4-3.8,0.5v0
			c-1.5,0.7-2.8,2.1-3.2,4.2c-0.4,2.1,0.3,3.6,1.3,4.8c0.9,1.1,2.1,1.6,3,1.9c0.8,0.2,2,0.7,2.2,1.8c-2.3,3.5-5.3,8.5-7.6,13.3
			c-1.7,3.8-2.6,7.1-3.3,9.3c-0.7,2.3-1.2,3.1-1.4,3.3l-2.4,2.1c0,0,0.9,3.7,1.2,4.3c-0.6,1.1-0.9,2.3-0.9,3.5v0.1
			c0,2.5,1.2,4.9,3.5,6.4c1.7,1.2,4.3,1.3,4.3,1.3c2.5,0,4.9-1.2,6.4-3.4c0.4-0.5,0.6-1.1,0.8-1.7c1.8-0.7,2.9-1.7,3.5-2.6
			c1.3,0.3,5.2,0.4,5.3,0.4c5.4,0,10.5-1.6,14.2-4.8c3-2.7,6.3-7.3,6.4-13.5c0-1.1,0.3-6.9-5.2-11.5c4.8-7,10.7-15.6,16.9-25
			c11.6-17.5,21-32.7,28.2-45.4c7.5-12.9,31.1-48.4,31-97C217.3-6.4,212.2-15.4,212.2-15.4z M148.5,135c2.6-0.6,5.2-1.3,7.7-2.1
			c0.1,0,0.1,0,0.2-0.1c-2.6,3.9-22.9,32.9-24.3,34.8c-0.1-0.1-3.6-3.1-3.7-3.2C133.6,157.3,148.3,135.4,148.5,135z M117.3,177.1
			c1.1-1.9,2.3-3.8,3.5-5.6c0.1-0.1,0.1-0.2,0.2-0.3c-0.1,0.4-0.2,2.5,0.5,4.6c0.4,1,1.1,2,2.1,3c0.9,0.9,1.7,1.5,2.3,2.1
			c-3.1,4-7.6,11.6-7.6,11.6c-1.9,0.1-2.8-0.5-3.9-2.8c-0.2-0.3-0.3-0.7-0.4-1.1v0c-0.6-2.4-0.1-5.4,0-5.5
			C114.1,182.9,116.3,178.9,117.3,177.1z M129.1,185.2c0.8,0.4,2,1.2,2.6,2.4c0.1,0.3,0.2,0.6,0.2,0.9c0.1,1.4-1.5,3.4-2.9,3.9
			c-1,0.4-2.4,0.6-3.7,0.6c-0.4,0-0.8,0-1.2-0.1c0.4-0.6,0.8-1.4,1.3-2.2C126.5,188.9,127.9,186.8,129.1,185.2z M136.6,196.3
			c-2.5,2.2-6.8,3.6-11.3,3.5c-4-0.1-6.8-0.7-9.3-2.1c0,0,0,0.1,0,0.1c-0.2,0.2-0.6,1.1-3.5,1.5c-2,0.3-3.1-0.1-3.2-0.1
			c3.5,3.5,6.6,1.3,6.6,1.3c0.1,0.6,0.4,1,0.4,1s-1,1.5-4.2,1c-0.4-0.1-0.7-0.2-1-0.3c0.1,0,0.1,0.1,0.2,0.1
			c1.2,0.8,1.5,2.4,0.7,3.6c-0.8,1.2-2.4,1.5-3.6,0.7c-1.2-0.8-1.5-2.4-0.7-3.6c0.7-1,1.9-1.4,2.9-1.1c-2.4-1.1-3-3.5-3-3.5
			c3-2.7,2.9-7.5,6-14.3c0.1-0.3,0.3-0.6,0.5-0.9c0,0,0,0,0,0c-0.7,1.7-1.3,4.6-1,6.7c0.1,0.5,0.1,0.9,0.3,1.3v0
			c0,0.2,1.1,4.4,3.9,3.7c0,0.1-0.4,1-0.4,1c1.2,0.8,4.1,2.1,8.9,2.2c6.8,0.1,10.5-4.4,11.5-7.7c0.8-2.6-0.4-5.5-3-8
			c0.8-0.9,1.2-2.1,0.7-3.8c0.2,0.8-1.2,2.1-2.7,2c-0.1,0-0.3,0-0.4-0.1c-2.3-0.6-4.9-3.5-7.2-5.1c-2.2-1.7-2.9-4.2-2.8-6.1
			c0-1.8-0.6-4-2.3-5.6c-1.7-1.6-3.3-1.8-3.8-1.9c-0.5-0.1-0.6-0.4-0.6-0.8c0.1-0.5,0.8-0.4,0.8-0.4c4.2,0.8,7.3,5,8,6.3
			c0.6,1.1,7.3,6.3,9.9,8.6c1.2,0.9,6.4,4.9,7.4,9C142.1,189.5,139.1,194.1,136.6,196.3z M137.6,172.2c0,0-0.1-0.1-0.1-0.1
			c-0.7-0.6-1.6-1.4-2.6-2.2c1.6-2.3,20.2-29.9,25.6-38.4c1.9-0.7,3.8-1.4,5.6-2.2C162.4,135.1,142.4,165.3,137.6,172.2z
			 M172.1,121.7c-12.8,6-42.3,15.8-71.7,10.4c-10.2-1.9-23.7-5.1-41.5-15.9c-11.7-7.1-24.3-13.8-53.7-13.7
			c-24.3,0.1-40,11.1-44.9,15.2C-26.4,74.7,12.7,81,12.7,81C5.5,77.6-3,78.9-3,78.9c12.2-19.2-7.5-28.3-7.5-28.3
			c1.7,0,9.1-2.2,13-3.5c3.8-1.3,10.8-2.2,10.8-2.2c-2.4-2.3-10-4.1-10-4.1c7.1,0,13.6-3.5,18.1-8.2c1.6-1.6,5.9-9.8,1-13
			C17.9,16.8,9.1,20,9,20c0,0,26.6-28.7,81.5-16.4c26,5.8,55.4,21.1,82.5,21.2c9.1,0.1,29.2-2.9,41.2-15
			C213.5,32.8,209.2,64.9,172.1,121.7z M114.1,188.5C114.1,188.5,114.1,188.5,114.1,188.5C114.1,188.6,114.1,188.6,114.1,188.5
			C114.1,188.6,114.1,188.5,114.1,188.5C114.1,188.5,114.1,188.5,114.1,188.5z"/>
		<path class="st4" d="M173,24.8c-27.1-0.2-56.4-15.4-82.5-21.2C35.6-8.6,9.1,20,9,20c0,0,8.9-3.2,13.4-0.3c4.9,3.2,0.6,11.3-1,13
			c-4.5,4.7-11,8.2-18.1,8.2c0,0,7.6,1.8,10,4.1c0,0-7,0.9-10.8,2.2c-3.8,1.3-11.3,3.5-13,3.5c0,0,19.7,9,7.5,28.3
			c0,0,8.6-1.3,15.7,2.1c0,0-39-6.3-52.2,36.8c5-4.1,20.6-15.1,44.9-15.2c29.4-0.1,42,6.6,53.7,13.7c17.8,10.8,31.2,14,41.5,15.9
			c29.4,5.5,58.9-4.4,71.7-10.4c37.1-56.8,41.4-89,42-111.9C202.2,21.9,182.1,24.9,173,24.8z M152.8,90.5
			c-13.1,9.3-33.7,12.1-33.7,12.1c-0.2,0.9-1.6,1.8-1.6,1.8s2.1,0.8,7.3,4.7c5.2,3.9,3.8,3.7,5.4,4.8c1.6,1.1,2.6,0.8,2.6,0.8
			c0.5,1,0.6,2.5,0.6,2.5c0.7,0.6,4.1,3.9,0.9,7.2c-3.1,3.3-6.8,0.2-6.8,0.2c-1.3,0.3-2.5-0.2-2.5-0.2s-6.7,4.2-13.4-0.4
			c-5.4-3.7-5.1-8.2-4.8-9.7c-1.8,1-3.8,1.9-5.8,2.5c-5.4,1.7-12.4,2.4-19.3,0.1c-4.5-1.5-8.3-4.2-11.2-7.1c-3-2.9-5.2-6.2-6.6-9.1
			c-0.2-0.4-0.4-0.9-0.6-1.3c-0.5,1.1-2.7,5.4-9.8,5.1c-8.1-0.3-10.9-7.8-10.9-7.8s-1.2-0.4-2.1-1.4c0,0-4.7,0.3-5.2-4.3
			c-0.5-4.5,4.1-5.1,5.1-5.2c0,0,0.9-1.2,1.9-1.6c0,0,0.6,0.8,2.5,0.9c2,0.1,0.8-0.6,7.2-0.6c6.5,0,8.6,0.7,8.6,0.7
			s-0.5-1.6-0.2-2.4c0,0-14.7-14.7-19.6-30c-4.9-15.3-3.4-21,2.5-37.2c0,0,4.4,27.5,17.8,44.9c7.7,9.9,16.3,17.6,22.3,22.4
			c0.1,0,0.3,0,0.4,0c-1.3-1.4-2.3-3.1-2.7-5c-1.2-4.7-3.2-9.1-4.1-12.7c-0.9-3.5,1.1-10.5,1.1-10.5c-2.7-4.3-1.4-11.4-1.4-11.4
			s1.5-0.7,2.6-2c1.1-1.4,0.7-5.3,1.6-11.2c0.9-5.9,4.7-12,13.2-15.4c8.4-3.4,21.1,1.1,21.2,1.1c0.1,0,12.9,4.1,17.6,11.9
			c4.7,7.9,4.1,15,1.2,20.3c-2.8,5.2-5.5,8.2-5.5,9.9c0.1,1.7,0.8,3.2,0.8,3.2s-3.2,6.5-8,8.3c0,0-2.6,6.8-5.5,9.1
			c-2.8,2.3-7.1,4.6-10.9,7.6c-1.5,1.2-3.2,2-5.1,2.3c0.1,0.1,0.2,0.2,0.4,0.3c7.7-0.2,19.2-1.1,31.2-4.4c21.2-5.7,41.3-25,41.3-25
			C168.2,75.8,166,81.2,152.8,90.5z"/>
		<g>
			<path d="M104.5,60.7l0.3-0.9c0.3-1-0.4-1.4-0.4-2.9c-0.1-0.8-0.1-1.6,0.2-2.5c0.2-0.7-0.2-1.6-0.9-1.9c-0.1,0-0.1,0-0.2-0.1
				c0,0-0.1,0-0.1,0c-0.8-0.2-1.7,0.2-1.9,0.9c-0.3,0.9-0.8,1.5-1.4,2.1c-1,1.2-1.8,1.1-2.1,2.1l-0.3,0.9c-0.2,0.5,0,1.1,0.4,1.5
				c0.2,0.2,0.4,0.4,0.7,0.5c0.9,0.3,1.8-0.1,2.1-0.9c0-0.1,0.2-0.2,0.3-0.2c0.1,0.1,0.2,0.2,0.2,0.3c-0.3,0.8,0.2,1.7,1.1,2
				c0.3,0.1,0.6,0.1,0.8,0.1C103.9,61.6,104.4,61.2,104.5,60.7z"/>
			<path d="M108.5,51.3c0,1,0.4,5.1,2.1,6.1h0c0,0,0,0,0,0c1.8,1.2,5.4,1.8,7.2,1.6c0.2,0,0.7-0.2,0.7-0.2c0,0,0,0,0,0
				c0.8-0.4,1.5-0.8,2.1-1.4c0.8-0.9,1.5-2,2-3.1c0.2-0.5,0.4-1,0.5-1.5c0,0,0.4-1.7,1.1-2c0.1,0,0.2,0,0.2,0l0.1,0l0,0
				c0,0-2.2-0.6-4.8-0.3c-0.2,0-0.5,0.1-0.7,0.1c-2.8,0.5-5.5,1-7.3,0.3c-0.6-0.2-1.1-0.5-1.6-0.9c0,0,0,0,0,0
				c-0.1-0.1-0.2-0.2-0.3-0.3v0c-0.6-0.6-1-1.1-1.1-1.3c0,0,0,0,0,0C108.6,48.5,108.5,50.2,108.5,51.3z"/>
			<path d="M87.9,38.7c0.4,0.6-0.3,2.2-0.3,2.2c-0.2,0.5-0.3,0.9-0.5,1.4c-0.4,1.6-0.6,3.7,0.1,5.3c0,0.1,0.5,0.8,0.4,0.8
				c0,0-0.1,0.1-0.1,0.1c0,0,0.1-0.1,0.1-0.1c0,0,0.3,0.4,0.4,0.5c1.3,1.2,4.5,3,6.7,3.1c0,0,0,0,0.1,0c2,0.2,4.8-2.8,5.4-3.6
				c0.6-0.8,1.6-2.3,1.6-2.3s-0.7,0.2-1.7,0.4v0c-0.1,0-0.3,0-0.5,0c0,0,0,0,0,0c-0.6,0-1.2,0-1.8-0.2c-1.8-0.6-3.7-2.6-5.6-4.7
				c-0.2-0.2-0.3-0.4-0.5-0.5c-1.8-1.7-3.9-2.6-4-2.7c0,0,0,0,0,0l0,0C87.8,38.6,87.8,38.6,87.9,38.7z"/>
			<path class="st3" d="M92.8,84.3C92.8,84.3,92.8,84.3,92.8,84.3C92.8,84.3,92.8,84.3,92.8,84.3c1.1,0.4,2.2,0.7,3.3,0.8
				c1.1,0.1,2.3,0.1,3.6-0.1c2.7-0.5,5.8-3.3,7-4.1c1.2-0.8,5.6-3.7,6.6-4.4c1-0.7,1.8-1.3,2.9-3c1-1.7,2.8-5.8,2.8-5.8
				s-1.7-0.3-2.2-0.4c0,0,0,0,0,0c-0.2,0.4-2.2,3.9-3,4.7c0,0,0,0-0.1,0c0.4,0.2,1.7,1,1.9,2c0,0-2.1,1.9-4.7,3.1
				c-2.6,1.1-6.5,3.6-8.1,4.7c-0.6,0.4-1.4,0.7-2.4,0.9c-0.6-1.1-2.8-2.5-5.6-3.5c-2.9-1-5.6-1.2-6.7-0.6c-0.8-0.8-1.3-1.6-1.5-2.4
				c-0.6-1.8-2.3-6.1-3.6-8.6c-1.4-2.5-1.9-5.3-1.9-5.3c0.9-0.7,2.9-0.4,2.9-0.4c0-0.1,0-0.3,0-0.5c0-1.5,0.4-4.5,0.5-5c0,0,0,0,0,0
				c-0.5-0.3-2-1-2-1s0,0,0,0c-0.1,0.5-1,4.3-1.3,6.2c-0.2,2,0.1,3,0.5,4.1c0.4,1.2,2.1,6.1,2.6,7.5c0.1,0.2,0.1,0.4,0.2,0.6
				c0.5,1.7,1.3,5.1,2.9,6.8C88.8,82.7,90.6,83.6,92.8,84.3z"/>
			<path class="st3" d="M98.8,40c2,2.3,5.1,5.1,7,5.7c1.9,0.6,6.1,0.2,9-0.4c3-0.5,7.4,0,7.4,0c-1.8-2.3-8-1.6-11.5-1.4
				c-3,0.2-3.9-0.2-4.1-0.3c-0.2-0.1-1.2-0.2-3.5-2.3c-2.7-2.2-7.2-6.5-10.1-5.8C92.9,35.6,96.7,37.9,98.8,40z"/>
			<path class="st3" d="M87.2,50.8c-0.1-0.1-1-1.4,0.2-2.1c0,0,0.1-0.1,0.1-0.1c0,0,0.1-0.1,0.1-0.1c0,0-0.4-0.8-0.4-0.8
				c-0.7-1.6-0.5-3.7-0.1-5.3c0.1-0.5,0.3-1,0.5-1.4c0,0,0.7-1.6,0.3-2.2c-0.1-0.1-0.1-0.1-0.2-0.2l0,0l0,0c0,0-2.3,4.2-2.5,6.4
				C85,47.1,84.8,49.1,87.2,50.8z"/>
			<path class="st3" d="M94.8,52.1c0,0,0,0.7-1.4,1.7c0,0,2.3,0.8,4.1-0.2c1.8-1,4.1-5.4,7.1-4.4c3,1,2.2,6,3,7.8
				c0.8,1.8,3,2.6,3.1,2.7c-0.6-1.6-0.1-2.2-0.1-2.2h0c-1.8-1.1-2.1-5.1-2.1-6.1c0-1,0.1-2.8,0.1-2.8c-1.3,0.7-6.2-0.9-6.8-2.3
				c0,0-1,1.5-1.6,2.3C99.6,49.3,96.8,52.3,94.8,52.1z"/>
			<path class="st3" d="M124.2,50.9c-0.7,0.3-1.1,2-1.1,2c-0.1,0.5-0.3,1-0.5,1.5c-0.5,1.1-1.1,2.2-2,3.1c-0.6,0.7-1.3,1-2.1,1.4
				c0,0.1,0.1,0.2,0.1,0.3c0.5,1.3-1.1,1.8-1.1,1.8c2.9,0.2,4-1.6,5.2-3.4c1.2-1.9,1.9-6.6,1.9-6.6l-0.1,0
				C124.4,50.8,124.3,50.9,124.2,50.9z"/>
			<path class="st3" d="M84.4,54.7c1.1,0.5,2.3,1,3.3,1.6c1.6,0.9,3.4,2,4,3.8c0,0,0,0,0,0.1c0.2,0.5,0.2,1,0.1,1.5
				c0-0.1,0-0.1-0.1-0.2c-0.1-0.3-0.4-0.5-0.6-0.8c0,0,0,0,0,0c-0.4-0.4-0.8-0.8-1.2-1.1c0,0,0,0,0,0l0,0c0,0-0.3,1.2-0.9,2.1
				c-0.3,0.5-0.6,1.1-1,1.9c0,0,0,0,0,0c-0.7,1.8,0.1,3.6,0.3,3.7c0.2,0,0.7-0.2,1.6-2.7c0-0.1,0.1-0.2,0.1-0.3c0-0.1,0-0.3-0.1-0.5
				c0,0,0,0,0,0c0.1-0.4,0.6-0.4,1-0.3c0.1,0,0.2,0,0.3,0.1c0.2-0.5,0.4-1.2,0.6-1.7c0.4-1.4,0.3-3.3-1.3-5.2
				c-1.6-1.8-5.7-3.2-7.3-4c-1.6-0.8-2.9-4.5-2.8-7.1c0,0-0.1,1.4-0.1,2.9c0,0.6,0,1.2,0.1,1.7c0,0.2,0.1,0.5,0.1,0.7
				C81,52.2,81.1,53.2,84.4,54.7z"/>
			<path class="st3" d="M107.3,69.4c0.1,0.1,0.3,0.1,0.4,0.3c0.2,0.2,0.2,0.3,0.2,0.3c-0.2,0-0.3,0.1-0.5,0.1
				c-0.1,0-0.5,0.1-0.5,0.3c-0.8,2.5-0.5,3-0.4,3.1c0.2,0.1,1.9-0.9,2.4-2.7c0,0,0.3-1.5,0.4-2.1c0.1-1,0.5-2.1,0.6-2.2l0,0
				c0,0,0,0,0,0c-1.8-0.1-2.8,0.6-2.8,0.6s-0.5,0.9-0.6,2.1C106.5,69,107.2,69.3,107.3,69.4z"/>
			<path class="st3" d="M119.6,64.8c-1.7-0.3-5.8-1.7-8.2-1.2c-2,0.4-3.1,1.5-3.8,2.6c0,0,0,0,0,0c0,0,0,0,0,0
				c1.3-1.5,3.7-1.5,5.5-1.2c1.4,0.2,2.8,0.5,4.2,0.8c3.5,0.8,4.2,0.1,5.4-0.9c1.1-0.8,2-2.1,2.7-3.3c0,0,0,0,0-0.1
				C123.9,63.4,121.1,65.1,119.6,64.8z"/>
			<path class="st3" d="M105.2,57.5L105.2,57.5L105.2,57.5c-0.1-0.8-0.1-1.4,0.1-2.1c0.4-1.1-0.3-2.4-1.6-2.9
				c0.8,0.3,1.2,1.2,0.9,1.9c-0.3,0.9-0.3,1.7-0.2,2.5c0,1.5,0.7,2,0.4,2.9l-0.3,0.9c-0.2,0.5-0.7,0.9-1.2,1c0,0,0,0,0,0
				c-0.3,0.9-1.2,1.1-1.2,1.1s0,0,0,0c1.4,0.5,2.8-0.1,3.2-1.3l0.3-0.9c0.2-0.7,0.1-1.3-0.1-1.7C105.3,58.5,105.2,58.1,105.2,57.5z"
				/>
			<path class="st3" d="M97.7,58.4l0.3-0.9c0.3-1,1.1-0.9,2.1-2.1c0.5-0.6,1-1.2,1.4-2.1c0.2-0.7,1.1-1.2,1.9-0.9
				c-1.3-0.4-2.7,0.2-3.1,1.4c-0.2,0.7-0.6,1.2-1.2,1.8v0l0,0c-0.4,0.5-0.7,0.7-1.1,0.9c-0.4,0.2-0.9,0.6-1.1,1.3l-0.3,0.9
				c-0.4,1.2,0.4,2.5,1.8,3c0,0-0.6-0.7-0.3-1.6c0,0,0,0,0,0C97.7,59.5,97.5,58.9,97.7,58.4z"/>
			<path class="st2" d="M80.8,62.3c0,0,0.5,2.8,1.9,5.3c1.4,2.5,3,6.8,3.6,8.6c0.3,0.7,0.7,1.5,1.5,2.4c1.1-0.6,3.8-0.4,6.7,0.6
				c2.8,0.9,5,2.3,5.6,3.5c1-0.2,1.8-0.5,2.4-0.9c1.6-1,5.5-3.5,8.1-4.7c2.6-1.1,4.7-3.1,4.7-3.1c-0.2-0.9-1.5-1.7-1.9-2
				c-0.3,0-1.3,0.3-1.8,0.6c-0.6,0.4-2.7,3.6-5.5,4.8c0.3-1.6-0.8-2.4-1-2.4c-0.3,0-0.5,0.7-0.5,0.8c-0.1,0.2-0.6,1.2-0.8,1.7
				c-0.2,0.5-0.1,0.5-0.1,0.5c-0.5,0-0.9,0-1.3-0.1c0.4-0.8,0.8-1.6,1.2-2.4c0.3-0.7-0.5-0.8-0.5-0.8l0,0c-0.4-0.1-0.8-0.1-1.2-0.2
				c0,0,0,0,0,0c-0.5-0.1-0.8,0.2-0.9,0.4c0,0.1-0.1,0.3-0.2,0.4c-0.2,0.4-0.4,0.9-0.6,1.3c0,0,0,0.1,0,0.1c-0.2,0.6,0,1,0,1
				c-0.2,0-0.5,0-1.2-0.1c-0.3-0.1-0.7-0.2-0.7-0.2c0.2-0.2,0.4-0.5,0.4-0.5l0,0c0.4-1,1-2.5,1-2.5s0.2-0.7-0.2-0.8
				c-0.6-0.1-1.1-0.3-1.7-0.5c-0.4-0.1-0.6,0.3-0.7,0.4c-0.1,0.2-0.2,0.6-0.3,0.7c-0.2,0.6-0.4,1.2-0.7,1.9c0,0,0,0,0,0
				c-0.1,0.4,0,0.8,0,0.8s-0.6-0.1-0.8-0.2c-0.3-0.1-0.7-0.4-0.7-0.4c0.1-0.1,0.2-0.3,0.2-0.4c0.3-0.9,0.5-2.1,0.7-3.1
				c0-0.1,0-0.5-0.4-0.7c-0.5-0.2-1-0.4-1.4-0.6c-0.4-0.1-0.6,0.2-0.7,0.4c-0.2,0.9-0.4,1.9-0.6,2.7c-0.1,0.5,0.2,0.9,0.2,0.9
				c-0.2-0.1-0.7-0.3-1-0.4c-0.2-0.1-0.8-0.4-0.8-0.4c0.3,0,0.4-0.6,0.4-0.6c0.3-0.6,0.5-1.2,0.7-1.8c0,0,0-0.1,0-0.1c0,0,0,0,0-0.1
				c0.2-0.6-0.2-1-0.3-1c-0.6-0.3-1.3-0.7-1.3-0.7c-0.4-0.2-0.6,0.1-0.7,0.3c-0.3,0.7-0.6,1.3-0.8,2.1c-0.1,0.4,0,0.7,0,0.7
				c-0.9-0.4-1.2-1.1-1.2-1.1c0.2-0.2,0.5-1.1,0.5-1.9c0-0.8,0.1-1.6-0.3-1.8c-0.4-0.3-1,0.4-1.3,0.9c-0.3,0.5-0.4,0.8-0.4,0.8
				c0,0,0,0,0,0.1c-1.5-2.6-1.3-6.5-1.5-7.2c-0.2-0.7-1.1-1.6-1.1-1.6S81.7,61.6,80.8,62.3z"/>
			<path class="st2" d="M103.5,52.4c0.1,0,0.1,0,0.2,0.1C103.6,52.4,103.6,52.4,103.5,52.4z"/>
			<path class="st3" d="M145,86.6l-0.1,0.1c0,0-14.5,8.6-36.4,10.2c0.7,1,1.3,2.1,1.8,3.1c6.8-0.4,13.8-1.3,20.3-3.1
				c4.2-1.2,8.3-2.6,12.2-4.5c3.9-1.9,7.8-4.1,11.2-6.8c2.2-1.8,4.3-3.7,6.2-5.8c2.6-2.9,5-6.4,6.3-10.1c0,0,0.1-0.3,0.1-0.3
				C166.6,69.4,162.4,79.1,145,86.6z"/>
			<path class="st2" d="M104.7,92.2c0.9,0.9,1.7,1.8,2.4,2.8c0,0,2.3-0.2,2.7-0.2c4-0.3,8.1-0.8,12-1.5c9.8-1.8,17.3-4.3,20.8-5.6
				c0.8-0.3,1.6-0.7,2.4-1c17.4-7.5,21.6-17.2,21.7-17.4c0,0-0.7,0.6-1.8,1.5c-0.5,0.4-1,0.8-1.6,1.3c-6.5,5.2-20.2,14.4-42.4,18.4
				C115.5,91.4,110,92,104.7,92.2z"/>
			<path class="st4" d="M108,108.8c-4.5,2.8-14.5,5.5-24.2,2.2C74.3,107.9,68,99.8,66,94.8c-0.2-0.5-0.3-1.9,1.1-2.5
				c0,0-0.9,0.1-1.7,0.8c0,0-0.1,0.1-0.1,0.3c-1.1,3.2,5.4,16.6,17.5,20.7c12.1,4.1,25.3-2.4,26.4-6c0.1-0.3,0.1-0.5,0.1-0.5
				c-0.3-0.9-0.8-1.4-0.8-1.4C109.2,107.5,108.5,108.5,108,108.8z"/>
			<path class="st5" d="M91.7,87.4c-11.2-3.8-23.3,1.8-26,5.2c-0.1,0.1-0.2,0.3-0.3,0.4c0,0,0,0,0,0.1c0.8-0.6,1.7-0.8,1.7-0.8
				c-1.4,0.6-1.3,2-1.1,2.5c2,4.9,8.3,13,17.8,16.2c9.7,3.2,19.7,0.6,24.2-2.2c0.5-0.4,1.2-1.3,0.5-2.6c0,0,0.5,0.5,0.8,1.4
				c0.1-0.8-0.1-2-0.5-3.4C107,98.9,101,90.5,91.7,87.4z M98.8,100.2c0,0.2,0,0.3,0,0.5c-0.4-0.2-0.8-0.4-1.2-0.6
				c-0.2,0.9-0.4,1.8-0.7,2.7c-0.6-0.4-1.2-0.7-1.9-1c0.3-0.9,0.5-1.7,0.7-2.6c-0.7-0.3-1.4-0.6-2-0.9c-0.2,0.8-0.4,1.6-0.7,2.5
				c-0.6-0.3-1.3-0.6-1.9-0.8c0.3-0.8,0.5-1.6,0.7-2.4c-0.7-0.3-1.4-0.5-2.1-0.8c-0.2,0.8-0.5,1.5-0.7,2.3c-0.7-0.2-1.3-0.5-2-0.7
				c0.3-0.8,0.5-1.5,0.8-2.3c-0.7-0.2-1.4-0.4-2.1-0.6c-0.3,0.8-0.6,1.5-0.9,2.3c-0.7-0.2-1.4-0.3-2.1-0.5c0.3-0.8,0.6-1.6,1-2.4
				c-0.7-0.2-1.5-0.4-2.2-0.5c-0.4,0.8-0.7,1.6-1,2.4c-0.7-0.1-1.4-0.2-2.1-0.3c0.3-0.9,0.7-1.7,1.1-2.6c-0.5-0.1-0.9-0.2-1.3-0.2
				c0.1-0.1,0.2-0.3,0.3-0.4c-4.1-0.7-7.9-1-10.9-1.1c2.5-0.6,6.8-0.8,11.8-0.2c0,0,0.1-0.1,0.1-0.1c0.4,0,0.8,0.1,1.2,0.2
				c0.3-0.5,0.7-1,1.1-1.5c0.7,0.1,1.3,0.2,1.9,0.3c-0.4,0.5-0.7,1-1,1.5c0.7,0.1,1.4,0.3,2.1,0.4c0.3-0.5,0.6-1,0.9-1.6
				c0.6,0.1,1.2,0.3,1.8,0.4c-0.3,0.5-0.5,1.1-0.8,1.6c0.7,0.2,1.3,0.4,2,0.6c0.2-0.6,0.4-1.1,0.6-1.7c0.6,0.2,1.1,0.4,1.7,0.6
				c-0.2,0.6-0.3,1.1-0.5,1.7c0.7,0.2,1.3,0.5,1.9,0.7c0.1-0.6,0.2-1.2,0.3-1.7c0.6,0.2,1.1,0.5,1.7,0.7c-0.1,0.6-0.1,1.2-0.2,1.8
				c0.7,0.3,1.3,0.6,1.9,0.9c0.1-0.6,0.1-1.2,0.1-1.8c0.6,0.3,1.1,0.6,1.7,0.9c0,0.6,0,1.2,0,1.8c0.3,0.2,0.7,0.4,1,0.6
				c0,0.1,0,0.2,0,0.3c4.3,2.5,7.4,5.2,9,7.1C105.5,104,102.4,102,98.8,100.2z"/>
			<path d="M67.5,92.2c3,0,6.8,0.3,10.9,1.1c0.3-0.4,0.6-0.9,1-1.3C74.2,91.4,70,91.7,67.5,92.2z"/>
			<path d="M98.8,98.6c0,0.5,0,1.1,0,1.6c3.6,1.8,6.7,3.8,9.1,5.5C106.2,103.8,103.1,101.1,98.8,98.6z"/>
			<path class="st2" d="M98.8,98.6c0-0.1,0-0.2,0-0.3c-0.3-0.2-0.7-0.4-1-0.6c0-0.6,0-1.2,0-1.8c-0.6-0.3-1.1-0.6-1.7-0.9
				c0,0.6,0,1.2-0.1,1.8c-0.6-0.3-1.3-0.6-1.9-0.9c0.1-0.6,0.2-1.2,0.2-1.8c-0.6-0.3-1.1-0.5-1.7-0.7c-0.1,0.6-0.2,1.2-0.3,1.7
				c-0.6-0.3-1.3-0.5-1.9-0.7c0.2-0.6,0.3-1.1,0.5-1.7c-0.6-0.2-1.1-0.4-1.7-0.6c-0.2,0.5-0.4,1.1-0.6,1.7c-0.7-0.2-1.3-0.4-2-0.6
				c0.3-0.5,0.5-1.1,0.8-1.6c-0.6-0.1-1.2-0.3-1.8-0.4c-0.3,0.5-0.6,1-0.9,1.6c-0.7-0.2-1.4-0.3-2.1-0.4c0.3-0.5,0.7-1,1-1.5
				c-0.6-0.1-1.3-0.2-1.9-0.3c-0.4,0.5-0.8,1-1.1,1.5c-0.4-0.1-0.8-0.1-1.2-0.2c0,0-0.1,0.1-0.1,0.1c-0.3,0.4-0.6,0.8-1,1.3
				c-0.1,0.1-0.2,0.3-0.3,0.4c0.4,0.1,0.9,0.2,1.3,0.2c-0.4,0.8-0.8,1.7-1.1,2.6c0.7,0.1,1.4,0.2,2.1,0.3c0.3-0.8,0.6-1.7,1-2.4
				c0.7,0.2,1.4,0.3,2.2,0.5c-0.3,0.8-0.7,1.6-1,2.4c0.7,0.2,1.4,0.3,2.1,0.5c0.3-0.8,0.6-1.6,0.9-2.3c0.7,0.2,1.4,0.4,2.1,0.6
				c-0.3,0.8-0.5,1.5-0.8,2.3c0.7,0.2,1.3,0.4,2,0.7c0.3-0.8,0.5-1.6,0.7-2.3c0.7,0.2,1.4,0.5,2.1,0.8c-0.2,0.8-0.4,1.6-0.7,2.4
				c0.7,0.3,1.3,0.5,1.9,0.8c0.3-0.8,0.5-1.6,0.7-2.5c0.7,0.3,1.4,0.6,2,0.9c-0.2,0.9-0.4,1.7-0.7,2.6c0.6,0.3,1.2,0.7,1.9,1
				c0.3-0.9,0.5-1.8,0.7-2.7c0.4,0.2,0.8,0.4,1.2,0.6c0-0.2,0-0.3,0-0.5C98.8,99.6,98.8,99.1,98.8,98.6z"/>
			<path class="st2" d="M49.8,54.8l0.6,1.1c0.4,0.7,0.9,1.6,1.6,2.6c3.2,5.1,7.4,10.5,13,16.1c0,0,7,6.9,10,9.5
				c1.2-0.3,2.4-0.6,3.6-0.8c-4.1-3.4-8.2-7.2-12-11.2C47.7,51.8,44.1,32.8,42.9,27.7C42.9,27.7,41.1,38.9,49.8,54.8z"/>
			<path class="st3" d="M67.4,84.6c0.2,0.2,1.8,1.8,2,1.7c1-0.5,2.1-0.9,3.3-1.4c-16.7-14.5-23-30.2-23-30.2l0,0.1
				c-8.7-16-6.9-27.2-6.9-27.2S42.8,28,42.8,28c-0.7,2.1-1,4.5-1.1,6.8c-0.2,3.8,0.2,7.7,1,11.4c0.9,4,2.2,7.8,3.9,11.5
				c1.7,3.8,3.9,7.4,6.2,10.8c2.9,4.2,6.3,8.1,9.9,11.7C64.2,81.6,65.8,83.1,67.4,84.6z"/>
			<path class="st3" d="M50.5,56l-0.6-1.1C50,55.2,50.2,55.6,50.5,56z"/>
			<path class="st3" d="M48,90.8c-0.1,0.3-0.2,0.6-0.2,0.8c0,0.3,0.2,0.6,0.3,0.8c0,0,5.2,0.3,8.4,1.2c0.1-0.5,0.3-1,0.5-1.7
				c0.1-0.4,0.3-0.8,0.5-1.1c0,0,0,0,0,0C56.2,90.6,50.8,90.5,48,90.8z"/>
			<path class="st2" d="M48,90.8c2.8-0.3,8.2-0.3,9.5,0c0,0,0,0,0,0c0.8-1.2,1.9-1.8,2.8-2.1c-1.4-0.2-3-0.4-4.4-0.5
				c-0.7-0.1-1.4-0.1-2.1-0.1c-0.4,0-0.9,0-1.3,0c-0.9,0.2-2,0.5-2.7,1C48.9,89.5,48.3,90.2,48,90.8z"/>
			<path class="st2" d="M46.8,90.9c0,0,0.2-0.3,0.2-0.3c0.3-0.6,1-1.2,1.6-1.5c0,0,0,0,0,0c1-0.6,2.7-1,3.7-1.1c0,0-0.4,0-0.6,0
				c-1.3,0-2.6,0.1-3.8,0.3c-1.1,0.2-2.2,0.4-3.3,0.3c-0.3,0-0.7,0-1-0.1c0,0,0,0,0,0c0,0,0,0,0,0c-0.3-0.1-0.6-0.1-0.9-0.3
				C42.8,88.3,43.4,90.9,46.8,90.9z"/>
			<path class="st3" d="M64.1,83.1c-0.2,0.1-0.3,0.2-0.3,0.5c0,0.3,0.3,1.1-0.1,2.4c-0.4,1.3-1.4,2.2-2.4,2.6
				c-1,0.4-2.1,1.4-2.5,2.9c-0.3,1.6-1.2,3.6-0.9,5c0.1,0.5,0.6,1.2,1.8,1.2c-0.8,0.7-1.6,0.6-2.2,0.3c-1,1.8-2.4,2.5-5.1,2
				c-2.7-0.5-6.2-3.2-6.9-7.6c0-0.1,1.3-0.1,1.4-0.1c0,0,0,0,0,0c-0.2-0.2-0.3-0.5-0.3-0.8c0-0.2,0.1-0.4,0.2-0.7
				c-3.4,0-4-2.6-4-2.6c0,0-1.1,0.9-1.1,2.3c-0.1-0.6-0.6-1.1-1.2-1.2c-0.8-0.1-1.6,0.4-1.7,1.3c-0.1,0.8,0.4,1.6,1.3,1.7
				c0.8,0.1,1.6-0.4,1.7-1.3c0,0,0,0,0-0.1c0,0.2,0.1,0.4,0.1,0.5c0.1,0.5,0.3,0.9,0.5,1.2c0.5,0.7,1,0.8,1,0.8c0,0,0.1-0.1,0.1-0.1
				c0,0,0.3-0.4,0.4-0.3c-0.3-0.2-1.8-1.3-0.9-3.8c0,0-0.1,2.2,1.8,3.4c0.2,0.9,1.6,6.3,6.9,8c5.8,1.8,8-0.9,8.5-2
				c0.2-0.5,0.8-2,0.8-2c0.5-1.4,1.8-7,2.3-7.7c0.5-0.7,1.9-3.3,1.3-5.7C64.5,83.5,64.4,83.1,64.1,83.1z"/>
			<path class="st2" d="M116,107.4c0.5,0.7,1.1,1.9,1,3.4c1.2,0.6,5.5,3.8,7.6,5.8c0.1-0.7,0.1-1.5-0.2-2.5
				c-0.3-0.8-0.9-1.7-1.6-2.4c-0.1-0.1-0.2-0.1-0.2-0.2c-0.6-0.5-1.3-0.9-2-1.3c-0.9-0.6-1.9-1.2-2.8-1.7c-0.5-0.3-0.9-0.5-1.4-0.8
				C116.2,107.5,116.1,107.5,116,107.4z"/>
			<path class="st2" d="M125.2,114.8c0.2,0.6,0.4,1.4,0.3,2c0,0.2,0,0.3-0.1,0.5c0,0,0,0,0,0c0.1,0.1,0.2,0.2,0.4,0.3
				c0.2,0.1,0.4,0.2,0.6,0.3c0.3,0.2,0.7,0.3,1,0.4c0.2,0.1,0.5,0.1,0.8,0.1c0.7,0,1.4-0.3,2-0.7c0,0,0,0,0,0
				c-0.3-0.1-0.6-0.2-0.8-0.3c-0.3-0.1-0.6-0.3-0.8-0.5c-0.4-0.3-1.4-1.3-1.7-1.5c-0.3-0.4-0.7-0.7-1-1c-0.4-0.4-1.4-1.3-1.8-1.6
				c-0.1-0.1-1.2-1-1.2-1C122.9,111.7,124.8,113.7,125.2,114.8z"/>
			<path class="st3" d="M127.4,118.3c-0.3-0.1-0.7-0.2-1-0.4c-0.2-0.1-0.4-0.2-0.6-0.3c-0.1-0.1-0.2-0.2-0.4-0.3c0,0,0,0,0,0
				c-0.1,0.3-0.1,0.5-0.3,0.7c-0.2,0.3-0.5,0.4-0.8,0.5c0,0,0,0,0,0c0.4,0.3,0.8,0.6,1.1,0.9c-3.2,3.1-7.6,3.1-10.1,1.9
				c-2.4-1.2-3.2-2.7-2.9-4.7c-0.7-0.1-1.3-0.6-1.5-1.6c0,0,0.1,0,0.1,0.1c0.6,0.5,1.5,0.6,2.1,0.1c0.5-0.5,0.9-1.3,1.3-2.2
				c0.3-0.8,0.6-1.6,1-2.4c0.1-0.3,0.3-0.7,0.3-1c0.2-1,0-2-0.5-2.8c-0.5-0.9-0.8-2.2-0.3-3.5c0.4-1.3,1.2-1.8,1.4-2
				c0.2-0.2,0.2-0.4,0.1-0.6c-0.2-0.2-0.5,0-0.5,0c-1.9,1.6-2.4,4.5-2.4,5.3c0,0.8-2.4,6-2.8,7.5c0,0.1-0.4,1.3-0.5,2.1
				c-0.1,1.2-0.1,4.7,5.6,6.7c5.2,1.9,9.6-1.6,10.3-2.2c1.5,0.1,2.5-0.7,3.1-1.2c0.2-0.2,0.4-0.4,0.4-0.4c-0.6,1.9-1.7,2.3-2.5,2.4
				c-0.2,0-0.4,0-0.5,0c0,0,0,0.1,0,0.1c0.1,0.3,0.1,0.5,0.1,0.5s0.2,0.1,0.5,0.1c0.4,0,1.1-0.1,1.9-0.7c0.1-0.1,0.3-0.2,0.4-0.4
				c-0.3,0.7-0.1,1.6,0.6,1.9c0.7,0.4,1.6,0.1,2-0.6c0.4-0.7,0.1-1.6-0.6-2c-0.5-0.3-1.2-0.2-1.6,0.1c0.4-0.7,0.5-1.5,0.5-1.9
				c0-0.1-0.1-0.4-0.1-0.4c0,0,0,0,0,0c-0.6,0.4-1.3,0.7-2,0.7C127.9,118.4,127.6,118.3,127.4,118.3z"/>
			<path class="st3" d="M116.7,111.9c-0.2,0.7-0.4,1.2-0.6,1.7c2.9,1.3,5.6,2.9,7.4,4.1c0.3-0.1,0.5-0.2,0.8-0.5
				c0.1-0.2,0.2-0.5,0.3-0.8c-2-2-6.3-5.1-7.6-5.8C117,110.8,116.9,111.5,116.7,111.9z"/>
			<path class="st3" d="M108.5,17.7C92.5,15,89.4,27,89.3,30c0,2.1,0.1,3.6,0,4.4c-2.3,1-4.8,1.3-4.8,1.3c0.1-1.4,0.1-4.3,0.7-6.7
				c0.5-2.2,4.2-11.9,17.3-12c1.3,0,2.8,0.1,4.3,0.3C107.4,17.5,107.9,17.6,108.5,17.7C108.5,17.7,108.5,17.7,108.5,17.7z"/>
			<path d="M132,84.3c-12,3.2-23.5,4.2-31.2,4.4c-0.1-0.1-0.2-0.2-0.4-0.3c1.8-0.4,3.6-1.1,5.1-2.3c3.8-3.1,8.1-5.4,10.9-7.6
				c2.8-2.3,5.5-9.1,5.5-9.1c4.8-1.8,8-8.3,8-8.3s-0.8-1.4-0.8-3.2c-0.1-1.7,2.6-4.7,5.5-9.9c2.8-5.2,3.4-12.4-1.2-20.3
				c-4.6-7.8-17.5-11.9-17.6-11.9c-0.1,0-12.8-4.6-21.2-1.1c-8.5,3.5-12.3,9.5-13.2,15.4c-0.9,5.9-0.5,9.9-1.6,11.2
				c-1.1,1.3-2.6,2-2.6,2s-1.3,7.1,1.4,11.4c0,0-2,7-1.1,10.5c0.9,3.5,2.9,7.9,4.1,12.7c0.5,1.9,1.5,3.6,2.7,5c-0.1,0-0.3,0-0.4,0
				c-6-4.8-14.6-12.5-22.3-22.4C48,43.4,43.6,15.8,43.6,15.8C37.7,32,36.2,37.7,41.1,53C46,68.3,60.6,83,60.6,83
				c-0.4,0.9,0.2,2.4,0.2,2.4s-2.1-0.7-8.6-0.7c-6.5,0-5.2,0.7-7.2,0.6c-2-0.1-2.5-0.9-2.5-0.9c-1,0.5-1.9,1.6-1.9,1.6
				c-0.9,0.1-5.6,0.6-5.1,5.2c0.5,4.5,5.2,4.3,5.2,4.3c0.9,1,2.1,1.4,2.1,1.4s2.8,7.4,10.9,7.8c7,0.3,9.3-4,9.8-5.1
				c0.2,0.4,0.4,0.9,0.6,1.3c1.4,2.9,3.6,6.2,6.6,9.1c3,2.9,6.7,5.6,11.2,7.1c6.9,2.3,13.8,1.6,19.3-0.1c2-0.6,4-1.4,5.8-2.5
				c-0.3,1.5-0.6,6,4.8,9.7c6.7,4.6,13.4,0.4,13.4,0.4s1.2,0.4,2.5,0.2c0,0,3.6,3.1,6.8-0.2c3.1-3.3-0.2-6.5-0.9-7.2
				c0,0-0.1-1.5-0.6-2.5c0,0-0.9,0.3-2.6-0.8c-1.6-1.1-0.2-0.9-5.4-4.8c-5.2-3.9-7.3-4.7-7.3-4.7s1.4-0.9,1.6-1.8
				c0,0,20.6-2.8,33.7-12.1c13.1-9.3,15.4-14.7,20.4-31.2C173.2,59.3,153.1,78.6,132,84.3z M80.4,50c-0.1-0.5-0.1-1.1-0.1-1.7
				c0-1.4,0.1-2.9,0.1-2.9s1.9-1.3,2.9-3.1c1-1.8,1.8-5.4,1.8-5.4c3.8-0.4,7.3-4.4,7.5-4.7c-0.9,0.9-2.1,1.6-3.4,2.1
				c-2.3,1-4.8,1.3-4.8,1.3c0.1-1.4,0.1-4.3,0.7-6.7c0.5-2.2,4.2-11.9,17.3-12c1.3,0,2.8,0.1,4.3,0.3c0.6,0.1,1.1,0.2,1.6,0.3
				c0,0,0.1,0,0.1,0c3,0.6,5.3,1.3,6,1.5c0.1,0,0.1,0,0.2,0.1c0.3,0.1,0.7,0.2,1.2,0.4c0.1,0.1,0.3,0.1,0.5,0.2
				c0.2,0.1,0.4,0.2,0.7,0.3c0.3,0.1,0.6,0.3,1,0.4c0.3,0.2,0.7,0.3,1,0.5l0.7,0.3c16.8,8.1,13.1,20.9,12.1,23.3
				c-0.9,2.2-2.6,4.4-3.4,5.6c-0.9-1-2.1-2.4-3-4.1c-0.6-1.1-1-2.2-1.2-3.3c0,0,0.3,5.6,3.1,8.2c0,0-1.5,3.4-1.8,5.4
				c-0.3,2.1,0.5,4.2,0.5,4.2s-0.2,0.3-0.5,0.8c0,0,0,0,0,0.1c-0.7,1.2-1.6,2.5-2.7,3.3c-1.3,1-1.9,1.7-5.4,0.9
				c-1.4-0.3-2.8-0.6-4.2-0.8c-1.8-0.2-4.2-0.3-5.5,1.2c0,0,0,0,0,0c-0.2,0.2-0.3,0.4-0.5,0.7c0,0,1-0.7,2.8-0.6c0,0,0,0,0,0l0,0
				c-0.1,0.1-0.5,1.2-0.6,2.2c-0.1,0.6-0.4,2.1-0.4,2.1c-0.5,1.8-2.3,2.8-2.4,2.7c-0.2-0.1-0.4-0.6,0.4-3.1c0-0.1,0.4-0.3,0.5-0.3
				c0.2,0,0.3-0.1,0.5-0.1c0,0,0-0.1-0.2-0.3c-0.1-0.1-0.3-0.2-0.4-0.3c-0.1-0.1-0.8-0.4-0.8-0.4c-0.3-0.2-0.6-0.3-0.6-0.3
				c0,0.1,0,0.1,0,0.2c0,0.2-0.1,0.5-0.1,0.5c0,0.1,0,0.1,0,0.1c0,0.2-0.1,0.3-0.1,0.5c-0.2,0.6-0.3,1-0.5,1.6c0,0,0,0,0,0
				c-0.2,0.5-0.7,0.4-0.7,0.4c0,0-0.1,0-0.1,0c-0.4-0.2-0.8-0.4-1.3-0.6c0,0-0.5-0.3-0.4-0.8c0,0,0,0,0,0c0,0,0,0,0-0.1
				c0,0,0-0.1,0-0.1c0.1-0.5,0.4-1.6,0.5-1.9c0.1-0.3,0.2-0.8,0.4-1.1c-0.1-0.1-0.3-0.3-0.5-0.4c-0.2-0.1-0.3-0.1-0.6-0.1
				c-0.1,0.1-0.2,0.3-0.2,0.4c0,0.1-0.2,0.6-0.4,1.3c-0.2,0.6-0.4,1.3-0.5,1.6c-0.1,0.3-0.4,0.4-0.6,0.4c-0.2,0-0.3-0.1-0.3-0.1
				c-0.4-0.2-0.9-0.3-1.4-0.5c0,0-0.1,0-0.1,0c-0.5-0.2-0.5-0.6-0.4-0.8c0.2-0.7,0.5-1.5,0.7-2.1c0-0.2,0.1-0.3,0.1-0.5c0,0,0,0,0,0
				c0-0.1,0.2-0.6,0.5-0.7c-0.2-0.1-0.6-0.3-0.9-0.4c-0.3-0.1-1-0.2-1-0.2c0.1,0.2,0.1,0.6,0.1,0.8c-0.1,0.3-0.8,2.6-0.8,2.7
				c0,0.1-0.2,0.4-0.3,0.4c-0.2,0.1-0.7-0.1-0.7-0.1c0,0-0.1,0-0.1,0c-0.4-0.1-1-0.2-1.4-0.3c0,0-0.7-0.2-0.5-0.8
				c0,0,0.4-1.6,0.6-2.3c0,0,0,0,0-0.1c0-0.1,0.1-0.4,0.1-0.9c0-0.5-0.3-0.6-0.5-0.6c-0.2,0-0.5,0.4-0.5,0.6
				c-0.1,0.3-0.2,0.7-0.2,0.7l0,0v0c0,0,0,0.1,0,0.1c-0.2,0.6-0.4,1.1-0.6,1.7c-0.2,0.6-0.9,0.5-0.9,0.5c-0.5-0.1-1-0.2-1.4-0.3
				c0,0-0.1,0-0.1,0c0,0-0.5-0.2-0.4-0.7c0,0,0,0,0-0.1c0.2-0.6,0.4-1,0.6-1.6c0.1-0.1,0.3-0.7,0.4-0.9c0.1-0.2,0.3-0.3,0.3-0.3
				c0-0.1-0.2-0.4-0.5-0.5c0,0-0.1,0-0.1,0c-0.1,0-0.2,0-0.3-0.1c-0.3,0-0.8-0.1-1,0.3c0,0,0,0,0,0c0.1,0.2,0.1,0.4,0.1,0.5
				c0,0.1-0.1,0.2-0.1,0.3c-0.9,2.5-1.4,2.7-1.6,2.7c-0.2,0-1-1.9-0.3-3.7c0,0,0,0,0,0c0.3-0.8,0.7-1.4,1-1.9
				c0.5-0.9,0.9-2.1,0.9-2.1l0,0c0,0,0,0,0,0c0.5,0.3,0.8,0.7,1.2,1.1c0,0,0,0,0,0c0.2,0.3,0.4,0.5,0.6,0.8c0,0.1,0.1,0.2,0.1,0.2
				c0.1-0.5,0.1-1-0.1-1.5c0,0,0,0,0-0.1c-0.7-1.8-2.4-2.9-4-3.8c-1.1-0.6-2.2-1.1-3.3-1.6c-3.3-1.5-3.4-2.4-3.8-4
				C80.5,50.5,80.5,50.3,80.4,50z M84,73.9c-0.1-0.2-0.1-0.5-0.2-0.6c-0.4-1.4-2.2-6.3-2.6-7.5c-0.3-1-0.6-1.9-0.5-3.4
				c0-0.2,0-0.5,0.1-0.7c0.2-1.9,1.1-5.7,1.3-6.2c0,0,0,0,0,0s1.5,0.7,2,1c0,0,0,0,0,0.1c-0.1,0.4-0.5,3.5-0.5,5c0,0.2,0,0.4,0,0.5
				c0,0,0.9,0.9,1.1,1.6c0.2,0.7,0,4.6,1.5,7.2v-0.1c0,0,0.1-0.3,0.4-0.8c0.3-0.5,1-1.2,1.3-0.9c0.4,0.3,0.3,1,0.3,1.8
				c0,0.8-0.3,1.7-0.5,1.9c0,0,0.3,0.6,1.2,1.1c0,0,0-0.3,0-0.7c0.1-0.8,0.5-1.4,0.8-2.1c0.1-0.2,0.3-0.5,0.7-0.3
				c0,0,0.7,0.4,1.3,0.7c0.1,0.1,0.5,0.4,0.3,1c0,0,0,0,0,0.1c0,0,0,0.1,0,0.1c-0.2,0.6-0.4,1.1-0.7,1.8c0,0-0.2,0.6-0.4,0.6
				c0,0,0.5,0.3,0.8,0.5c0.4,0.2,0.8,0.3,1,0.4c0,0-0.2-0.4-0.2-0.9c0.1-0.8,0.4-1.8,0.6-2.7c0.1-0.2,0.3-0.6,0.7-0.4
				c0.5,0.2,1,0.4,1.4,0.6c0.4,0.2,0.4,0.6,0.4,0.7c-0.2,1-0.5,2.1-0.7,3.1c-0.1,0.1-0.1,0.3-0.2,0.4c0,0,0.4,0.3,0.7,0.4
				c0.3,0.1,0.8,0.2,0.8,0.2s-0.1-0.4,0-0.8c0,0,0,0,0,0c0.2-0.6,0.4-1.2,0.6-1.9c0.1-0.2,0.2-0.5,0.3-0.7c0-0.1,0.2-0.5,0.7-0.4
				c0.6,0.2,1.1,0.3,1.7,0.5c0.4,0.1,0.2,0.8,0.2,0.8s-0.6,1.5-1,2.5c0,0-0.1,0.3-0.4,0.5c0,0,0.4,0.2,0.7,0.2
				c0.6,0.1,1,0.1,1.2,0.1c0,0-0.2-0.5,0-1c0,0,0-0.1,0-0.1c0.2-0.4,0.4-0.9,0.6-1.3c0.1-0.1,0.1-0.3,0.2-0.4
				c0.1-0.2,0.4-0.5,0.9-0.4h0c0.4,0.1,0.8,0.1,1.2,0.2l0,0c0,0,0.7,0.1,0.5,0.8c-0.4,0.8-0.7,1.6-1.2,2.4c0.4,0,0.9,0.1,1.3,0.1
				c0,0-0.1,0,0.1-0.5c0.2-0.5,0.7-1.6,0.8-1.7c0.1-0.2,0.3-0.8,0.5-0.8c0.3,0,1.3,0.8,1,2.4c2.8-1.2,4.9-4.4,5.5-4.8
				c0.5-0.4,1.5-0.6,1.8-0.6c0,0,0.1,0,0.1,0c0.7-0.7,2.7-4.2,3-4.7c0,0,0,0,0,0c0.6,0.1,2.2,0.4,2.2,0.4s-1.7,4-2.8,5.8
				c-1,1.7-1.9,2.3-2.9,3c-1,0.7-5.4,3.6-6.6,4.4c-1.2,0.8-4.3,3.6-7,4.1c-1.3,0.2-2.5,0.3-3.6,0.1c-1.1-0.1-2.1-0.4-3.2-0.8
				c0,0,0,0,0,0c0,0,0,0,0,0c-2.2-0.7-4-1.6-5.8-3.6C85.3,78.9,84.5,75.6,84,73.9z M52.8,68.4c-2.4-3.4-4.5-7-6.2-10.8
				c-1.7-3.7-3.1-7.5-3.9-11.5c-0.8-3.7-1.2-7.6-1-11.4c0.1-2.3,0.4-4.6,1.1-6.8l0.1-0.3c1.2,5.1,4.8,24.1,23.7,44.6
				c3.7,4,7.8,7.8,12,11.2c-1.3,0.2-2.5,0.5-3.6,0.8c-3-2.6-10-9.5-10-9.5c-5.6-5.7-9.8-11.1-13-16.2c-0.7-1.1-1.2-2-1.6-2.6
				c-0.2-0.4-0.4-0.8-0.6-1.1l0-0.1c0.2,0.5,6.6,15.9,23,30.2c-1.2,0.4-2.3,0.9-3.3,1.4c-0.2,0.1-1.8-1.6-2-1.7
				c-1.6-1.5-3.2-3-4.8-4.5C59,76.5,55.7,72.5,52.8,68.4z M53.8,88c0.7,0,1.4,0.1,2.1,0.1c1.4,0.1,3,0.3,4.4,0.5
				c-0.8,0.3-2,0.8-2.8,2.1c-0.2,0.3-0.4,0.7-0.5,1.1c-0.2,0.7-0.4,1.3-0.5,1.7c-3.2-0.9-8.4-1.2-8.4-1.2c-0.1-0.2-0.3-0.5-0.3-0.8
				c0-0.2,0.1-0.5,0.2-0.8c0.3-0.6,0.8-1.3,1.7-1.8c0.7-0.5,1.8-0.8,2.7-1C52.9,88,53.3,88,53.8,88z M63.2,89.1
				c-0.5,0.7-1.8,6.3-2.3,7.7c0,0-0.6,1.5-0.8,2c-0.5,1-2.8,3.8-8.5,2c-5.3-1.7-6.7-7.1-6.9-8c-1.8-1.2-1.8-3.4-1.8-3.4
				c-0.9,2.4,0.6,3.5,0.9,3.8c-0.1,0-0.3,0.3-0.4,0.3c0,0-0.1,0.1-0.1,0.1c0,0-0.5-0.1-1-0.8c-0.2-0.3-0.4-0.6-0.5-1.2
				c-0.1-0.2-0.1-0.4-0.1-0.5c0,0,0,0,0,0.1c-0.1,0.8-0.9,1.4-1.7,1.3c-0.8-0.1-1.4-0.9-1.3-1.7c0.1-0.8,0.9-1.4,1.7-1.3
				c0.6,0.1,1.1,0.6,1.2,1.2c0-1.5,1.1-2.3,1.1-2.3c0.3,0.1,0.6,0.2,0.9,0.3c0.3,0.1,0.6,0.1,1,0.1c1,0,2.1-0.2,3.2-0.3
				c1.3-0.2,2.6-0.3,3.8-0.3c0.2,0,0.6,0,0.6,0c-1,0.1-2.7,0.4-3.7,1.1c0,0,0,0,0,0C48,89.4,47.3,90,47,90.6c0,0-0.1,0.3-0.2,0.3
				c-0.1,0.3-0.2,0.5-0.2,0.7c0,0.3,0.2,0.6,0.3,0.8h0c-0.1,0-1.4,0-1.4,0.1c0.7,4.4,4.2,7.1,6.9,7.6c2.7,0.5,4.1-0.2,5.1-2
				c0.6,0.3,1.4,0.3,2.2-0.3c-1.2,0-1.7-0.7-1.8-1.2c-0.2-1.4,0.6-3.4,0.9-5c0.3-1.6,1.5-2.5,2.5-2.9c1-0.4,1.9-1.3,2.4-2.6
				c0.4-1.3,0.1-2.2,0.1-2.4c-0.1-0.3,0.1-0.4,0.3-0.5c0.3-0.1,0.4,0.3,0.4,0.3C65.1,85.9,63.7,88.5,63.2,89.1z M109.3,107.6
				c0,0,0,0.2-0.1,0.5c-1.2,3.5-14.3,10-26.4,6C70.6,110,64.2,96.5,65.3,93.4c0.1-0.2,0.1-0.3,0.1-0.3c0,0,0,0,0-0.1
				c0.1-0.2,0.2-0.3,0.3-0.4c2.7-3.4,14.8-8.9,26-5.2c9.3,3.1,15.3,11.5,17.1,16.8C109.3,105.6,109.4,106.8,109.3,107.6z
				 M124.1,112.6c0.4,0.3,1.4,1.2,1.8,1.6c0.3,0.3,0.7,0.7,1,1c0.3,0.3,1.3,1.3,1.7,1.5c0.3,0.2,0.5,0.4,0.8,0.5
				c0.3,0.1,0.5,0.2,0.8,0.3c0,0,0,0,0,0c0,0,0.1,0.4,0.1,0.4c0,0.5,0,1.2-0.5,1.9c0.4-0.3,1.1-0.4,1.6-0.1c0.7,0.4,1,1.3,0.6,2
				c-0.4,0.7-1.3,1-2,0.6c-0.7-0.4-1-1.2-0.6-1.9c-0.1,0.1-0.2,0.2-0.4,0.3c-0.9,0.7-1.5,0.8-1.9,0.7c-0.3,0-0.5-0.1-0.5-0.1
				s0-0.2-0.1-0.5c0,0,0-0.1,0-0.1c0.1,0,0.3,0,0.5,0c0.7-0.1,1.9-0.6,2.5-2.4c0,0-0.2,0.2-0.4,0.4c-0.5,0.5-1.6,1.3-3.1,1.2
				c-0.7,0.6-5.1,4.1-10.3,2.2c-5.7-2-5.8-5.6-5.6-6.7c0.1-0.7,0.5-2,0.5-2.1c0.5-1.4,2.8-6.7,2.8-7.5c0-0.8,0.5-3.8,2.4-5.3
				c0,0,0.3-0.2,0.5,0c0.1,0.2,0.1,0.4-0.1,0.6c-0.2,0.2-1,0.7-1.4,2c-0.4,1.3-0.2,2.6,0.3,3.5c0.5,0.9,0.7,1.9,0.5,2.8
				c-0.1,0.3-0.2,0.7-0.3,1c-0.4,0.8-0.6,1.6-1,2.4c-0.4,0.9-0.8,1.7-1.3,2.1c-0.6,0.5-1.5,0.4-2.1-0.1c0,0-0.1,0-0.1-0.1
				c0.2,1,0.9,1.4,1.5,1.6c-0.3,2,0.4,3.5,2.9,4.7c2.5,1.2,6.8,1.2,10.1-1.9c-0.3-0.4-0.7-0.6-1.1-0.9c0,0,0,0,0,0
				c0.2-0.1,0.6-0.2,0.8-0.5c0.1-0.1,0.2-0.4,0.3-0.7c0,0,0,0,0,0c0,0,0,0,0,0c0-0.2,0.1-0.3,0.1-0.5c0-0.7-0.1-1.4-0.3-2
				c-0.4-1-2.1-2.8-2.3-3.1C123,111.8,124,112.6,124.1,112.6z M117.7,108.3c1,0.6,1.9,1.1,2.8,1.7c0.7,0.4,1.3,0.9,2,1.3
				c0.1,0.1,0.2,0.1,0.2,0.2c0.6,0.7,1.3,1.6,1.6,2.4c0.3,1,0.4,1.9,0.2,2.5c-0.1,0.3-0.2,0.6-0.3,0.8c-0.2,0.3-0.5,0.4-0.8,0.5
				c-1.8-1.2-4.5-2.8-7.4-4.1c0.2-0.4,0.4-1,0.6-1.7c0.2-0.4,0.3-1.2,0.3-1.2c0.1-1.4-0.5-2.6-1-3.4c0.1,0.1,0.2,0.1,0.3,0.2
				C116.8,107.8,117.2,108.1,117.7,108.3z M166.6,69.5c-1.3,3.7-3.7,7.2-6.3,10.1c-1.9,2.1-4,4.1-6.2,5.8c-3.4,2.7-7.3,5-11.2,6.8
				c-3.9,1.9-8,3.3-12.2,4.5c-6.5,1.8-13.5,2.8-20.3,3.1c-0.5-1-1.1-2-1.8-3.1c22-1.6,36.4-10.2,36.4-10.2l0.1-0.1
				c-0.8,0.3-1.6,0.7-2.4,1c-3.5,1.3-11,3.8-20.8,5.6c-4,0.7-8,1.2-12,1.5c-0.3,0-2.7,0.2-2.7,0.2c-0.7-0.9-1.5-1.9-2.4-2.8
				c5.3-0.2,10.8-0.8,16.2-1.7c22.2-4,35.8-13.3,42.4-18.4c0.6-0.5,1.1-0.9,1.6-1.3c1.1-0.9,1.8-1.5,1.8-1.5l0,0L166.6,69.5z"/>
			<path class="st3" d="M131.8,44.6c-0.9,2.2-2.6,4.4-3.4,5.6c-0.9-1-2.1-2.4-3-4.1c0.5-0.8,1.5-1.8,2.5-3.3c0.8-1.1,2.1-4,2.1-7.5
				c0-4-1.8-8.9-8.3-12.9c0,0,0,0-0.1,0c-0.1-0.1-0.2-0.1-0.2-0.1c-0.8-0.5-1.7-1-2.5-1.3l0.7,0.3C136.5,29.4,132.8,42.2,131.8,44.6
				z"/>
			<path class="st2" d="M128,42.9c0.8-1.1,2.1-4,2.1-7.5c0-4-1.8-8.9-8.3-12.9c0,0,0,0-0.1,0c-0.1-0.1-0.2-0.1-0.2-0.1
				c-0.8-0.5-1.7-1-2.5-1.3c-0.4-0.2-0.7-0.3-1-0.5c-0.3-0.1-0.7-0.3-1-0.4c-0.2-0.1-0.5-0.2-0.7-0.3c-0.2-0.1-0.3-0.1-0.5-0.2
				c-0.5-0.2-0.9-0.3-1.2-0.4c-0.1,0-0.1,0-0.2-0.1c-0.6-0.2-3-0.9-6-1.5C92.5,15,89.4,27,89.3,30c0,2.1,0.1,3.6,0,4.4
				c1.3-0.5,2.5-1.2,3.4-2.1c-0.2,0.2-3.7,4.2-7.5,4.7c0,0-0.8,3.6-1.8,5.4c-1,1.8-2.9,3.1-2.9,3.1c-0.2,2.6,1.2,6.3,2.8,7.1
				c1.5,0.8,5.7,2.1,7.3,4c1.6,1.8,1.6,3.8,1.3,5.2c-0.1,0.6-0.4,1.2-0.6,1.7c0.1,0,0.1,0,0.1,0c0.3,0.1,0.5,0.3,0.5,0.5
				c0,0-0.2,0.1-0.3,0.3c-0.1,0.2-0.4,0.7-0.4,0.9c-0.2,0.6-0.4,1-0.6,1.6c0,0,0,0,0,0.1c-0.2,0.5,0.4,0.7,0.4,0.7c0,0,0.1,0,0.1,0
				c0.4,0.1,0.9,0.2,1.4,0.3c0,0,0.6,0.1,0.9-0.5c0.2-0.6,0.4-1.1,0.6-1.7c0,0,0-0.1,0-0.1v0l0,0c0,0,0.1-0.4,0.2-0.7
				c0.1-0.2,0.3-0.6,0.5-0.6c0.2,0,0.6,0.1,0.5,0.6c0,0.5-0.1,0.8-0.1,0.9c0,0,0,0.1,0,0.1c-0.2,0.8-0.6,2.3-0.6,2.3
				c-0.2,0.6,0.5,0.8,0.5,0.8c0.4,0.1,1,0.2,1.4,0.3c0,0,0.1,0,0.1,0c0,0,0.5,0.2,0.7,0.1c0.2-0.1,0.3-0.3,0.3-0.4
				c0-0.1,0.7-2.5,0.8-2.7c0.1-0.2,0-0.6-0.1-0.8c0,0,0.6,0.1,1,0.2c0.3,0.1,0.7,0.3,0.9,0.4c-0.3,0.1-0.5,0.6-0.5,0.7c0,0,0,0,0,0
				c0,0.2-0.1,0.3-0.1,0.5c-0.2,0.6-0.5,1.5-0.7,2.1c0,0.2-0.1,0.6,0.4,0.8c0,0,0.1,0,0.1,0c0.4,0.2,1,0.3,1.4,0.5
				c0,0,0.1,0.1,0.3,0.1c0.2,0,0.4-0.1,0.6-0.4c0.1-0.3,0.3-1,0.5-1.6c0.2-0.6,0.4-1.2,0.4-1.3c0-0.1,0.1-0.3,0.2-0.4
				c0.2,0,0.4,0,0.6,0.1c0.2,0.1,0.4,0.3,0.5,0.4c-0.1,0.2-0.3,0.8-0.4,1.1c0,0.3-0.3,1.3-0.5,1.9c0,0,0,0.1,0,0.1c0,0,0,0,0,0.1
				c0,0,0,0,0,0c-0.1,0.5,0.4,0.8,0.4,0.8c0.5,0.2,0.9,0.4,1.3,0.6c0,0,0.1,0,0.1,0c0,0,0.5,0.2,0.7-0.4c0,0,0,0,0,0
				c0.2-0.6,0.3-1,0.5-1.6c0-0.2,0.1-0.3,0.1-0.5c0,0,0-0.1,0-0.1c0,0,0.1-0.3,0.1-0.5c0-0.1,0-0.2,0-0.2c0,0,0.3,0.1,0.6,0.3
				c0.1-1.2,0.6-2.1,0.6-2.1c0.1-0.3,0.3-0.5,0.5-0.7c0,0,0,0,0,0c0.6-1.1,1.8-2.2,3.8-2.6c2.4-0.5,6.5,0.9,8.2,1.2
				c1.5,0.3,4.3-1.4,5.9-3.2c0.3-0.5,0.5-0.8,0.5-0.8s-0.8-2.2-0.5-4.2c0.3-2.1,1.8-5.4,1.8-5.4c-2.8-2.7-3.1-8.2-3.1-8.2
				c0.2,1.1,0.6,2.3,1.2,3.3C125.9,45.4,126.9,44.4,128,42.9z M103,41.3c2.3,2,3.3,2.2,3.5,2.3c0.2,0.1,1.1,0.5,4.1,0.3
				c3.5-0.2,9.7-0.8,11.5,1.4c0,0.1-4.4-0.4-7.4,0c-3,0.6-7.2,1-9,0.4c-1.9-0.6-5-3.5-7-5.7c-2.1-2.2-5.9-4.4-5.9-4.5
				C95.7,34.8,100.3,39.1,103,41.3z M105.6,60.6l-0.3,0.9c-0.4,1.2-1.8,1.8-3.2,1.3c0,0,0,0,0,0s0.9-0.2,1.2-1.1c0,0,0,0,0,0
				c-0.3,0-0.5,0-0.8-0.1c-0.9-0.3-1.4-1.2-1.1-2c0-0.1,0-0.3-0.2-0.3c-0.1,0-0.3,0-0.3,0.2c-0.3,0.8-1.2,1.2-2.1,0.9
				c-0.3-0.1-0.5-0.3-0.7-0.5c0,0,0,0,0,0c-0.3,0.9,0.3,1.6,0.3,1.6c-1.4-0.5-2.2-1.8-1.8-3l0.3-0.9c0.2-0.7,0.7-1.1,1.1-1.3
				c0.4-0.2,0.7-0.4,1.1-0.9l0,0v0c0.5-0.6,0.9-1,1.2-1.8c0.4-1.1,1.7-1.7,3.1-1.4c0.1,0,0.1,0,0.1,0c0.1,0,0.1,0,0.2,0.1
				c1.3,0.5,2,1.8,1.6,2.9c-0.2,0.7-0.2,1.3-0.1,2.1l0,0v0c0,0.6,0.2,1,0.3,1.4C105.6,59.3,105.8,59.9,105.6,60.6z M124.5,50.8
				L124.5,50.8c0,0-0.7,4.8-1.9,6.6c-1.2,1.9-2.3,3.6-5.2,3.4c0,0,1.7-0.5,1.1-1.8c0-0.1-0.1-0.2-0.1-0.3c0,0,0,0,0,0
				c0,0-0.4,0.1-0.7,0.2c-1.7,0.2-5.4-0.3-7.2-1.6c0,0,0,0,0,0c0,0-0.4,0.5,0.1,2.2c-0.1,0-2.3-0.9-3.1-2.7c-0.8-1.8,0-6.8-3-7.8
				c-3-1-5.3,3.5-7.1,4.4c-1.8,1-4.1,0.2-4.1,0.2c1.5-1,1.4-1.7,1.4-1.7c0,0,0,0-0.1,0c-2.1-0.1-5.4-1.9-6.7-3.1
				c-0.2-0.2-0.4-0.5-0.4-0.5c0,0-0.1,0.1-0.1,0.1c0,0-0.1,0.1-0.1,0.1c-1.2,0.7-0.3,2-0.2,2.1c-2.4-1.6-2.2-3.7-2-5.8
				c0.2-2.2,2.5-6.4,2.5-6.4l0,0c0,0,0,0,0,0c0.1,0.1,2.2,0.9,4,2.7c0.2,0.2,0.4,0.3,0.5,0.5c2,2.1,3.8,4.1,5.6,4.7
				c0.6,0.2,1.2,0.2,1.8,0.2c0,0,0,0,0,0c0.2,0,0.3,0,0.5,0v0c0.9-0.1,1.7-0.4,1.7-0.4c0.6,1.3,5.5,3,6.8,2.3c0,0,0,0,0,0
				c0.1,0.1,0.5,0.7,1.1,1.3v0c0.1,0.1,0.2,0.2,0.3,0.3c0,0,0,0,0,0c0.4,0.4,1,0.7,1.6,0.9c1.8,0.6,4.5,0.2,7.3-0.3
				c0.2,0,0.5-0.1,0.7-0.1C122.2,50.3,124.5,50.8,124.5,50.8z"/>
		</g>
	</g>
</g>
</svg>
