<svg width="200" height="136" xmlns="http://www.w3.org/2000/svg" xmlns:svg="http://www.w3.org/2000/svg" xmlns:xlink="http://www.w3.org/1999/xlink">
 <g class="layer">
  <title>Layer 1</title>
  <path d="m191.952,136l-183.904,0c-4.445,0 -8.048,-3.603 -8.048,-8.048l0,-119.904c0,-4.445 3.603,-8.048 8.048,-8.048l183.903,0c4.446,0 8.049,3.603 8.049,8.048l0,119.903c0,4.446 -3.603,8.049 -8.048,8.049z" fill="#f0f0f0" id="svg_1"/>
  <g id="svg_2">
   <defs>
    <path d="m191.952,136l-183.904,0c-4.445,0 -8.048,-3.603 -8.048,-8.048l0,-119.904c0,-4.445 3.603,-8.048 8.048,-8.048l183.903,0c4.446,0 8.049,3.603 8.049,8.048l0,119.903c0,4.446 -3.603,8.049 -8.048,8.049z" id="SVGID_1_"/>
   </defs>
   <clipPath id="SVGID_2_">
    <use id="svg_3" xlink:href="#SVGID_1_"/>
   </clipPath>
   <g clip-path="url(#SVGID_2_)" id="svg_4">
    <path d="m279.082,175.395c-19.58,-26.37 -53.755,-58.581 -94.469,-76.664l8.314,19.159c-34.62,-17.437 -73.105,-29.953 -116.731,-29.755l9.297,10.066c-80.585,3.156 -127.862,43.117 -158.819,77.194c0.724,-46.14 33.785,-87.81 77.341,-113.248l-8.965,-8.321c32.416,-22.436 77.88,-28.731 116.252,-24.299l-5.457,-9.844c127.118,9.444 180.959,104.31 173.237,155.712z" fill="#FFFFFF" id="svg_5"/>
    <g id="svg_6">
     <g id="svg_7">
      <path d="m75.602,94.304l-9.767,-10.575c37.013,-1.231 74.43,4.342 117.957,24.801l-8.018,-18.478c32.771,12.696 69.078,36.394 99.523,73.153c-2.681,-55.658 -58.891,-127.781 -161.129,-138.095l5.685,10.256c-41.323,-7.02 -87.753,0.286 -117.3,19.126l9.24,8.576c-44.476,23.853 -73.692,61.796 -79.964,100.137c36.71,-38.341 84.436,-64.823 143.773,-68.901z" fill="#0080C6" id="svg_8"/>
     </g>
     <path d="m259.343,133.325c-17.324,-46.633 -69.432,-86.838 -127.925,-96.462l6.871,12.244c-35.231,-10.898 -86.428,-10.237 -120.082,7.322l9.654,8.961c-30.845,13.219 -63.393,41.525 -76.275,67.536c21.127,-19.057 67.092,-41.116 104.8,-45.803l-9.37,-10.145c36.24,-7.184 84.541,-0.074 118.974,13.908l-6.679,-15.392c25.359,5.198 72.49,27.857 100.032,57.831z" fill="#FFC20E" id="svg_9"/>
    </g>
   </g>
  </g>
 </g>
</svg>