<?xml version="1.0" encoding="utf-8"?>
<!-- Generator: Adobe Illustrator 24.0.1, SVG Export Plug-In . SVG Version: 6.00 Build 0)  -->
<svg version="1.1" id="LAR" xmlns="http://www.w3.org/2000/svg" xmlns:xlink="http://www.w3.org/1999/xlink" x="0px" y="0px"
	 viewBox="0 0 200 136" style="enable-background:new 0 0 200 136;" xml:space="preserve">
<style type="text/css">
	.st0{fill:#00519C;}
	.st1{clip-path:url(#SVGID_2_);}
	.st2{clip-path:url(#SVGID_4_);}
	.st3{clip-path:url(#SVGID_6_);}
	.st4{fill:url(#SVGID_7_);}
	.st5{clip-path:url(#SVGID_9_);}
	.st6{fill:#E3E1DC;}
	.st7{fill:#FFFFFF;}
	.st8{fill:#FEDF00;}
	.st9{fill:#FAA51D;}
	.st10{fill:#F58023;}
	.st11{clip-path:url(#SVGID_11_);}
	.st12{fill:url(#SVGID_12_);}
	.st13{clip-path:url(#SVGID_14_);}
</style>
<path class="st0" d="M192,136H8c-4.4,0-8-3.6-8-8V8c0-4.4,3.6-8,8-8H192c4.4,0,8,3.6,8,8V128C200,132.4,196.4,136,192,136z"/>
<g>
	<defs>
		<path id="SVGID_1_" d="M192,136H8c-4.4,0-8-3.6-8-8V8c0-4.4,3.6-8,8-8H192c4.4,0,8,3.6,8,8V128C200,132.4,196.4,136,192,136z"/>
	</defs>
	<clipPath id="SVGID_2_">
		<use xlink:href="#SVGID_1_"  style="overflow:visible;"/>
	</clipPath>
	<g class="st1">
		<g>
			<defs>
				<rect id="SVGID_3_" x="-10.4" y="-11.3" width="220.8" height="158.5"/>
			</defs>
			<clipPath id="SVGID_4_">
				<use xlink:href="#SVGID_3_"  style="overflow:visible;"/>
			</clipPath>
			<g class="st2">
				<path class="st0" d="M183.5,15.7c-30.2-30.2-77.3-35.6-113.5-13l0,0c-10,6.6-18.7,15.1-25.5,25l0,0h-19l-35.7,80.8h46.3
					c6.7,12.5,16.9,22.8,29.2,29.7c23.7,13,52.6,11.9,75.2-2.8c3.3-2.1,4.2-6.5,2.1-9.8c-1.3-2-3.5-3.2-5.9-3.2
					c-0.7,0-1.4,0.1-2.1,0.3c-4.6,1.4-9.4,2.1-14.3,2.1c-13.9,0-27.1-5.9-36.3-16.2h43.3l7.4-10.4h28.8c0,0-0.9,2.3-1.4,3.3l-3.1,7
					h47.2l1-3.7c2.1-7.9,3.2-16,3.2-24.2c0.1-24.4-9.6-47.8-26.9-65 M202.5,103.5h-35.9c1.5-3.4,2.7-6.8,3.7-10.4h-38.3l-7.4,10.4
					H90.2l51.4-72l0,0c-6.8-2.8-14-4.2-21.3-4.1c-0.9,0-1.9,0-2.8,0c-27.9,1.4-50.1,23.8-50.1,51.1c0,1.8,0.1,3.5,0.3,5.3h30.3
					l-9.1,12.7c-2.7,4.2-7.4,6.8-12.4,6.8H74c9.6,16.3,27.2,26.3,46.2,26.2c5.3,0,10.6-0.7,15.7-2.3c0.2,0,0.4,0,0.6,0
					c1.2,0.1,2.1,1.1,2,2.2c0,0.7-0.4,1.3-0.9,1.6c-31.4,20.5-73.6,11.7-94.1-19.8c-1.7-2.5-3.1-5.2-4.4-7.9H-2.7l31.3-70.6h18.2
					C59.3,16.5,78.4,6.8,99,6.3h1.5c27.9-0.3,53,16.8,63.1,42.8l-17.8,25h27.1C172.7,33.9,140,1.5,99.9,1.6
					c-9.4,0-18.7,1.9-27.4,5.4c40.7-25.4,94.3-13,119.7,27.8c12.8,20.5,16.5,45.5,10.1,68.8 M101.6,79H72.3v-0.3
					c0-24.5,19.9-44.8,45.4-46.1h2.5c4.5,0,9,0.6,13.4,1.7L101.6,79z M165.2,55.5c1.3,4.4,2.1,8.9,2.5,13.5h-12.1L165.2,55.5z"/>
			</g>
		</g>
		<g>
			<defs>
				<path id="SVGID_5_" d="M72.5,6.9c37.1-15.3,79.6,2.4,94.8,39.5c7.5,18.3,7.3,38.9-0.7,57h35.7c12.6-46.3-14.7-94.1-61-106.7
					C118-9.6,93-5.9,72.5,6.9"/>
			</defs>
			<clipPath id="SVGID_6_">
				<use xlink:href="#SVGID_5_"  style="overflow:visible;"/>
			</clipPath>
			<g class="st3">
				
					<linearGradient id="SVGID_7_" gradientUnits="userSpaceOnUse" x1="369.2736" y1="-392.3073" x2="371.5443" y2="-392.3073" gradientTransform="matrix(0 48.34 -48.34 0 -18825.1816 -17858.3301)">
					<stop  offset="0" style="stop-color:#FEDF00"/>
					<stop  offset="0.22" style="stop-color:#FEDF00"/>
					<stop  offset="0.42" style="stop-color:#FEED6E"/>
					<stop  offset="0.62" style="stop-color:#FFFAD6"/>
					<stop  offset="0.71" style="stop-color:#FFFFFF"/>
					<stop  offset="1" style="stop-color:#FFFFFF"/>
				</linearGradient>
				<rect x="72.5" y="-6.2" class="st4" width="132.9" height="109.8"/>
			</g>
		</g>
		<g>
			<defs>
				<rect id="SVGID_8_" x="-10.4" y="-11.3" width="220.8" height="158.5"/>
			</defs>
			<clipPath id="SVGID_9_">
				<use xlink:href="#SVGID_8_"  style="overflow:visible;"/>
			</clipPath>
			<g class="st5">
				<path class="st6" d="M141.6,31.5l-11.8,16.6h1.8c9.4,0,18.4,3.8,25,10.6l6.8-9.6c-5.5-7.8-13.1-13.8-21.9-17.5"/>
				<path class="st6" d="M170.3,93.2c1.7-6.2,2.5-12.5,2.5-18.9v-0.3h-7.4c1.7,6.3,1.6,13-0.2,19.3L170.3,93.2z"/>
				<path class="st7" d="M165.3,73.9h-19.7l10.9-15.3c-6.6-6.7-15.6-10.6-25-10.6h-1.8l-39.6,55.4h34.4l7.4-10.4h33.2
					c1.9-6.3,2-12.9,0.2-19.3"/>
				<path class="st8" d="M55.7,110.7"/>
				<path class="st9" d="M55.7,110.7"/>
				<path class="st8" d="M137.6,131.2c-21.1,13.7-48,14.7-70,2.6c-5.5-6.8-9.5-14.7-11.9-23.1c7.6-0.4,18.6,0.3,26.8,3.8
					c10.1,9.8,23.6,15.3,37.6,15.3c5.3,0,10.6-0.8,15.7-2.3c0.2,0,0.4,0,0.6,0c1.2,0.1,2.1,1.1,2,2.2c0,0.7-0.4,1.3-0.9,1.6
					 M67.5,84c-0.2-1.8-0.3-3.5-0.3-5.3c0-27.2,22.2-49.7,50.1-51.1C85.4,28.8,58.9,52.5,54,84H67.5z"/>
				<path class="st9" d="M74,103.5H54.2c0.4,2.4,0.9,4.8,1.6,7.2c7.6-0.4,18.6,0.3,26.8,3.8C79.2,111.2,76.4,107.5,74,103.5"/>
				<path class="st10" d="M39,103.5c2.5,5.2,5.6,10,9.2,14.4c1.9-2.9,4.4-5.4,7.4-7.2c-0.7-2.4-1.2-4.8-1.6-7.2H39z"/>
			</g>
		</g>
		<g>
			<defs>
				<path id="SVGID_10_" d="M48.3,117.9c5.4,6.4,12,11.8,19.3,15.9c-5.5-6.8-9.5-14.7-11.9-23.1C52.7,112.5,50.1,114.9,48.3,117.9
					 M98.9,6.2C78.3,6.7,59.1,16.5,46.6,32.8h11.7L35.7,84h18.4c4.8-31.6,31.4-55.2,63.3-56.4c0.9,0,1.8,0,2.8,0
					c7.3,0,14.6,1.4,21.3,4.1c8.8,3.6,16.4,9.7,21.9,17.5l0,0c-10-26-35.2-43.1-63.1-42.8h-1.5"/>
			</defs>
			<clipPath id="SVGID_11_">
				<use xlink:href="#SVGID_10_"  style="overflow:visible;"/>
			</clipPath>
			<g class="st11">
				
					<linearGradient id="SVGID_12_" gradientUnits="userSpaceOnUse" x1="369.4965" y1="-371.3088" x2="371.7673" y2="-371.3088" gradientTransform="matrix(56.26 0 0 56.26 -20756.2812 20959.8398)">
					<stop  offset="0" style="stop-color:#FAA51D"/>
					<stop  offset="0.12" style="stop-color:#FAAA1B"/>
					<stop  offset="0.25" style="stop-color:#FBB814"/>
					<stop  offset="0.4" style="stop-color:#FDCF08"/>
					<stop  offset="0.48" style="stop-color:#FEDF00"/>
					<stop  offset="1" style="stop-color:#FEDF00"/>
				</linearGradient>
				<rect x="35.7" y="6.2" class="st12" width="127.8" height="127.6"/>
			</g>
		</g>
		<g>
			<defs>
				<rect id="SVGID_13_" x="-10.4" y="-11.3" width="220.8" height="158.5"/>
			</defs>
			<clipPath id="SVGID_14_">
				<use xlink:href="#SVGID_13_"  style="overflow:visible;"/>
			</clipPath>
			<g class="st13">
				<path class="st7" d="M58.4,32.8L35.7,84h62.3l-9.1,12.7c-2.7,4.2-7.4,6.8-12.4,6.8H-2.7l31.3-70.7H58.4z"/>
			</g>
		</g>
	</g>
</g>
</svg>
